<svg
   viewBox="0 0 336 427">
  <g
     transform="matrix(0.1,0,0,-0.1,0,427)"
     stroke="none"
     id="g3">
    <path
       d="m 1557,4152 -117,-117 v -352 -353 l -27,-6 c -53,-13 -149,-61 -211,-108 -64,-47 -136,-136 -177,-216 -85,-167 -116,-433 -80,-674 8,-55 15,-125 15,-156 0,-52 -3,-59 -40,-95 l -40,-39 v -121 -121 l -49,-48 -49,-48 -12,58 c -17,86 -16,86 -52,82 l -33,-3 -18,-95 -19,-95 -138,-102 -137,-103 h -82 c -74,0 -84,-2 -106,-25 l -25,-24 V 775 160 H 80 0 V 80 0 h 1680 1680 v 80 80 h -80 -80 v 390 391 l -25,24 c -32,33 -78,33 -110,0 -25,-24 -25,-26 -25,-211 V 567 l -37,7 c -21,3 -48,6 -60,6 -22,0 -23,3 -23,109 0,134 -15,246 -42,320 -35,94 -132,173 -177,144 -14,-9 -16,-46 -19,-278 l -2,-267 -43,5 c -23,4 -68,9 -99,13 l -58,6 v 409 409 l 23,9 c 12,5 45,18 74,29 l 51,21 153,-115 c 150,-112 153,-114 206,-114 h 53 v -75 c 0,-67 3,-79 25,-100 32,-33 78,-33 110,0 24,23 25,29 25,155 0,126 -1,132 -25,155 -22,23 -32,25 -106,25 h -82 l -137,103 -138,102 -19,95 -18,95 -33,3 c -36,4 -35,4 -52,-82 l -12,-58 -49,48 -49,48 v 121 121 l -41,39 -41,40 6,90 c 3,50 10,122 15,160 34,236 -11,517 -109,679 -70,116 -215,233 -334,270 l -56,18 v 351 352 l -117,117 c -65,65 -120,118 -123,118 -3,0 -58,-53 -123,-118 z m 168,-152 39,-40 h -84 -84 l 39,40 c 21,22 42,40 45,40 3,0 24,-18 45,-40 z m 35,-380 v -260 h -80 -80 v 260 260 h 80 80 z m 47,-448 c 7,-9 29,-47 48,-84 67,-130 101,-302 112,-567 6,-156 5,-163 -13,-159 -12,2 -54,64 -119,173 -108,182 -126,199 -182,179 -21,-7 -51,-48 -129,-179 -62,-104 -108,-171 -119,-174 -17,-3 -18,7 -12,165 7,183 26,319 59,429 19,67 73,182 101,217 17,21 62,27 161,22 59,-4 83,-9 93,-22 z m -387,-74 c -64,-137 -98,-324 -107,-589 l -6,-176 -94,-28 c -51,-15 -95,-26 -98,-23 -13,12 -27,217 -22,318 13,272 113,457 291,541 33,16 61,27 63,25 2,-2 -10,-32 -27,-68 z m 612,11 c 143,-92 223,-264 235,-509 6,-121 -12,-320 -28,-320 -6,0 -49,12 -98,27 l -88,27 -6,175 c -9,265 -43,452 -107,589 -16,35 -30,66 -30,68 0,8 76,-27 122,-57 z m -274,-753 c 79,-134 78,-133 192,-161 36,-9 116,-33 178,-53 111,-36 112,-37 112,-67 0,-23 10,-41 40,-70 l 40,-39 v -121 -121 l 60,-59 60,-59 -107,-43 c -93,-37 -117,-43 -183,-43 h -76 l -17,56 c -32,103 -105,185 -207,233 -49,23 -67,26 -170,26 -110,0 -118,-1 -182,-33 -100,-49 -185,-154 -205,-253 l -5,-29 h -77 c -67,0 -90,5 -184,43 l -107,43 60,59 60,59 v 121 121 l 40,39 c 30,29 40,47 40,70 0,31 2,32 98,63 53,17 133,41 177,52 131,35 125,30 206,165 41,69 76,124 79,124 3,1 38,-55 78,-123 z m -4,-688 c 85,-25 166,-136 166,-227 0,-21 9,-41 25,-57 25,-25 26,-25 178,-21 83,2 162,7 175,11 l 22,8 v -371 c 0,-361 -1,-371 -20,-371 -18,0 -19,10 -22,265 l -3,265 -33,32 c -28,28 -39,33 -82,33 -43,0 -54,-5 -82,-33 l -33,-32 -3,-265 -3,-265 h -79 -79 l -3,233 -3,234 -27,40 c -41,62 -90,88 -168,88 -78,0 -127,-26 -168,-88 l -27,-40 -3,-234 -3,-233 h -79 -79 l -3,265 -3,265 -33,32 c -28,28 -39,33 -82,33 -43,0 -54,-5 -82,-33 l -33,-32 -3,-265 c -3,-255 -4,-265 -22,-265 -19,0 -20,10 -20,371 v 371 l 23,-8 c 12,-4 91,-9 174,-11 152,-4 153,-4 178,21 16,16 25,36 25,57 0,62 23,113 75,164 70,71 145,90 239,63 z m -896,-209 22,-9 V 1041 632 l -42,-5 c -24,-4 -69,-9 -100,-13 l -58,-6 -2,267 c -3,232 -5,269 -19,278 -45,29 -142,-50 -177,-144 -27,-74 -42,-186 -42,-320 0,-106 -1,-109 -22,-109 -13,0 -40,-3 -60,-6 l -38,-7 v 357 356 h 53 c 53,0 56,2 206,114 l 153,115 51,-21 c 29,-11 62,-24 75,-29 z m 370,-311 c 9,-9 12,-80 12,-260 V 640 h -40 -40 v 248 c 0,255 3,272 40,272 9,0 21,-5 28,-12 z m 960,0 c 9,-9 12,-80 12,-260 V 640 h -40 -40 v 248 c 0,255 3,272 40,272 9,0 21,-5 28,-12 z M 1640,1035 V 920 h -41 -41 l 3,84 c 4,78 6,87 33,115 17,17 33,31 38,31 4,0 8,-52 8,-115 z m 126,84 c 27,-28 29,-37 33,-115 l 3,-84 h -41 -41 v 115 c 0,63 4,115 8,115 5,0 21,-14 38,-31 z M 598,605 c -2,-1 -20,-5 -40,-9 l -38,-7 v 113 c 1,136 19,249 51,309 l 24,44 3,-224 c 1,-123 1,-225 0,-226 z m 2193,403 c 30,-59 48,-174 49,-307 0,-113 0,-113 -22,-107 -13,3 -31,6 -40,6 -17,0 -18,17 -18,225 0,124 2,225 5,225 2,0 14,-19 26,-42 z M 1640,740 V 640 h -40 -40 v 100 100 h 40 40 z m 160,0 V 640 h -40 -40 v 100 100 h 40 40 z M 1560,320 V 160 h -119 -119 l -4,105 c -3,103 -4,105 -36,137 -28,28 -39,33 -82,33 -43,0 -54,-5 -82,-33 -32,-32 -33,-34 -36,-137 -4,-95 -6,-105 -23,-105 -18,0 -19,9 -19,160 v 160 h 260 260 z m 160,0 V 160 h -40 -40 v 160 160 h 40 40 z m 600,0 c 0,-151 -1,-160 -19,-160 -17,0 -19,10 -23,105 -3,103 -4,105 -36,137 -47,48 -117,48 -164,0 -32,-32 -33,-34 -36,-137 l -4,-105 h -119 -119 v 160 160 h 260 260 z M 880,315 V 160 H 780 680 v 144 145 l 58,6 c 31,3 66,7 77,9 70,11 65,23 65,-149 z m 1743,139 57,-6 V 304 160 h -100 -100 v 156 156 l 43,-5 c 23,-4 68,-9 100,-13 z M 600,300 V 160 h -40 -40 v 134 c 0,132 0,135 23,139 60,12 57,19 57,-133 z m 2209,134 31,-6 V 294 160 h -40 -40 v 140 c 0,77 4,140 9,140 5,0 23,-3 40,-6 z M 440,290 V 160 h -60 -60 v 124 125 l 33,4 c 17,2 44,5 60,5 l 27,2 z m 2554,124 46,-7 V 284 160 h -60 -60 v 130 c 0,103 3,130 14,130 7,0 34,-3 60,-6 z M 1228,348 c 8,-8 12,-45 12,-100 v -88 h -40 -40 v 88 c 0,89 8,112 40,112 9,0 21,-5 28,-12 z m 960,0 c 8,-8 12,-45 12,-100 v -88 h -40 -40 v 88 c 0,89 8,112 40,112 9,0 21,-5 28,-12 z"
       id="path1" />
    <path
       d="m 735,3817 c -22,-37 -45,-61 -83,-83 l -52,-32 55,-33 c 41,-25 61,-45 83,-88 l 30,-54 25,49 c 29,57 46,73 106,104 l 44,22 -57,31 c -46,25 -64,42 -88,84 -16,29 -31,53 -31,53 -1,-1 -15,-24 -32,-53 z"
       id="path2" />
    <path
       d="m 2740,2953 c -18,-35 -36,-53 -67,-68 -24,-11 -43,-22 -43,-25 0,-3 20,-16 44,-28 30,-17 51,-38 68,-68 12,-24 25,-44 28,-44 4,0 16,20 28,45 16,33 33,50 67,68 l 46,23 -50,31 c -32,21 -57,46 -71,72 -11,23 -21,41 -23,41 -1,0 -13,-21 -27,-47 z"
       id="path3" />
  </g>
</svg>
