<svg appTooltip="Architecture and city icons created by Galih Tri Anggoro - Flaticon" viewBox="0 0 251.25 319.03"
     xmlns="http://www.w3.org/2000/svg">
  <path
    d="M192.6,192.04c1.33-3.31,1.29-6.77,2.45-10.05,1.41-.64,2.88-.17,4.46-.34,1.26,3.7,1.72,7.4,2.4,11.03,.43,2.29,1.37,4.04,3.38,5.47,5.28,3.76,10.44,7.7,15.56,11.68,1.67,1.29,3.35,1.95,5.47,1.8,2.24-.15,4.49-.11,6.73,0,3.77,.19,6.04,2.37,6.14,6.14,.13,4.86,.13,9.73,0,14.59-.1,3.64-2.51,6.04-5.78,6.11-3.42,.08-5.9-2.39-6.06-6.21-.11-2.73-.02-5.46-.02-8.19-.49-.22-.84-.53-1.13-.49-5.26,.75-9.29-1.55-13.22-4.75-5.31-4.32-10.93-8.26-16.52-12.43-3.65,1.46-7.22,2.88-10.92,4.36v61.17c4.73,.98,9.55,1.12,14.25,1.78,.95-1.42,.55-2.83,.56-4.16,.04-10.6,.22-21.21-.07-31.81-.12-4.51,2.17-6.56,6.97-4.06,3.61,1.88,5.74,5.08,7.3,8.71,2.65,6.18,3.39,12.75,3.63,19.37,.17,4.58,.03,9.17,.03,13.94,3.09,.37,5.78,.68,8.34,.99,1.11-.87,.74-1.94,.75-2.88,.03-6.74,.02-13.47,.02-20.21,0-1-.06-2.01,.07-2.99,.4-3.14,2.75-5.28,5.76-5.34,3.16-.06,5.64,2.14,6.02,5.46,.13,1.11,.06,2.24,.06,3.37,0,16.22,0,32.44,0,48.65,0,1.36,0,2.73,0,4.33,3.89,.78,7.75,0,11.72,.49,.52,3.78,.14,7.48,.26,11.46H0v-11.29c3.67-.85,7.54,.1,11.29-.53,.82-1.33,.44-2.73,.44-4.05,.03-27.32,.02-54.64,.02-81.96,0-.87-.02-1.75,0-2.62,.12-4.7,2.27-7.31,6.86-6.87,6.69,.64,12.04-1.37,16.89-5.87,2.91-2.7,6.26-4.96,9.56-7.18,2.45-1.65,3.72-3.71,4.16-6.64,.52-3.41,1.03-6.86,2.16-10.1,1.51-.37,2.87-.33,4.41-.06,1.42,3.13,1.17,6.77,2.59,10.18,2.52-1.76,4.35-4.12,6.5-6.13,.96-.9,.75-2.05,.75-3.15,.01-5.11,0-10.22,0-15.86,1.97-1.64,4.17-3.47,5.62-4.67,1.23-8.45-.87-15.51-1.47-22.69-1.09-12.93-.43-25.67,3.91-38.02,5.49-15.63,15.95-26.17,31.99-30.92,.58-.17,1.12-.46,1.88-.78,0-2.02,0-4,0-5.98,0-14.35,.04-28.69-.05-43.04-.01-2.28,.55-3.95,2.24-5.57C114.98,10.22,120.02,5.03,125.04,0c1.37,0,1.87,.99,2.54,1.65,4.35,4.3,8.57,8.72,13.02,12.91,2.05,1.93,2.93,3.93,2.9,6.81-.15,14.72-.07,29.44-.07,44.16,0,1.36,0,2.73,0,3.82,.61,1.01,1.43,1.07,2.1,1.28,17.61,5.5,28.16,17.71,33.09,35.08,4.14,14.57,3.72,29.35,1.17,44.12-.58,3.37-.27,6.71-.43,10.07-.1,1.95,1.44,2.89,2.63,3.84,2.65,2.14,3.84,4.65,3.41,8.1-.27,2.21,.31,4.56-.12,6.72-1.3,6.6,2.92,9.95,7.32,13.49Zm-10.22,7.06c-2.52-2.56-4.71-4.91-7.06-7.1-1.39-1.29-1.97-2.66-1.92-4.57,.12-5.1,.04-10.21,.04-15.83-1.4-1.25-2.88-2.81-4.59-4.03-2.16-1.54-.87-3.99-1.75-5.86-8.3-3.19-16.76-5.74-25.37-7.71-3.18-.73-5.32-2.3-6.9-5.11-2.43-4.35-5.08-8.57-7.68-12.82-.47-.77-.63-1.95-2.09-1.98-2.54,4.21-5.41,8.32-7.6,12.77-2.32,4.73-5.9,6.86-10.91,7.89-7.78,1.61-15.33,4.15-23.09,7.16,1.18,3.9-1.44,6.01-3.86,8.16-1.52,1.34-2.14,2.83-2.06,4.89,.15,4.11-.06,8.23,.09,12.34,.08,2.06-.65,3.47-2.08,4.88-2.25,2.22-4.82,4.2-6.58,7.09,8.83,3.48,17.09,8.41,27.04,5.9,4.95-15.05,13.71-22.89,26.26-23.49,6.97-.33,13.68,.38,19.74,4.28,7.2,4.62,11.24,11.36,12.84,19.15,10.33,2.5,18.53-2.37,27.55-5.99Zm-104.58,16.84v55.6c1.04-.34,1.96,.36,2.81-.93,0-7.04,0-14.38,0-21.73,0-4.61-.14-9.24,.08-13.84,.24-4.84,4.16-8.42,8.82-8.45,4.65-.03,8.49,3.54,8.94,8.35,.1,1.11,.06,2.24,.06,3.36,0,9.73,0,19.45,.01,29.18,0,1.21-.24,2.47,.41,3.91,3.75,.05,7.54,.26,11.26-.14,.59-1.43,.35-2.68,.35-3.9,.03-8.36-.03-16.71,.02-25.07,.06-9.11,6.44-15.77,14.99-15.73,8.55,.04,14.81,6.68,14.86,15.87,.05,8.48,0,16.96,.03,25.44,0,1.08-.31,2.23,.51,3.52,3.66,.05,7.44,.27,11.51-.19,0-8.03,0-15.86,0-23.69,0-4.12-.13-8.24,.07-12.34,.23-4.87,4.04-8.49,8.69-8.59,4.78-.11,8.7,3.58,9.1,8.59,.08,.99,.04,1.99,.04,2.99,0,9.85-.01,19.7,.02,29.55,0,1.2-.38,2.5,.47,3.61,.84,.04,1.73,.45,2.31-.33v-55.48c-4.49,2.76-9.04,1.87-13.48,1.98-2.74,.07-5.49,.02-8.23,.01-5.79-.03-7.51-1.61-8.02-7.37-.87-9.72-9.02-16.92-18.77-16.56-9.12,.34-16.41,7.59-17.16,17.07-.36,4.54-2.24,6.91-6.27,6.78-7.78-.23-15.68,1.36-23.45-1.5Zm-23.26-9.55c-5.36,4.01-10.76,7.81-15.88,11.97-4.2,3.41-8.48,6.07-14.17,5.27-.17-.02-.39,.25-.58,.38v52.6c3.09,.04,5.85-.46,8.86-1.06,0-4.78-.14-9.39,.03-13.98,.24-6.62,1.01-13.17,3.69-19.33,1.63-3.74,3.88-7,7.71-8.79,4.23-1.98,6.39-.58,6.4,4.08,.02,10.72-.01,21.44,.03,32.15,0,1.31-.45,2.73,.61,4.09,4.71-.61,9.53-.76,14.21-1.85v-61.18c-3.68-1.47-7.24-2.88-10.92-4.35Zm62.39-125.63c-2.91,3.4-4.91,7.25-6.52,11.33-5.03,12.74-6.11,26.14-6.55,39.63-.12,3.66-.21,7.35,.16,10.84,1.68,.47,2.31-.24,2.85-1.15,.76-1.29,1.53-2.57,2.29-3.86,3.64-6.1,7.19-12.26,10.95-18.28,2.92-4.69,7.8-4.61,10.8,.02,.47,.73,.88,1.51,1.32,2.26,3.77,6.31,7.52,12.64,11.33,18.93,.72,1.19,1.22,2.95,3.41,2.01,.62-8.21,.09-16.43-.68-24.61-.82-8.82-2.39-17.53-5.75-25.81-1.69-4.16-3.62-8.18-6.64-11.33-5.7-.97-11.16-.97-16.97,.03Zm-33.81,68.41c5.27-1.67,9.96-3.17,14.8-4.71-.22-21.24,.47-42.17,10.12-61.62-1.13-.29-1.81,.03-2.5,.31-8.83,3.61-15.29,9.71-19.12,18.46-6.67,15.25-5.95,31.02-3.3,47.56Zm59.67-66.54c9.89,19.78,10.44,40.77,10.31,61.9,4.97,1.55,9.67,3.01,14.23,4.43,.38-.53,.62-.71,.66-.92,2.12-12,2.64-24.03,.04-36.02-2.47-11.39-7.73-21.01-18.36-26.86-2.02-1.11-4.07-2.3-6.87-2.54Zm-26.42,201h-38.58v23.56c1.06,.17,1.91,.5,2.83-.53,0-3.01-.01-6.23,0-9.46,.03-6.56,3.43-10.66,8.85-10.72,5.43-.06,8.99,4.09,9.04,10.54,.01,1.74-.08,3.49,.03,5.23,.11,1.68-.52,3.46,.43,4.96h17.39v-23.59Zm18.26-.07v23.65h17.85c0-3.78-.05-7.37,.01-10.95,.09-5.82,3.85-9.84,9.04-9.78,5.06,.07,8.71,4,8.83,9.62,.07,3.36,.03,6.73,.07,10.09,0,.34,.22,.68,.34,1.01,.89,.18,1.73,.48,2.39-.22v-23.43h-38.53Zm-3.23-254.55c-4.15-.12-7.93-.3-11.68,.1v38.66c4.02,.11,7.8,.3,11.68-.12V29.01ZM65.4,307.27v-23.2c-5.02,.67-9.83,.82-14.56,1.8v21.39h14.56Zm120.09-.15h14.61v-21.45c-5.01-.53-9.75-1.02-14.61-1.53v22.98Zm-93.16-35.79c.12-.69,.24-1.05,.24-1.4,.01-11.09,.02-22.17,.02-33.26,0-.62,.04-1.27-.13-1.86-.42-1.49-1.47-2.3-3.03-2.24-1.39,.05-2.38,.81-2.72,2.15-.21,.83-.17,1.73-.17,2.6,0,10.46-.01,20.93,0,31.39,0,.84-.26,1.75,.56,2.64,1.57,.24,3.27,.18,5.22-.02Zm72.12-.07c0-11.92,0-23.5,0-35.07,0-.25,0-.5-.03-.75-.17-1.74-1.14-2.8-2.86-2.85-1.92-.06-2.98,1.05-3.13,2.96-.05,.62-.03,1.24-.03,1.87,0,10.34-.01,20.68,.02,31.02,0,.95-.32,2,.58,2.93,1.63,.16,3.33,.22,5.46-.1Zm-140.54,17.51v18.55c3.03,.05,5.82,.36,8.56-.21v-19.07c-2.99-.32-5.63,.52-8.56,.73Zm194.56,18.46h8.67v-18.48c-2.93-.15-5.64-1.01-8.67-.74v19.22ZM44.54,241.43c-.28-.04-.56-.07-.84-.11-6.26,10.46-4.84,22.08-5.05,33.61,2.24,.21,3.98-.33,5.89-.6v-32.9Zm167.76,33.76c.03-7.05,.33-13.59-.56-20.14-.52-3.83-1.25-7.59-3-11.08-.5-1-.78-2.28-2.24-2.59v32.95c1.88,.28,3.58,.53,5.8,.85Zm-84.01,32.09v-23.77c-2.04-.09-3.84-.37-5.57,.2v23.58h5.57Zm-83.83-.02v-20.69c-2.1-.14-3.85,.31-5.6,.72v19.93c1.91,.3,3.61,.23,5.6,.04Zm167.72-.07v-19.96c-1.97-.22-3.71-.87-5.63-.58v20.52c1.93,.36,3.63,.32,5.63,.02Zm-89.88-56.88v-16.86c-5.98,1.96-6.58,7.63-5.33,16.88,1.69,.32,3.38,.28,5.33-.02Zm6.41-17.14v17.41c2.03-.28,3.86,.35,5.82-.52-.5-6.05,2.05-12.94-5.82-16.88Zm-12.1,38.19c2.17,.08,3.97,.38,5.68-.2v-14.6c-2.04-.07-3.84-.38-5.68,.25v14.55Zm12.09-14.78v14.78c2.03,.11,3.82,.35,5.58-.17v-14.61h-5.58Zm-36.12,50.67c0-4.14,.05-7.98-.02-11.81-.04-1.91-1.19-3.02-3.1-2.96-1.72,.05-2.83,1.1-2.85,2.84-.05,3.94-.27,7.89,.16,11.91,1.9,.3,3.6,.23,5.81,.02Zm71.86-.02c0-4.05,.04-7.88-.02-11.7-.03-1.91-1.11-3.07-3.03-3.05-1.91,.02-2.95,1.21-2.96,3.12-.04,3.82-.01,7.64-.01,11.64h6.02ZM119.76,22.78h12.13c-2.56-2.3-4.02-4.72-6-5.71-2.17,2.02-4.05,3.77-6.13,5.71Z"/>
  <path
    d="M44.7,42.22c5.95-2.43,10.14-6.25,12.34-12.53,2.74,5.8,6.34,10.48,12.98,12.33-6.11,2.61-10.5,6.51-12.76,12.85-2.43-6.07-6.4-10.23-12.55-12.64Z"/>
  <path
    d="M196.83,105.36c4.94-2.01,8.2-5.35,10.17-10.39,1.97,5.06,5.21,8.44,10.35,10.31-4.86,2.16-8.41,5.21-10.24,10.38-2.25-4.66-5.14-8.37-10.27-10.3Z"/>
</svg>
