<svg xmlns="http://www.w3.org/2000/svg" viewBox="0 0 375.07 377.29">
  <path
    d="M213.89,349.15c-23.02,4.5-45.95,4.9-69.03,1.21-.43,2.4-.61,4.65-1.26,6.75-3.27,10.71-10.23,18.16-21.44,19.31-10.47,1.08-21.21,1.03-31.69,.03-12.61-1.2-22.04-12.56-22.27-25.22-.19-10.48,.04-20.96-.17-31.44-.04-1.7-.99-3.89-2.27-4.97-14.95-12.58-26.55-27.66-34.35-45.59-.87-1.99-1.87-2.9-4.14-2.77-3.61,.21-7.23,.05-10.85,.07-9.86,.05-15.96-5.6-16.23-15.55-.27-10.1-.15-20.21-.17-30.31-.01-5.24-.05-10.48,.08-15.72,.21-8.48,6.66-14.77,15.12-14.85,4.12-.04,8.24-.12,12.35,.07,2.11,.09,3.07-.73,3.87-2.58,7.84-18.06,19.51-33.23,34.58-45.88,1.19-1,2.03-3.06,2.08-4.66,.22-7.48,.16-14.97,.07-22.45-.05-3.95,1.59-6.67,5.19-8.26,15.01-6.66,29.16-5.2,42.19,4.82,2.12,1.63,3.67,1.72,5.98,.84,5.22-2,10.56-3.71,16.29-5.69-13.79-20.73-16.9-42.87-7.12-66.15,5.84-13.91,15.67-24.5,28.87-31.82,26.72-14.82,59.9-9.43,81.01,12.6,19.08,19.91,28.27,59.55,.57,91.46,4.72,2.01,9.46,3.83,14.03,6,36.03,17.07,60.49,44.03,70.73,83.05,1.53,5.83,7.75,10.28,12.29,5.94-1.39-3.93-3.19-7.65-3.99-11.57-1.41-6.98,2.24-13.32,8.44-15.78,5.99-2.38,12.51-.58,15.89,4.62,2.68,4.13,3.49,8.75,2.71,13.62-.27,1.67-.69,3.32-1.15,5.55,1.24-.94,2.02-1.53,2.79-2.11,3.43-2.59,7.4-2.39,10.12,.5,2.83,3.01,2.79,7.22-.37,10.39-5.5,5.53-12.02,7.13-19.57,4.98-1.28-.36-3.26-.2-4.23,.58-5.55,4.47-11.68,6.57-19.7,5.19,0,4.59,.32,8.92-.05,13.18-2.49,28.38-15.11,51.82-35.41,71.37-2.24,2.16-3.27,4.23-3.21,7.39,.2,11.35,.12,22.7,.07,34.06-.07,16.53-11.49,27.87-28.1,27.93-5.99,.02-11.98,0-17.97,0-18.66,0-28.67-9.04-30.59-28.13Zm61.74-25.78c-2.22,1.59-4.18,3.05-6.19,4.43-3.03,2.07-6.11,2.06-8.99-.24-3.96-3.16-3.62-8.36,.68-11.83,6.98-5.64,14.27-10.94,20.87-16.99,33.57-30.78,41.98-73.31,22.39-113.68-15.6-32.15-42.43-50.69-75.69-61.07-1.1-.34-2.68,.08-3.77,.65-24.95,13.11-49.03,11.72-72.37-4.05-1.08-.73-2.83-1.24-4-.91-9.2,2.62-18.37,5.34-27.46,8.29-6,1.95-7.48,1.71-11.85-2.89-6.19-6.51-13.69-9.2-22.68-7.76-2.57,.41-3.57,1.3-3.48,4.05,.21,6.98,.01,13.97,.09,20.96,.04,3.27-1.2,5.72-3.81,7.67-17,12.75-29.28,29.06-36.68,49-1.5,4.03-4.28,5.92-8.54,5.89-5.11-.04-10.24,.21-15.34-.08-3.4-.2-4.22,1.03-4.16,4.23,.24,13.1,.26,26.19,.37,39.29,0,1.07,.17,2.13,.27,3.31,6.22,0,12.08-.01,17.94,0,5.63,.01,7.54,1.32,9.54,6.52,7.38,19.22,19.2,35.13,35.62,47.55,3.31,2.5,4.73,5.45,4.68,9.55-.13,11.48-.11,22.95-.01,34.43,.06,6.84,4.38,11.84,11.17,12.17,8.21,.4,16.47,.39,24.68-.04,6.44-.34,10.48-5.2,10.98-11.64,.21-2.72-.46-4.16-3.31-5.18-6.9-2.49-13.68-5.37-20.38-8.36-4.04-1.8-5.45-5.95-3.78-9.69,1.68-3.78,5.54-5.26,9.71-3.69,1.51,.57,3,1.23,4.46,1.93,17.85,8.6,36.8,12.17,56.49,12.42,15.04,.2,29.86-1.4,44.47-4.99,7.89-1.93,11.5,1,11.53,9.26,0,2.87-.09,5.74,.05,8.61,.3,6.02,5,10.98,11.02,11.15,8.23,.23,16.47,.2,24.69,.01,5.37-.13,10.35-3.98,10.66-9.26,.55-9.5,.16-19.06,.16-29.02ZM191.66,118.68c29.06-.05,52.43-23.42,52.28-52.28-.14-27.93-23.25-51.5-50.6-51.6-29.79-.11-53.42,22.85-53.38,51.88,.04,28.71,23.25,52.05,51.7,52Z"/>
  <path
    d="M194.12,135.35c14-.06,27.85,1.1,41.31,5.32,.83,.26,1.67,.5,2.48,.82,4.1,1.64,5.99,5.36,4.72,9.27-1.18,3.65-5.05,6-8.96,4.77-27.39-8.56-54.9-5.73-82.45-1.14-4.93,.82-8.6-1.25-9.54-5.43-.95-4.24,1.78-7.94,6.82-8.97,15.05-3.07,30.25-4.68,45.62-4.65Z"/>
  <path
    d="M284.63,221.12c-.85,20.31-7.37,38.45-20.8,53.91-1.87,2.15-3.97,4.15-6.15,5.98-3.41,2.86-7.63,2.59-10.37-.43-2.7-2.98-2.47-7.3,.56-10.41,2.09-2.14,4.43-4.07,6.26-6.4,11.97-15.25,17.93-32.29,14.77-51.84-.39-2.41-1.5-4.72-2.43-7.02-1.7-4.19-.55-8.12,3.04-9.99,3.78-1.97,7.94-.67,10.11,3.42,3.77,7.1,5.06,14.78,5.01,22.77Z"/>
  <path
    d="M99.66,189.19c-.05,9.33-4.59,16.22-11.22,18.66-7.37,2.71-14.56-.82-16.91-8.31-2.08-6.65,.58-15.36,6.16-19.54,4.45-3.33,9.37-4.77,14.68-2.12,5.28,2.63,7.12,7.34,7.29,11.31Z"/>
  <path
    d="M225.55,297.94c-3.99,.07-7.43-3.21-7.52-7.18-.09-3.94,3.26-7.4,7.25-7.48,3.97-.08,7.42,3.24,7.5,7.21,.08,3.97-3.23,7.38-7.23,7.45Z"/>
  <path
    d="M183.93,27.49c.83-6.06,3.06-8.66,7.27-8.83,4.41-.18,6.53,2.08,8.26,8.85,5.89,.57,11.37,2.35,16.04,6.22,4.73,3.92,7.53,8.9,8.18,15.02,.5,4.68-2.32,8.44-6.55,8.88-4.15,.43-7.38-2.32-8.15-6.96-.86-5.12-4.05-7.75-9.97-7.89,0,5.46-.08,10.92,.1,16.37,.02,.68,1.29,1.65,2.16,1.91,2.26,.67,4.64,.93,6.92,1.52,15.15,3.9,20.74,21.51,10.66,33.51-4.38,5.22-8.93,7.47-19.26,9.53-1.49,6.91-3.68,9.53-7.93,9.49-4.29-.04-6.66-2.91-7.64-8.98-3.96-.94-7.97-1.42-11.61-2.86-8.48-3.36-13.92-9.53-15.03-18.84-.76-6.39,4.56-11.07,9.87-8.5,2.02,.98,3.91,3.57,4.54,5.79,1.8,6.42,5.21,9.18,12.49,8.66,0-5.42,.08-10.87-.1-16.32-.02-.67-1.3-1.65-2.15-1.89-2.63-.73-5.36-1.12-8.03-1.72-8.28-1.84-13.76-6.82-15.98-15-2.24-8.28,.49-15.26,6.57-20.96,5.34-5,11.94-6.96,19.34-7.02Zm.2,13.59c-3.91,1.83-7.38,2.74-9.9,4.82-3.99,3.29-2.44,8.72,2.55,10.1,2.34,.65,4.77,.96,7.34,1.46v-16.37Zm15.14,49.4c6.69-1.03,10.1-4.16,9.79-8.65-.25-3.68-3.42-5.53-9.79-5.65v14.31Z"/>
</svg>
