<svg xmlns="http://www.w3.org/2000/svg" viewBox="0 0 301.3 327.08">
  <path
    d="M261,71.95c-7.77,8.02-8.32,17.59-8.65,27.2,15.75,6.93,18.87,18.59,8.17,30.88,5.42,8.57,4.79,16.7-2.7,24.2,5.54,8.64,4.75,16.73-2.71,24.27,3.65,5.32,4.81,11.15,2.3,17.23-2.53,6.12-7.31,9.61-14.12,10.65-.12,1.07-.33,2.12-.35,3.19-.2,10.85-4.3,20.47-9.54,29.66-4.39,7.7-14.31,9.62-21.66,4.48-.99-.69-1.89-1.49-2.86-2.26-7.25,6.82-14.8,6.62-22.48,.91-7.32,12.3-20.39,11.66-28.05,4.12-10.2,8.18-15.85,8.5-25.76,1.43-6.54,2.75-11.9,6.59-15.67,13.02-6.41,10.95-13.53,21.49-20.36,32.19-3.11,4.88-4.52,5.3-9.58,2.95C31.58,270.36-3.5,212.93,.28,152.1,3.8,95.47,31.35,53.54,80.77,25.87c1.49-.83,2.77-1.29,2.76-3.64-.05-11.32,7.33-20.03,18.18-21.93,9.88-1.73,20.01,4.3,23.52,14.01,3.55,9.81-.45,20.75-9.5,25.97-9.28,5.35-20.22,3.21-27.68-5.42-.24-.28-.48-.55-.69-.8C17.26,67.22-12.09,158.72,27.61,227.17c.21-.08,.49-.09,.62-.24,13.12-14.98,26.43-29.81,39.21-45.07,3.17-3.78,5.22-8.8,6.76-13.59,2.87-8.93,4.95-18.12,7.41-27.18,2.64-9.71,8.21-17.34,16.5-23.01,2.42-1.65,4.72-3.57,7.33-4.85,7.26-3.55,11.35-9.31,13.73-16.94,2.22-7.08,5.38-13.87,8.12-20.78,3.2-8.07,8.38-14.53,15.59-19.39,22.79-15.35,17.51-9.84,31.56-34.72,.18-.32,.34-.65,.52-.97,5.08-9.13,5.19-9.49,15.34-6.37,58.84,18.12,96.21,57.03,108.1,117.48,15.19,77.19-30.77,150.27-106.55,172.82-1.8,.53-2.82,1.15-3.07,3.33-1.27,10.99-9.51,18.83-20.02,19.36-10.47,.53-19.62-6.3-22.17-16.55-2.45-9.87,2.68-20.32,12.07-24.57,9.67-4.38,20.5-1.25,26.83,7.76,.35,.5,.68,1.01,1.37,2.04,46.65-13.85,79.95-42.68,96.23-88.87,17.07-48.41,8.37-93.38-22.09-134.9Zm-37,53.95c-4.4-6.59-5.09-13.3-.79-20.01,4.41-6.87,11.19-8.48,18.58-7.57,1.08-6.36,1.4-12.58,3.31-18.27,1.89-5.65,5.39-10.77,8.31-16.37-13.89-16.6-38.43-32.05-62.86-39.32-5.51-1.64-5.73-1.75-8.22,3.34-6.78,13.82-14.89,26.42-29.28,33.54-14.49,7.17-18.03,21.46-22.87,34.28,4.15-1.3,8.4-3.57,12.77-3.82,10.23-.58,20.52-.41,30.77-.06,3.14,.11,6.55,1.21,9.26,2.81,6.83,4.04,9.59,12.48,7.32,20.55-2.15,7.64-8.6,12.64-16.77,12.8-6.07,.11-12.14,.02-18.32,.02-.08,1.17-.16,1.88-.17,2.59-.26,14.77-.16,29.57-.87,44.32-.72,14.96-1.08,30.05-6.21,44.44-2.57,7.2-4.98,14.45-7.53,21.86,3.79,3.34,8.21,2.45,10.8-2.79,4-8.09,7.92-16.21,11.69-24.41,.93-2.03,1.57-4.35,1.69-6.57,.43-7.68,.54-15.38,.84-23.07,.16-4.29,2.19-6.64,5.37-6.43,3.04,.2,4.75,2.59,4.63,6.68-.19,6.47-.69,12.94-.62,19.41,.07,6.26-1.14,11.97-4.23,17.5-2.36,4.21-4.26,8.79-5.57,13.43-.47,1.67,.82,4.95,2.29,5.79,1.87,1.08,4.84,.9,7.12,.36,1.3-.31,2.43-2.29,3.19-3.76,3.54-6.82,6.99-13.69,10.3-20.62,.86-1.8,1.4-3.88,1.57-5.88,.78-9.13,1.34-18.27,2.04-27.4,.28-3.56,2.25-5.6,5.08-5.51,3,.09,4.88,2.41,4.68,6.17-.36,6.58-1.16,13.16-1.25,19.74-.11,8.09-1.38,15.74-5.78,22.69-.7,1.1-.91,2.51-1.34,3.78-.9,2.68-.45,4.87,2.38,6.03,2.84,1.16,4.96,.13,6.55-2.33,8.21-12.64,10.75-26.95,10.75-41.53,0-7.08,.92-12.96,6.06-17.82-5.7-8.91-4.65-16.97,2.53-24.2-5.27-10.11-4.62-16.01,2.79-24.38ZM89.27,286.16c6.36-10,12.82-19.63,18.71-29.59,4.18-7.08,9.42-12.66,16.98-16,3.72-1.64,6.63-4.39,7.89-8.25,3.15-9.59,7.35-19.09,8.73-28.97,3.63-26.02,4.77-52.26,3.15-78.55-.3-4.96,1.28-6.74,6.2-6.77,7.08-.04,14.17,.03,21.25-.03,5.68-.04,8.93-3.17,8.89-8.41-.04-5.22-3.28-8.26-9.01-8.28-9.16-.04-18.32-.12-27.48,.07-2.07,.04-4.41,.68-6.14,1.8-11.66,7.58-23.22,15.34-34.76,23.1-6.32,4.25-10.54,10.07-12.53,17.45-2.44,9.06-4.94,18.11-7.28,27.21-1.86,7.24-5.24,13.59-10.2,19.19-11.08,12.54-22.07,25.15-33.09,37.74-2.55,2.91-5.07,5.84-7.67,8.84,14.51,21.64,33.07,38.04,56.33,49.44Zm15.75-252.99c6.4,0,11.66-5.24,11.64-11.59-.02-6.32-5.35-11.58-11.7-11.56-6.42,.03-11.59,5.22-11.57,11.62,.02,6.45,5.15,11.53,11.63,11.52Zm62.68,283.95c6.37-.09,11.58-5.41,11.5-11.73-.08-6.32-5.4-11.46-11.8-11.41-6.35,.05-11.62,5.41-11.52,11.71,.1,6.32,5.48,11.52,11.82,11.43Zm54.95-113.21c-2.2,8.78-4.48,17.66-6.64,26.58-.63,2.62,0,4.86,2.93,5.83,2.79,.92,4.83-.14,6.13-2.53,1.51-2.77,2.73-5.71,4.18-8.52,3.16-6.13,3.64-12.72,3.77-19.4-3.82-.72-7.39-1.4-10.37-1.96Zm23.74-55.88c3.85,.18,7.25-2.51,7.66-6.36,.43-4.02-2.13-7.44-6.29-8.05-4.1-.6-8.23-1.07-12.36-1.36-3.89-.27-7.26,2.64-7.72,6.33-.47,3.86,2.26,7.45,6.33,8.03,3.98,.57,7.99,.92,12.37,1.4Zm2.91-24.24c3.69,.19,7.16-2.67,7.51-6.74,.32-3.67-2.43-7.1-6.37-7.66-3.98-.57-7.98-1.03-11.99-1.36-4.18-.35-7.61,2.46-8,6.32-.41,4.1,2.07,7.44,6.25,8.05,3.98,.58,7.99,.9,12.61,1.4Zm-8.64,72.7c4.46,.08,7.75-2.66,8.13-6.56,.36-3.67-2.24-7.15-6.23-7.78-4.21-.66-8.47-1.1-12.72-1.36-3.8-.23-7,2.6-7.41,6.16-.46,3.94,1.9,7.44,5.77,8.06,4.21,.67,8.47,1.02,12.46,1.48Zm3.01-24.22c4.29-.05,7.39-2.79,7.75-6.61,.35-3.65-2-7.03-5.85-7.68-4.32-.73-8.7-1.2-13.07-1.47-3.94-.24-7.14,2.77-7.48,6.56-.33,3.64,2.15,7.11,5.85,7.7,4.33,.68,8.71,1.03,12.8,1.5Z"/>
</svg>
