<svg
  viewBox="0 0 410.52673 445.79776"
>
  <g
    transform="matrix(0.1,0,0,-0.1,-50.548263,478.9932)"
    stroke="none"
    id="g1">
    <path
      d="m 1853,4776 c -121,-38 -200,-138 -207,-262 l -3,-54 -89,-51 C 1180,4194 894,3890 710,3509 261,2577 572,1464 1440,894 c 53,-35 143,-86 201,-114 92,-45 109,-50 131,-40 16,8 83,103 201,289 98,153 187,287 200,298 12,11 48,35 80,52 l 57,33 46,-31 c 25,-16 66,-33 92,-37 58,-9 139,16 183,56 l 32,30 31,-23 c 49,-36 83,-47 147,-47 39,0 73,7 98,19 38,20 101,83 101,101 0,6 25,-4 55,-21 49,-28 63,-31 115,-27 46,3 70,11 103,34 l 42,30 43,-30 c 39,-28 52,-31 116,-31 64,0 78,3 115,29 36,25 52,49 101,150 63,131 75,171 85,289 7,70 9,77 29,77 11,0 45,14 73,30 75,43 113,111 113,200 0,50 -6,75 -23,106 l -24,40 32,37 c 59,68 70,172 28,254 l -20,39 29,34 c 37,44 62,129 53,178 -3,21 -15,56 -27,80 l -20,42 30,34 c 63,72 70,186 16,273 -24,38 -43,54 -92,78 l -63,30 5,85 c 3,47 12,108 20,135 17,55 70,145 86,145 15,0 96,-115 160,-228 280,-488 335,-1040 158,-1577 -69,-211 -220,-471 -378,-653 -205,-236 -520,-443 -833,-547 l -108,-36 -46,51 c -67,75 -130,104 -223,104 -92,0 -157,-29 -218,-99 -54,-62 -76,-128 -70,-214 17,-233 283,-350 470,-206 54,40 108,138 108,194 v 36 l 123,40 c 198,64 437,190 612,323 170,130 391,379 507,572 139,231 235,501 273,771 21,151 21,418 0,568 -112,785 -650,1425 -1404,1672 -141,46 -213,58 -236,39 -8,-6 -54,-82 -101,-169 -128,-230 -133,-235 -303,-350 -155,-105 -218,-164 -265,-243 -15,-26 -69,-152 -120,-280 l -93,-233 -129,-87 c -249,-168 -283,-219 -374,-564 -34,-126 -73,-255 -88,-287 -20,-41 -105,-146 -312,-383 l -284,-325 -18,23 c -27,37 -116,250 -148,361 -46,153 -70,305 -77,472 -27,721 353,1397 984,1751 l 62,35 39,-39 c 86,-86 220,-112 330,-63 102,46 172,154 172,266 0,83 -26,143 -90,207 -82,81 -181,107 -287,74 z m 167,-148 c 53,-37 74,-72 74,-126 0,-91 -67,-162 -152,-162 -121,0 -197,122 -142,229 40,79 148,108 220,59 z m 1230,-220 c 246,-96 478,-247 654,-426 l 69,-70 -35,-44 c -72,-88 -109,-192 -123,-350 l -7,-68 h -58 c -95,0 -171,-44 -213,-124 -30,-57 -30,-155 1,-214 l 23,-42 -22,-23 c -62,-66 -78,-177 -38,-261 l 22,-44 -30,-38 c -59,-75 -70,-168 -30,-246 l 23,-46 -28,-33 c -37,-44 -62,-129 -54,-182 3,-23 -3,-114 -13,-202 l -20,-160 -63,-129 c -53,-109 -68,-131 -92,-139 -22,-7 -33,-5 -55,11 -37,28 -33,69 18,177 l 43,90 16,239 16,238 -27,24 c -35,30 -49,30 -82,1 -25,-21 -26,-27 -41,-247 l -16,-224 -89,-177 c -49,-98 -98,-184 -111,-193 -43,-31 -109,-13 -128,35 -17,40 -6,77 61,211 32,64 61,134 63,155 3,21 8,122 11,226 l 6,187 -26,26 c -20,20 -32,24 -53,19 -54,-13 -56,-20 -64,-239 l -8,-204 -85,-176 c -47,-97 -85,-180 -85,-186 0,-5 -14,-25 -31,-45 -25,-28 -38,-35 -68,-35 -46,1 -79,23 -63,43 21,25 68,151 110,294 31,102 46,180 57,280 22,210 35,471 35,723 v 229 l 163,3 c 162,3 164,3 213,33 68,43 107,108 112,190 7,111 -41,199 -131,241 -51,23 -58,24 -312,24 -253,0 -261,-1 -311,-24 -28,-13 -55,-29 -58,-35 -42,-67 45,185 101,292 29,57 90,111 235,209 171,115 205,152 298,320 34,62 71,127 82,145 l 19,31 72,-20 c 40,-11 106,-34 147,-50 z M 2927,3390 c 64,-39 64,-151 0,-190 -29,-18 -51,-20 -218,-20 -137,0 -190,-3 -203,-13 -17,-12 -18,-40 -21,-358 -3,-300 -22,-668 -41,-779 -12,-69 -94,-339 -120,-393 -32,-70 -61,-99 -136,-139 -104,-55 -136,-93 -299,-350 -85,-133 -157,-246 -161,-251 -8,-13 -167,75 -288,161 -115,81 -335,297 -419,410 -33,46 -61,88 -61,92 0,5 130,158 290,340 159,182 303,350 319,373 44,64 57,102 127,360 35,131 73,256 85,279 41,80 110,138 382,319 l 267,179 h 233 c 212,0 235,-2 264,-20 z m 953,-86 c 56,-6 70,-12 99,-41 29,-29 33,-38 28,-70 -7,-43 -39,-80 -76,-87 -14,-3 -73,0 -131,8 -92,12 -107,17 -127,41 -25,28 -31,82 -13,115 18,33 61,51 110,46 25,-3 74,-8 110,-12 z m -45,-330 c 100,-11 135,-39 135,-106 0,-36 -22,-69 -58,-87 -26,-14 -194,1 -245,21 -54,21 -73,95 -36,142 28,36 55,46 104,41 22,-2 67,-7 100,-11 z m -12,-335 c 67,-9 85,-21 104,-67 12,-30 12,-38 -4,-70 -28,-58 -54,-65 -179,-51 -86,10 -111,16 -134,35 -34,29 -43,68 -24,112 24,59 68,67 237,41 z m -53,-328 c 65,-9 79,-14 103,-41 43,-48 32,-111 -24,-144 -27,-16 -40,-17 -136,-6 -59,6 -115,15 -124,21 -45,24 -65,103 -35,141 22,29 68,48 106,43 19,-3 69,-9 110,-14 z m -133,-319 48,-7 -3,-55 c -6,-96 -21,-150 -66,-245 -57,-122 -100,-150 -151,-99 -22,22 -19,53 14,147 15,45 31,114 35,152 13,133 14,135 46,123 16,-5 50,-13 77,-16 z M 2870,758 c 47,-32 71,-68 77,-116 7,-53 -24,-118 -72,-151 -30,-20 -44,-23 -95,-19 -52,4 -65,9 -95,38 -80,78 -67,192 29,251 44,27 114,25 156,-3 z"
      id="path1"/>
  </g>
</svg>
