<svg appTooltip="Computer icons created by Ranah Pixel Studio - Flaticon" viewBox="0 0 359.4 359.4"
     xmlns="http://www.w3.org/2000/svg">
  <path
    d="M179.69,.01c56.63,0,113.25,0,169.88,0,1.12,0,2.25-.04,3.37,.01,4.15,.18,6.3,2.4,6.46,6.62,.02,.62,0,1.25,0,1.87,0,38.29,0,76.58,0,114.87,0,.5,0,1,0,1.5-.12,4.66-2.26,6.91-6.89,6.94-8.61,.06-17.21,.08-25.82-.02-2.22-.02-3.54,.26-3.26,2.97,.3,2.82-.81,6.7,.65,8.23,1.43,1.49,5.34,.64,8.17,.71,2.99,.07,5.99-.07,8.98,.05,3.74,.15,6.24,2.72,6.17,6.13-.07,3.27-2.48,5.64-6.05,5.89-1.12,.08-2.24,.03-3.37,.03-105.52,0-211.04,0-316.55,0-1.25,0-2.5,.07-3.74-.05-3.32-.32-5.61-2.73-5.68-5.85-.07-3.27,2.3-5.97,5.79-6.1,4.86-.18,9.73-.2,14.59-.01,2.63,.1,3.98-.38,3.6-3.4-.34-2.68,.74-6.41-.67-7.85-1.39-1.42-5.12-.65-7.82-.67-6.73-.06-13.47,.01-20.21-.03-5.12-.03-7.27-2.16-7.27-7.31C0,85.49,0,46.45,.01,7.41,.02,2,2.17,.02,7.94,.02c57.25,0,114.5,0,171.75,0Zm-17.98,119.77c48.52,0,97.03,0,145.55,0,4.67,0,4.13,.53,4.13-4.23,.02-33.18,.01-66.35,0-99.53,0-4.34,.37-3.92-3.7-3.92-97.28,0-194.56,0-291.84,0-3.76,0-3.77,.02-3.77,3.86,0,33.3,0,66.6,0,99.9,0,4.42-.44,3.92,4.07,3.92,48.52,.01,97.03,0,145.55,0Zm18.4,12.07c-41.03,0-82.06-.01-123.08,.02-2.94,0-7.07-.76-8.48,.8-1.51,1.67-.47,5.66-.54,8.64,0,.12,.01,.25,0,.37-.21,1.71,.7,2.17,2.22,2.06,.99-.07,1.99-.01,2.99-.01,83.43,0,166.85,0,250.28-.01,2.47,0,6.04,.78,7.14-.49,1.34-1.55,.71-4.89,.74-7.46,.04-4.41,.45-3.91-4.06-3.91-42.4-.01-84.8,0-127.2,0ZM335.51,29.95c3.23,0,6.47-.06,9.7,.03,1.63,.05,2.17-.56,2.14-2.16-.08-4.6-.06-9.2,0-13.81,.02-1.45-.56-1.94-1.98-1.94-6.59,.04-13.19,.06-19.78-.01-1.63-.02-2.17,.56-2.14,2.16,.08,4.48,.09,8.96,0,13.43-.04,1.81,.61,2.38,2.37,2.32,3.23-.11,6.47-.03,9.7-.03Zm-.28,29.94c3.23,0,6.47-.07,9.7,.03,1.68,.05,2.48-.37,2.43-2.25-.11-4.48-.11-8.96,0-13.43,.05-1.92-.8-2.25-2.46-2.23-6.34,.07-12.69,.07-19.03,0-1.68-.02-2.48,.37-2.43,2.26,.11,4.48,.11,8.96,0,13.43-.05,1.92,.8,2.28,2.46,2.23,3.11-.09,6.22-.03,9.33-.03Zm.33,29.94c3.11,0,6.22-.06,9.33,.02,1.63,.04,2.53-.26,2.48-2.21-.12-4.48-.07-8.96-.02-13.43,.02-1.47-.27-2.3-2.02-2.28-6.59,.07-13.19,.07-19.78,0-1.68-.02-2.12,.66-2.09,2.21,.07,4.48,.1,8.96-.01,13.43-.04,1.86,.7,2.33,2.41,2.28,3.23-.1,6.47-.03,9.7-.03Zm.22,12.08c-3.23,0-6.47,.07-9.7-.03-1.8-.05-2.71,.33-2.64,2.43,.15,4.35,.15,8.71,0,13.06-.07,2.1,.84,2.45,2.64,2.43,6.22-.07,12.44-.07,18.66,0,1.8,.02,2.71-.33,2.64-2.43-.15-4.35-.15-8.71,0-13.06,.07-2.1-.84-2.49-2.64-2.43-2.98,.1-5.97,.03-8.95,.03Z"/>
  <path
    d="M167.77,257.78c0,27.06,0,54.13,0,81.19,0,6.63-1.81,8.45-8.4,8.46-20.33,0-40.66,.04-60.99-.05-2.37,0-3.69,.56-4.9,2.82-3.95,7.33-12.16,10.68-20.05,8.6-8.1-2.13-13.59-9.26-13.53-17.58,.06-8.12,5.55-15.12,13.5-17.22,7.89-2.09,16.12,1.26,20.07,8.57,1.21,2.24,2.5,2.86,4.89,2.84,17.83-.1,35.67-.05,53.5-.05,3.82,0,3.83-.01,3.83-3.8,0-51.51,0-103.02,0-154.52,0-1.37-.09-2.76,.09-4.11,.41-3.04,2.92-5.19,5.9-5.21,2.98-.02,5.5,2.09,5.96,5.14,.19,1.22,.11,2.49,.11,3.73,0,27.06,0,54.13,0,81.19Zm-83.97,83.59c-.01-3.23-2.8-5.95-6.02-5.88-3.08,.07-5.69,2.65-5.79,5.74-.1,3.21,2.61,6.03,5.83,6.07,3.21,.04,5.99-2.71,5.98-5.93Z"/>
  <path
    d="M191.63,257.56c0-27.19,0-54.38,0-81.56,0-5.44,1.99-8.2,5.91-8.29,4.05-.08,6.16,2.77,6.16,8.41,0,51.63,0,103.27,.01,154.9,0,4.97-.61,4.32,4.41,4.33,17.59,.03,35.17-.02,52.76,.05,2.28,0,3.74-.37,4.98-2.69,3.99-7.49,12.33-10.86,20.36-8.65,7.91,2.17,13.31,9.23,13.29,17.39-.01,8.15-5.44,15.17-13.37,17.32-8.03,2.18-16.27-1.22-20.32-8.74-1.15-2.13-2.41-2.64-4.64-2.63-20.45,.08-40.91,.05-61.36,.04-6.31,0-8.17-1.89-8.17-8.3,0-27.19,0-54.38,0-81.56Zm95.77,83.87c.03-3.22-2.73-5.98-5.95-5.95-3.08,.03-5.72,2.58-5.86,5.67-.14,3.21,2.54,6.06,5.76,6.14,3.21,.08,6.02-2.64,6.04-5.86Z"/>
  <path
    d="M131.84,230.99c0,18.08,0,36.17,0,54.25,0,6.4-1.87,8.29-8.18,8.29-18.46,0-36.91,.04-55.37-.04-2.22,0-3.5,.49-4.64,2.62-4.05,7.53-12.26,10.93-20.31,8.75-7.93-2.14-13.37-9.17-13.38-17.32-.02-8.3,5.51-15.38,13.65-17.48,7.88-2.04,16.02,1.38,20.01,8.73,1.11,2.04,2.28,2.74,4.58,2.73,15.84-.11,31.68-.04,47.51-.06,4.49,0,4.05,.52,4.06-3.94,.01-33.55,0-67.09,0-100.64,0-1.25-.08-2.51,.07-3.74,.38-3.24,2.96-5.49,6.09-5.43,2.96,.06,5.43,2.24,5.84,5.29,.15,1.1,.07,2.24,.07,3.36,0,18.21,0,36.42,0,54.62Zm-83.6,50.6c-3.2-.17-6.08,2.48-6.19,5.71-.12,3.21,2.58,6.04,5.8,6.1,3.06,.06,5.78-2.44,6-5.52,.23-3.19-2.38-6.12-5.61-6.29Z"/>
  <path
    d="M227.56,230.64c0-18.08,0-36.17,0-54.25,0-1.12-.07-2.26,.07-3.36,.4-3.06,2.85-5.24,5.82-5.32,3.11-.08,5.72,2.18,6.11,5.4,.15,1.23,.07,2.49,.07,3.74,0,33.55,0,67.09,0,100.64,0,4.52-.41,3.96,4.03,3.96,15.84,.02,31.68-.04,47.51,.06,2.28,.01,3.47-.64,4.59-2.7,4.06-7.47,12.33-10.86,20.36-8.66,7.92,2.17,13.32,9.22,13.31,17.37,0,8.15-5.43,15.18-13.36,17.33-8.03,2.18-16.29-1.22-20.33-8.72-1.14-2.12-2.39-2.66-4.63-2.65-18.46,.08-36.91,.05-55.37,.04-6.33,0-8.19-1.89-8.2-8.27,0-18.21,0-36.41,0-54.62Zm83.9,62.77c3.22-.01,5.95-2.81,5.88-6.02-.07-3.08-2.66-5.7-5.74-5.79-3.22-.1-6.02,2.6-6.07,5.83-.04,3.22,2.7,5.99,5.93,5.98Z"/>
  <path
    d="M95.91,203.82c0,8.98,0,17.96,0,26.93,0,7.18-1.67,8.88-8.71,8.88-16.21,0-32.42,.04-48.63-.04-2.33-.01-3.71,.46-4.94,2.76-3.93,7.35-12.13,10.73-20.01,8.67C5.49,248.9-.02,241.81,.02,233.5c.03-8.13,5.49-15.15,13.43-17.28,7.89-2.11,16.15,1.21,20.12,8.47,1.19,2.16,2.36,2.96,4.83,2.94,13.96-.13,27.93-.06,41.89-.07,3.54,0,3.55-.02,3.55-3.7,0-15.71,0-31.42,0-47.13,0-1-.05-2,.02-2.99,.25-3.56,2.62-5.97,5.9-6.03,3.4-.06,5.92,2.44,6.12,6.18,.09,1.74,.03,3.49,.03,5.24,0,8.23,0,16.46,0,24.69Zm-71.99,29.71c-.04-3.23-2.85-5.93-6.06-5.84-3.09,.09-5.68,2.7-5.74,5.78-.07,3.22,2.65,6.01,5.88,6.03,3.22,.02,5.97-2.76,5.93-5.97Z"/>
  <path
    d="M263.49,203.45c0-8.98,0-17.95,0-26.93,0-1-.05-2,.04-2.99,.31-3.49,2.83-5.87,6.1-5.82,3.13,.06,5.55,2.34,5.88,5.65,.11,1.11,.05,2.24,.05,3.36,0,15.71,0,31.42,0,47.13,0,3.69,.02,3.7,3.55,3.71,13.96,0,27.93-.04,41.89,.05,2.2,.01,3.51-.42,4.67-2.58,4.04-7.54,12.26-10.95,20.29-8.8,7.95,2.13,13.39,9.14,13.43,17.28,.04,8.31-5.46,15.39-13.59,17.52-8.01,2.1-16.14-1.37-20.2-9-1.11-2.09-2.39-2.41-4.39-2.41-16.33,.04-32.67,.03-49,.02-7.05,0-8.71-1.69-8.71-8.88,0-9.1,0-18.2,0-27.31Zm83.8,30.06c-.05-3.23-2.87-5.92-6.08-5.82-3.23,.11-5.88,2.97-5.73,6.18,.15,3.08,2.82,5.63,5.89,5.64,3.22,0,5.97-2.78,5.91-5.99Z"/>
  <path
    d="M54.32,35.94c7.23,0,14.45-.01,21.68,0,5.9,.01,7.92,1.98,7.93,7.77,.02,10.84,.02,21.68,0,32.51-.01,5.63-2.04,7.66-7.61,7.72-.75,0-1.5,.07-2.24,0-1.64-.17-2.31,.55-2.11,2.15,.97,7.81-2.1,10.35-10.74,9.89-5.84-.3-11.71-.04-17.56-.06-5.64-.02-7.67-2.03-7.72-7.6,0-.75-.07-1.5,0-2.24,.16-1.62-.52-2.32-2.14-2.12-7.97,.98-10.22-2.25-9.92-10.72,.33-9.46,.07-18.93,.08-28.4,0-7.3,1.61-8.88,9.06-8.88,7.1,0,14.2,0,21.3,0Zm-.31,12.07c-5.11,0-10.22,.09-15.33-.04-2.16-.06-2.75,.71-2.7,2.77,.12,5.11,.04,10.22,.04,15.33q0,5.52,5.56,5.81c3.69,.19,5.97,2.15,6.36,5.55,.24,2.05-.35,5.16,.74,5.93,1.52,1.07,4.27,.41,6.5,.48,.87,.03,1.75-.07,2.62,.02,1.68,.16,2.23-.64,2.09-2.19-.07-.74-.02-1.49,0-2.24,.06-5.42,2.08-7.48,7.4-7.55,.75-.01,1.5-.07,2.24,0,1.78,.2,2.38-.52,2.36-2.32-.08-6.35-.1-12.71,0-19.07,.03-1.98-.64-2.56-2.56-2.52-5.11,.11-10.22,.04-15.33,.04Z"/>
  <path
    d="M125.96,35.94c7.35,0,14.7-.02,22.05,0,5.66,.02,7.76,2.04,7.77,7.55,.03,10.96,.03,21.92,0,32.89-.01,5.51-2.11,7.51-7.77,7.56-4.72,.05-4.15-.54-4.2,4.16-.06,5.83-2.02,7.79-7.9,7.81-6.85,.02-13.7,.03-20.55,0-5.42-.02-7.49-2.08-7.57-7.38-.01-.75-.07-1.5,0-2.24,.19-1.75-.49-2.3-2.29-2.39-9.1-.45-9.7-1.16-9.7-10.45,0-9.97-.02-19.93,0-29.9,.01-5.57,2.07-7.58,7.72-7.6,7.47-.02,14.95,0,22.42,0Zm.22,12.07c-4.74,0-9.47-.02-14.21,0-4.51,.03-4.06-.5-4.08,3.91-.02,4.86,0,9.72,0,14.58q0,5.18,5.25,5.37c4.26,.15,6.49,2.26,6.72,6.36q.31,5.61,6.14,5.61c.12,0,.25,0,.37,0q5.21,0,5.38-5.23c.15-4.43,2.3-6.59,6.72-6.74,.87-.03,1.76-.1,2.61,.01,2.18,.28,2.72-.71,2.68-2.76-.11-6.1-.16-12.22,.02-18.32,.07-2.44-.84-2.91-3.02-2.84-4.86,.14-9.72,.04-14.58,.04Z"/>
  <path
    d="M197.87,35.94c7.35,0,14.7-.02,22.05,0,5.64,.02,7.72,2.04,7.73,7.59,.03,10.96,.03,21.92,0,32.89-.01,5.38-2.1,7.45-7.44,7.52-.87,.01-1.75,.06-2.62,0-1.47-.11-2.05,.56-1.91,1.97,.02,.25,0,.5,0,.75-.26,8.05-1.5,9.26-9.44,9.26-6.35,0-12.71,.02-19.06,0-5.39-.03-7.45-2.09-7.52-7.43-.01-.87-.06-1.75,0-2.62,.11-1.45-.54-2.06-1.96-1.93-.25,.02-.5,0-.75,0-8.07-.26-9.27-1.49-9.28-9.42,0-10.09,0-20.18,0-30.27,0-6.41,1.85-8.29,8.14-8.3,7.35-.01,14.7,0,22.05,0Zm-.31,12.07c-5.11,0-10.22,.08-15.33-.04-1.98-.05-2.56,.64-2.52,2.56,.1,5.23,.03,10.47,.03,15.7q0,5.42,5.36,5.63c4.22,.17,6.42,2.32,6.61,6.47,.06,1.24-.18,2.54,.1,3.72,.16,.68,1.05,1.65,1.67,1.69,2.73,.19,5.48,.03,8.22,.1,1.47,.04,1.82-.6,1.94-1.99,.82-9.37,.85-9.41,9.79-9.97,1.56-.1,2.2-.48,2.18-2.14-.07-6.48-.08-12.96,0-19.44,.02-1.78-.57-2.38-2.35-2.35-5.23,.09-10.47,.03-15.7,.03Z"/>
  <path
    d="M269.74,35.94c7.47,0,14.95-.03,22.42,0,5.15,.03,7.32,2.14,7.34,7.23,.04,11.09,.03,22.17,0,33.26-.01,5.37-2.11,7.43-7.45,7.5-.87,.01-1.75,.06-2.61,0-1.48-.11-2.03,.59-1.9,1.99,.02,.25,0,.5,0,.75-.25,8.03-1.5,9.25-9.45,9.25-6.35,0-12.71,.02-19.06,0-5.38-.03-7.44-2.1-7.51-7.44-.01-.87-.06-1.75,0-2.61,.11-1.47-.56-2.05-1.97-1.91-.25,.02-.5,0-.75,0-8.05-.26-9.26-1.49-9.26-9.44,0-10.34-.02-20.68,0-31.02,.01-5.41,2.08-7.51,7.4-7.54,7.6-.04,15.2,0,22.8,0Zm-.11,12.07c-5.23,0-10.47,.06-15.7-.03-1.77-.03-2.39,.54-2.36,2.34,.09,5.23,.03,10.47,.03,15.7q0,5.58,5.51,5.85c3.71,.18,5.97,2.13,6.42,5.51,.28,2.12-.17,5.22,1.02,6.11,1.45,1.09,4.29,.32,6.54,.35,.87,.01,1.83,.22,2.59-.07,.7-.27,1.43-1.01,1.7-1.71,.29-.76,.07-1.72,.08-2.59,.06-5.56,2.08-7.55,7.73-7.6,.5,0,1-.06,1.49,0,2.04,.27,2.84-.46,2.79-2.64-.13-6.23-.11-12.46-.01-18.69,.03-1.91-.52-2.62-2.51-2.57-5.11,.12-10.22,.04-15.33,.04Z"/>
</svg>
