<svg xmlns="http://www.w3.org/2000/svg" viewBox="0 0 159 70.32" width="102" height="45" xmlns:v="https://vecta.io/nano"><path d="M25.22 25.85l-11.79 6.81V6.77L25.22-.04v25.89z" fill="#baff29"/><path d="M38.55 63.46V35.49l-11.8 6.81.01 27.97 11.79-6.81zM11.8 48.97V7.71L0 14.53v41.25l11.8-6.81z" fill="#141957"/><path d="M26.92 26.84l-11.78 6.8 11.59 6.7 11.79-6.81-11.6-6.69zm-1.8 29.83L13.5 49.96l-11.78 6.8 23.4 13.51v-13.6z" fill="#00c19f"/><path d="M147.19 56.87V46.26h-18.77v10.61h-11.8V26.94h11.8v10.6h18.77v-10.6h11.8v29.93h-11.8z" fill="#141957"/><path d="M66.08 32.2v-5.26H54.29v12.07l11.79-6.81z" fill="#00c19f"/><g fill="#141957"><path d="M54.28 56.87h11.81V36.58v-.94-.01l-11.81 6.82v14.42zm51.95-15.39c2.38-.81 4.51-2.68 4.51-6.22 0-5.55-5.42-8.32-13.72-8.32H72v8.72h25.47c.91 0 2.13.37 2.13 1.45 0 1.25-1.24 1.54-2.31 1.54H72v18.22h25.27c11.09 0 14.18-3.76 14.18-8.81 0-3.49-2.23-5.77-5.22-6.57zm-8.92 6.67H83.77v-2.98h13.34c1.88 0 2.63.54 2.63 1.48 0 1.07-.76 1.51-2.43 1.51zM54.28 70.27v-7.58h4.01c.51 0 .93.07 1.27.21.33.14.59.35.75.63.17.28.25.64.25 1.06 0 .35-.05.65-.15.89a1.26 1.26 0 0 1-.46.58 1.99 1.99 0 0 1-.78.31v.04c.34.07.61.17.83.31a1.23 1.23 0 0 1 .47.58c.1.25.15.56.15.94a2.77 2.77 0 0 1-.12.85c-.08.25-.21.46-.39.63s-.42.3-.72.4a3.8 3.8 0 0 1-1.09.14h-4.01zm2-4.49h1.27c.26 0 .47-.02.61-.07s.25-.13.31-.25.09-.28.09-.5c0-.23-.03-.4-.07-.52-.05-.12-.15-.2-.29-.24s-.36-.07-.64-.07h-1.27v1.64zm0 3.06h1.31c.28 0 .49-.02.64-.07s.25-.13.3-.26c.05-.12.08-.3.08-.53s-.03-.41-.08-.54c-.05-.12-.16-.21-.31-.26s-.36-.07-.63-.07h-1.31v1.73zm9.06 1.52c-.59 0-1.09-.03-1.48-.1s-.71-.18-.94-.34a1.4 1.4 0 0 1-.52-.63c-.12-.27-.19-.6-.23-1l-.05-1.43V62.7h2.01v4.57l.03.85c.02.22.07.38.14.49s.19.18.36.21.39.05.68.05a3.73 3.73 0 0 0 .67-.05c.16-.03.28-.1.35-.21s.12-.27.14-.49a9.69 9.69 0 0 0 .03-.85V62.7h2.01v4.16l-.05 1.43c-.03.4-.11.73-.22 1a1.33 1.33 0 0 1-.51.63c-.23.15-.54.27-.94.34s-.89.1-1.48.1zm4.96-.09v-7.58h2.01v7.58H70.3zm3.82 0v-7.58h2.01v6.03h3.1v1.54h-5.11zm6.75 0v-6.03H78.7V62.7h6.37v1.54h-2.19v6.03h-2.01zm9.84 0v-6.03h-2.17V62.7h6.37v1.54h-2.19v6.03h-2.01z"/><use href="#B"/><use href="#C"/><use href="#B" x="18.1"/><use href="#D"/><use href="#D" x="8.44"/><path d="M139.34,70.27v-7.58h5.57v1.48h-3.56v1.55h3.02v1.45h-3.02v1.62h3.56v1.48h-5.57Z"/><use href="#C" x="39.06"/><path d="M154.8 70.27v-6.03h-2.17V62.7H159v1.54h-2.19v6.03h-2.01z"/></g><defs ><path id="B" d="M99.32 70.36c-.67 0-1.22-.04-1.65-.12s-.76-.2-1-.37-.41-.41-.53-.7c-.11-.3-.18-.67-.21-1.11l-.04-1.57.04-1.57c.03-.44.1-.81.21-1.11s.29-.53.53-.7.57-.3 1-.37c.43-.08.98-.12 1.65-.12s1.21.04 1.64.12.77.2 1.01.37.42.41.53.7c.11.3.18.67.21 1.11l.05 1.57-.05 1.57c-.03.44-.1.81-.21 1.11s-.29.53-.53.7-.58.3-1.01.37c-.43.08-.97.12-1.64.12zm0-1.48l.68-.03c.18-.03.31-.07.41-.14.1-.08.17-.2.22-.37s.08-.4.09-.7l.02-1.16-.02-1.16c-.01-.3-.04-.54-.09-.71s-.12-.29-.22-.37-.24-.12-.41-.14-.4-.03-.68-.03l-.67.03c-.18.02-.32.07-.42.14-.1.08-.17.2-.22.37s-.08.4-.09.71l-.02 1.16.02 1.16c.01.3.04.54.09.7s.12.29.22.37.24.12.42.14a6.19 6.19 0 0 0 .67.03z"/><path id="C" d="M110.63 70.36c-.6 0-1.1-.04-1.5-.12s-.73-.2-.98-.38a1.7 1.7 0 0 1-.57-.7c-.13-.29-.21-.66-.26-1.1s-.07-.97-.07-1.57l.07-1.57c.05-.44.13-.81.26-1.1a1.64 1.64 0 0 1 .57-.7c.25-.18.58-.3.98-.38s.9-.12 1.5-.12l.72.02c.25.01.49.04.72.07s.43.07.59.11v1.38l-.65-.06-.51-.03h-.37l-.87.04c-.23.03-.41.08-.54.17s-.23.22-.29.39-.1.4-.12.69l-.03 1.11.03 1.1c.02.29.06.53.12.7s.16.31.29.39.31.14.54.16c.23.03.52.04.87.04l.81-.03.77-.07v1.41l-.61.08-.73.06-.72.02z"/><path id="D" d="M122.46,70.27v-7.58h2.07l2.59,4.06h.06v-4.06h1.93v7.58h-1.88l-2.78-4.44h-.06v4.44h-1.93Z"/></defs></svg>