<svg xmlns="http://www.w3.org/2000/svg" id="Ebene_1" data-name="Ebene 1" viewBox="0 0 159 70.32" width="102" height="45">
  <defs>
    <style>
      .cls-1 {
        fill: #00c19f;
      }

      .cls-2 {
        fill: #baff29;
      }

      .cls-3 {
        fill: #141957;
      }
    </style>
  </defs>
  <g>
    <polygon class="cls-2" points="25.22 25.85 13.43 32.66 13.43 6.77 25.22 -.04 25.22 25.85"/>
    <polygon class="cls-3" points="38.55 63.46 38.55 35.49 26.75 42.3 26.76 70.27 38.55 63.46"/>
    <polygon class="cls-3" points="11.8 48.97 11.8 7.71 0 14.53 0 55.78 11.8 48.97"/>
    <polygon class="cls-1" points="26.92 26.84 15.14 33.64 26.73 40.34 38.52 33.53 26.92 26.84"/>
    <polygon class="cls-1" points="25.12 56.67 13.5 49.96 1.72 56.76 25.12 70.27 25.12 56.67"/>
  </g>
  <g>
    <path class="cls-3" d="M147.19,56.87v-10.61h-18.77v10.61h-11.8v-29.93h11.8v10.6h18.77v-10.6h11.8v29.93h-11.8Z"/>
    <polygon class="cls-1" points="66.08 32.2 66.08 26.94 54.29 26.94 54.29 39.01 66.08 32.2"/>
    <polygon class="cls-3" points="54.28 56.87 66.09 56.87 66.09 36.58 66.09 35.64 66.09 35.63 54.28 42.45 54.28 56.87"/>
    <path class="cls-3" d="M106.23,41.48c2.38-.81,4.51-2.68,4.51-6.22,0-5.55-5.42-8.32-13.72-8.32h-25.02v8.72h25.47c.91,0,2.13.37,2.13,1.45,0,1.25-1.24,1.54-2.31,1.54h-25.29v18.22h25.27c11.09,0,14.18-3.76,14.18-8.81,0-3.49-2.23-5.77-5.22-6.57ZM97.31,48.15h-13.54v-2.98h13.34c1.88,0,2.63.54,2.63,1.48,0,1.07-.76,1.51-2.43,1.51Z"/>
  </g>
  <g>
    <path class="cls-3" d="M54.28,70.27v-7.58h4.01c.51,0,.93.07,1.27.21.33.14.59.35.75.63.17.28.25.64.25,1.06,0,.35-.05.65-.15.89s-.25.44-.46.58c-.2.14-.46.25-.78.31v.04c.34.07.61.17.83.31.21.14.37.33.47.58.1.25.15.56.15.94,0,.32-.04.6-.12.85-.08.25-.21.46-.39.63-.18.17-.42.3-.72.4-.3.09-.66.14-1.09.14h-4.01ZM56.28,65.78h1.27c.26,0,.47-.02.61-.07s.25-.13.31-.25.09-.28.09-.5c0-.23-.03-.4-.07-.52-.05-.12-.15-.2-.29-.24s-.36-.07-.64-.07h-1.27v1.64ZM56.28,68.84h1.31c.28,0,.49-.02.64-.07.15-.05.25-.13.3-.26.05-.12.08-.3.08-.53s-.03-.41-.08-.54c-.05-.12-.16-.21-.31-.26-.15-.05-.36-.07-.63-.07h-1.31v1.73Z"/>
    <path class="cls-3" d="M65.34,70.36c-.59,0-1.09-.03-1.48-.1-.39-.07-.71-.18-.94-.34-.23-.15-.41-.37-.52-.63-.12-.27-.19-.6-.23-1-.03-.4-.05-.88-.05-1.43v-4.16h2.01v4.57c0,.35,0,.64.03.85.02.22.07.38.14.49s.19.18.36.21c.17.03.39.05.68.05s.51-.02.67-.05c.16-.03.28-.1.35-.21s.12-.27.14-.49c.02-.22.03-.5.03-.85v-4.57h2.01v4.16c0,.55-.02,1.03-.05,1.43-.03.4-.11.73-.22,1-.11.27-.28.48-.51.63-.23.15-.54.27-.94.34s-.89.1-1.48.1Z"/>
    <path class="cls-3" d="M70.3,70.27v-7.58h2.01v7.58h-2.01Z"/>
    <path class="cls-3" d="M74.12,70.27v-7.58h2.01v6.03h3.1v1.54h-5.11Z"/>
    <path class="cls-3" d="M80.87,70.27v-6.03h-2.17v-1.54h6.37v1.54h-2.19v6.03h-2.01Z"/>
    <path class="cls-3" d="M90.71,70.27v-6.03h-2.17v-1.54h6.37v1.54h-2.19v6.03h-2.01Z"/>
    <path class="cls-3" d="M99.32,70.36c-.67,0-1.22-.04-1.65-.12-.43-.08-.76-.2-1-.37-.24-.17-.41-.41-.53-.7-.11-.3-.18-.67-.21-1.11-.03-.44-.04-.97-.04-1.57s.01-1.13.04-1.57c.03-.44.1-.81.21-1.11.11-.3.29-.53.53-.7.24-.17.57-.3,1-.37.43-.08.98-.12,1.65-.12s1.21.04,1.64.12c.43.08.77.2,1.01.37s.42.41.53.7c.11.3.18.67.21,1.11.03.44.05.97.05,1.57s-.02,1.13-.05,1.57-.1.81-.21,1.11c-.11.3-.29.53-.53.7s-.58.3-1.01.37c-.43.08-.97.12-1.64.12ZM99.32,68.88c.28,0,.5,0,.68-.03s.31-.07.41-.14c.1-.08.17-.2.22-.37.05-.17.08-.4.09-.7.01-.3.02-.69.02-1.16s0-.86-.02-1.16c-.01-.3-.04-.54-.09-.71-.05-.17-.12-.29-.22-.37-.1-.08-.24-.12-.41-.14-.17-.02-.4-.03-.68-.03s-.49,0-.67.03c-.18.02-.32.07-.42.14-.1.08-.17.2-.22.37-.05.17-.08.4-.09.71-.01.3-.02.69-.02,1.16s0,.86.02,1.16c.01.3.04.54.09.7s.12.29.22.37c.1.08.24.12.42.14.18.02.4.03.67.03Z"/>
    <path class="cls-3" d="M110.63,70.36c-.6,0-1.1-.04-1.5-.12-.4-.08-.73-.2-.98-.38-.25-.18-.44-.41-.57-.7-.13-.29-.21-.66-.26-1.1-.05-.44-.07-.97-.07-1.57s.02-1.13.07-1.57c.05-.44.13-.81.26-1.1.13-.29.32-.53.57-.7.25-.18.58-.3.98-.38.4-.08.9-.12,1.5-.12.23,0,.47,0,.72.02.25.01.49.04.72.07.23.03.43.07.59.11v1.38c-.24-.02-.46-.04-.65-.06-.2-.02-.37-.03-.51-.03-.15,0-.27,0-.37,0-.35,0-.65.01-.87.04-.23.03-.41.08-.54.17-.13.09-.23.22-.29.39s-.1.4-.12.69c-.02.29-.03.66-.03,1.11s0,.81.03,1.1c.02.29.06.53.12.7s.16.31.29.39c.13.08.31.14.54.16.23.03.52.04.87.04.24,0,.51,0,.81-.03s.56-.04.77-.07v1.41c-.17.03-.37.06-.61.08-.24.03-.48.05-.73.06s-.49.02-.72.02Z"/>
    <path class="cls-3" d="M117.42,70.36c-.67,0-1.22-.04-1.65-.12-.43-.08-.76-.2-1-.37-.24-.17-.41-.41-.53-.7-.11-.3-.18-.67-.21-1.11-.03-.44-.04-.97-.04-1.57s.01-1.13.04-1.57c.03-.44.1-.81.21-1.11.11-.3.29-.53.53-.7.24-.17.57-.3,1-.37.43-.08.98-.12,1.65-.12s1.21.04,1.64.12c.43.08.77.2,1.01.37s.42.41.53.7c.11.3.18.67.21,1.11.03.44.05.97.05,1.57s-.02,1.13-.05,1.57-.1.81-.21,1.11c-.11.3-.29.53-.53.7s-.58.3-1.01.37c-.43.08-.97.12-1.64.12ZM117.42,68.88c.28,0,.5,0,.68-.03s.31-.07.41-.14c.1-.08.17-.2.22-.37.05-.17.08-.4.09-.7.01-.3.02-.69.02-1.16s0-.86-.02-1.16c-.01-.3-.04-.54-.09-.71-.05-.17-.12-.29-.22-.37-.1-.08-.24-.12-.41-.14-.17-.02-.4-.03-.68-.03s-.49,0-.67.03c-.18.02-.32.07-.42.14-.1.08-.17.2-.22.37-.05.17-.08.4-.09.71-.01.3-.02.69-.02,1.16s0,.86.02,1.16c.01.3.04.54.09.7s.12.29.22.37c.1.08.24.12.42.14.18.02.4.03.67.03Z"/>
    <path class="cls-3" d="M122.46,70.27v-7.58h2.07l2.59,4.06h.06v-4.06h1.93v7.58h-1.88l-2.78-4.44h-.06v4.44h-1.93Z"/>
    <path class="cls-3" d="M130.9,70.27v-7.58h2.07l2.59,4.06h.06v-4.06h1.93v7.58h-1.88l-2.78-4.44h-.06v4.44h-1.93Z"/>
    <path class="cls-3" d="M139.34,70.27v-7.58h5.57v1.48h-3.56v1.55h3.02v1.45h-3.02v1.62h3.56v1.48h-5.57Z"/>
    <path class="cls-3" d="M149.69,70.36c-.6,0-1.1-.04-1.5-.12-.4-.08-.73-.2-.98-.38-.25-.18-.44-.41-.57-.7-.13-.29-.21-.66-.26-1.1-.05-.44-.07-.97-.07-1.57s.02-1.13.07-1.57c.05-.44.13-.81.26-1.1.13-.29.32-.53.57-.7.25-.18.58-.3.98-.38.4-.08.9-.12,1.5-.12.23,0,.47,0,.72.02.25.01.49.04.72.07.23.03.43.07.59.11v1.38c-.24-.02-.46-.04-.65-.06-.2-.02-.37-.03-.51-.03-.15,0-.27,0-.37,0-.35,0-.65.01-.87.04-.23.03-.41.08-.54.17-.13.09-.23.22-.29.39s-.1.4-.12.69c-.02.29-.03.66-.03,1.11s0,.81.03,1.1c.02.29.06.53.12.7s.16.31.29.39c.13.08.31.14.54.16.23.03.52.04.87.04.24,0,.51,0,.81-.03s.56-.04.77-.07v1.41c-.17.03-.37.06-.61.08-.24.03-.48.05-.73.06s-.49.02-.72.02Z"/>
    <path class="cls-3" d="M154.8,70.27v-6.03h-2.17v-1.54h6.37v1.54h-2.19v6.03h-2.01Z"/>
  </g>
</svg>
