<svg id="Ebene_1" style="enable-background:new 0 0 1324 347;" version="1.1" viewBox="0 0 1324 347"
     xml:space="preserve" xmlns="http://www.w3.org/2000/svg" xmlns:xlink="http://www.w3.org/1999/xlink">
<style type="text/css">
	.st0 {
    fill: #D13239;
  }

  .st1 {
    fill: #002A55;
  }

  .st2 {
    clip-path: url(#SVGID_2_);
    fill: #002A55;
  }
</style>
  <path class="st0" d="M701.4,336.8h-16.9v-84.5h16.9V336.8z"/>
  <path class="st0" d="M804,307.2h-32.7v-13.1H804V307.2z"/>
  <path class="st0"
        d="M864.7,314.8c0-3.2-1.2-5.9-3.5-7.8s-6.3-3.8-12.1-5.6c-10.1-2.9-17.7-6.3-22.8-10.3c-5.1-4-7.7-9.4-7.7-16.4  s2.9-12.6,8.8-17c5.9-4.4,13.4-6.6,22.6-6.6c9.3,0,16.8,2.5,22.7,7.4c5.8,4.9,8.7,11,8.5,18.3l-0.1,0.3h-16.4c0-3.9-1.3-7.1-3.9-9.5  c-2.6-2.4-6.3-3.6-11-3.6c-4.5,0-8,1-10.5,3c-2.5,2-3.7,4.6-3.7,7.7c0,2.9,1.3,5.2,4,7.1c2.6,1.8,7.2,3.8,13.7,5.8  c9.3,2.6,16.4,6,21.2,10.3c4.8,4.3,7.2,9.8,7.2,16.8c0,7.2-2.9,12.9-8.6,17.1c-5.7,4.2-13.2,6.3-22.6,6.3c-9.2,0-17.2-2.4-24.1-7.1  c-6.8-4.7-10.2-11.4-10-19.9l0.1-0.3H833c0,5,1.5,8.7,4.6,11.1s7.4,3.5,12.9,3.5c4.6,0,8.1-0.9,10.6-2.8  C863.4,320.5,864.7,317.9,864.7,314.8z"/>
  <path class="st0" d="M946.4,299.7h-35v24.1h40.9v13.1h-57.9v-84.5h57.7v13.1h-40.8v21.2h35V299.7z"/>
  <path class="st0"
        d="M979.6,303.1v33.8h-16.9v-84.5h31.9c9.6,0,17.2,2.2,22.6,6.6c5.4,4.4,8.2,10.5,8.2,18.4c0,4.4-1.1,8.1-3.4,11.3  c-2.3,3.1-5.6,5.7-10,7.6c5,1.5,8.6,3.9,10.8,7.4s3.3,7.7,3.3,12.8v6.2c0,2.4,0.3,4.8,1,7.4s1.7,4.5,3.3,5.7v1.2h-17.5  c-1.5-1.2-2.6-3.3-3-6.2s-0.7-5.6-0.7-8.2v-6c0-4.2-1.2-7.5-3.5-9.8c-2.3-2.3-5.5-3.5-9.7-3.5H979.6z M979.6,290h14.6  c4.8,0,8.3-1,10.6-3c2.3-2,3.5-5,3.5-8.9c0-3.9-1.2-6.9-3.5-9.2c-2.3-2.3-5.8-3.4-10.4-3.4h-14.9V290z"/>
  <path class="st0" d="M1068.6,314.4l1,4.6h0.3l1-4.5l18.4-62.1h17.9l-28.7,84.5h-17.4l-28.7-84.5h17.9L1068.6,314.4z"/>
  <path class="st0" d="M1133.6,336.8h-16.9v-84.5h16.9V336.8z"/>
  <path class="st0"
        d="M1214.2,308l0.1,0.3c0.2,9.1-2.6,16.3-8.3,21.6c-5.7,5.3-13.6,8-23.8,8c-10.2,0-18.4-3.3-24.8-9.8  c-6.3-6.5-9.5-15-9.5-25.2v-16.8c0-10.3,3.1-18.7,9.3-25.2c6.2-6.6,14.2-9.9,24.1-9.9c10.4,0,18.6,2.7,24.5,8  c5.9,5.4,8.7,12.7,8.6,21.9l-0.1,0.3h-16.5c0-5.6-1.3-9.8-4-12.8c-2.7-3-6.8-4.4-12.5-4.4c-5.1,0-9.1,2.1-12.1,6.2  c-3,4.1-4.5,9.4-4.5,15.7V303c0,6.5,1.6,11.7,4.7,15.9c3.1,4.1,7.4,6.2,12.7,6.2c5.3,0,9.2-1.4,11.8-4.3c2.5-2.8,3.8-7.1,3.8-12.7  H1214.2z"/>
  <path class="st0" d="M1278.3,299.7h-35v24.1h40.9v13.1h-57.9v-84.5h57.7v13.1h-40.8v21.2h35V299.7z"/>
  <path class="st1"
        d="M490.1,81.7l0.4-0.3v1.4L490.1,81.7z M702.4,8.5v128.9H560V8.5h-89.8l19.4,73l0.9,1.7v252.1H560V198.1h142.1  l12.2,25.7H771V8.5H702.4z"/>
  <polygon class="st1" points="4,8.5 23.4,81.1 24.1,335.4 93.7,335.4 93.7,8.5 "/>
  <g>
	<defs>
		<rect height="328.5" id="SVGID_1_" width="1254.4" x="4" y="8.5"/>
	</defs>
    <clipPath id="SVGID_2_">
		<use style="overflow:visible;" xlink:href="#SVGID_1_"/>
	</clipPath>
    <path class="st2"
          d="M323.5,274.8h-90V199h90c26.9,0,41.6,17.4,41.6,37.9C365.1,260.4,349.4,274.8,323.5,274.8 M233.5,70h87   c23.5,0,38.2,14.3,38.2,34.3c0,21.1-14.7,34.3-38.2,34.3h-87V70z M373.4,167.2c30.8-6.4,56.3-34.4,56.3-75.1   c0-43.6-31.8-83.6-94-83.6H191.2h-46.8l19.3,71.9l-0.2,0.7v254.4h177.5c62.7,0,95-39.1,95-88.5   C436.1,206.3,408.7,172.6,373.4,167.2"/>
</g>
  <g>
	<defs>
		<rect height="328.5" id="SVGID_3_" width="1254.4" x="4" y="8.5"/>
	</defs>
    <clipPath id="SVGID_4_">
		<use style="overflow:visible;" xlink:href="#SVGID_3_"/>
	</clipPath>
</g>
  <g>
	<defs>
		<rect height="328.5" id="SVGID_5_" width="1254.4" x="4" y="8.5"/>
	</defs>
    <clipPath id="SVGID_6_">
		<use style="overflow:visible;" xlink:href="#SVGID_5_"/>
	</clipPath>
</g>
  <g>
	<defs>
		<rect height="328.5" id="SVGID_7_" width="1254.4" x="4" y="8.5"/>
	</defs>
    <clipPath id="SVGID_8_">
		<use style="overflow:visible;" xlink:href="#SVGID_7_"/>
	</clipPath>
</g>
  <polygon class="st0"
           points="771,252.3 714,252.3 714,265.4 733.9,265.4 733.9,336.8 750.8,336.8 750.8,265.4 771,265.4 "/>
</svg>
