<?xml version="1.0" standalone="no"?>
<!DOCTYPE svg PUBLIC "-//W3C//DTD SVG 20010904//EN"
  "http://www.w3.org/TR/2001/REC-SVG-20010904/DTD/svg10.dtd">
<svg height="700.000000pt" preserveAspectRatio="xMidYMid meet"
     version="1.0" viewBox="0 0 700.000000 700.000000" width="700.000000pt"
     xmlns="http://www.w3.org/2000/svg">
  <metadata>
    Created by potrace 1.14, written by Peter Selinger 2001-2017
  </metadata>
  <g fill="#000000"
     stroke="none" transform="translate(0.000000,700.000000) scale(0.100000,-0.100000)">
    <path d="M3280 6994 c-19 -2 -84 -9 -145 -14 -410 -40 -846 -169 -1225 -362
-343 -176 -628 -387 -908 -672 -561 -572 -883 -1252 -984 -2081 -7 -56 -12
-217 -12 -365 0 -268 7 -362 45 -588 96 -575 348 -1138 716 -1597 115 -144
339 -373 483 -494 537 -451 1157 -715 1885 -803 135 -16 590 -16 735 1 512 58
1002 222 1426 478 635 383 1136 957 1422 1628 255 599 339 1259 242 1898 -93
610 -340 1176 -726 1662 -116 147 -431 459 -574 569 -523 404 -1101 642 -1750
722 -117 15 -553 27 -630 18z m-435 -1670 c77 -114 141 -210 143 -215 3 -7
-614 -778 -662 -826 l-21 -22 -440 625 c-242 344 -441 629 -443 634 -2 6 234
10 640 10 l644 0 139 -206z m1264 -1824 l-1450 -2030 -655 0 -656 0 29 39 c15
21 683 934 1483 2029 l1455 1991 622 1 622 0 -1450 -2030z m1043 -1335 c233
-324 441 -614 462 -642 l38 -53 -660 0 -661 0 -146 215 c-80 118 -148 222
-151 230 -4 8 122 179 327 445 316 408 334 430 350 413 9 -10 208 -283 441
-608z"/>
  </g>
</svg>
