<svg xmlns="http://www.w3.org/2000/svg" viewBox="0 0 198.4252 70.8661">
  <defs>
    <clipPath id="clip1">
      <path d="M 0 2 L 198.425781 2 L 198.425781 56 L 0 56 Z M 0 2 "/>
    </clipPath>
    <clipPath id="clip2">
      <path d="M 0 15 L 198.425781 15 L 198.425781 69 L 0 69 Z M 0 15 "/>
    </clipPath>
  </defs>
  <g id="surface1">
    <g clip-path="url(#clip1)" clip-rule="nonzero">
      <path style=" stroke:none;fill-rule:evenodd;fill:rgb(89.019775%,0%,5.882263%);fill-opacity:1;"
            d="M 176.347656 35.433594 C 184.898438 44.433594 191.929688 50.675781 198.425781 55.066406 L 181.398438 55.066406 C 176.957031 51.332031 172.824219 47.191406 168.886719 43.144531 Z M 161.421875 35.433594 C 133.878906 6.4375 122.125 6.078125 93.046875 3.921875 L 92.789062 3.902344 L 92.753906 3.898438 C 89.816406 3.675781 49.570312 3.445312 0 3.195312 L 0 2.296875 L 122.359375 2.296875 C 128.914062 2.296875 133.621094 2.804688 140.109375 5.492188 C 151.296875 10.121094 160.53125 19.144531 168.886719 27.722656 Z M 161.421875 35.433594 "/>
    </g>
    <path style=" stroke:none;fill-rule:evenodd;fill:rgb(89.019775%,0%,5.882263%);fill-opacity:1;"
          d="M 133.105469 35.433594 C 133.105469 34.660156 133.730469 34.035156 134.496094 34.035156 C 135.265625 34.035156 135.890625 34.660156 135.890625 35.433594 C 135.890625 36.210938 135.265625 36.835938 134.496094 36.835938 C 133.730469 36.835938 133.105469 36.210938 133.105469 35.433594 Z M 139.722656 47.421875 C 139.722656 46.851562 140.191406 46.390625 140.765625 46.390625 C 141.335938 46.390625 141.800781 46.851562 141.800781 47.421875 C 141.800781 47.992188 141.335938 48.453125 140.765625 48.453125 C 140.191406 48.453125 139.722656 47.992188 139.722656 47.421875 Z M 139.722656 23.449219 C 139.722656 24.019531 140.191406 24.480469 140.765625 24.480469 C 141.335938 24.480469 141.800781 24.019531 141.800781 23.449219 C 141.800781 22.878906 141.335938 22.417969 140.765625 22.417969 C 140.191406 22.417969 139.722656 22.878906 139.722656 23.449219 Z M 137.480469 30.875 C 137.480469 31.648438 138.089844 32.277344 138.839844 32.277344 C 139.59375 32.277344 140.203125 31.648438 140.203125 30.875 C 140.203125 30.101562 139.59375 29.472656 138.839844 29.472656 C 138.089844 29.472656 137.480469 30.101562 137.480469 30.875 Z M 134.613281 27.089844 C 134.613281 27.65625 135.074219 28.117188 135.648438 28.117188 C 136.21875 28.117188 136.679688 27.65625 136.679688 27.089844 C 136.679688 26.519531 136.21875 26.058594 135.648438 26.058594 C 135.074219 26.058594 134.613281 26.519531 134.613281 27.089844 Z M 134.613281 43.78125 C 134.613281 44.351562 135.074219 44.8125 135.648438 44.8125 C 136.21875 44.8125 136.679688 44.351562 136.679688 43.78125 C 136.679688 43.214844 136.21875 42.753906 135.648438 42.753906 C 135.074219 42.753906 134.613281 43.214844 134.613281 43.78125 Z M 145.425781 30.71875 C 145.425781 31.675781 146.238281 32.449219 147.242188 32.449219 C 148.246094 32.449219 149.058594 31.675781 149.058594 30.71875 C 149.058594 29.765625 148.246094 28.988281 147.242188 28.988281 C 146.238281 28.988281 145.425781 29.765625 145.425781 30.71875 Z M 142.472656 26.941406 C 142.472656 27.71875 143.121094 28.347656 143.921875 28.347656 C 144.71875 28.347656 145.367188 27.71875 145.367188 26.941406 C 145.367188 26.167969 144.71875 25.542969 143.921875 25.542969 C 143.121094 25.542969 142.472656 26.167969 142.472656 26.941406 Z M 137.480469 39.996094 C 137.480469 39.222656 138.089844 38.59375 138.839844 38.59375 C 139.59375 38.59375 140.203125 39.222656 140.203125 39.996094 C 140.203125 40.769531 139.59375 41.394531 138.839844 41.394531 C 138.089844 41.394531 137.480469 40.769531 137.480469 39.996094 Z M 145.425781 40.152344 C 145.425781 39.195312 146.238281 38.421875 147.242188 38.421875 C 148.246094 38.421875 149.058594 39.195312 149.058594 40.152344 C 149.058594 41.105469 148.246094 41.882812 147.242188 41.882812 C 146.238281 41.882812 145.425781 41.105469 145.425781 40.152344 Z M 142.472656 43.925781 C 142.472656 43.152344 143.121094 42.523438 143.921875 42.523438 C 144.71875 42.523438 145.367188 43.152344 145.367188 43.925781 C 145.367188 44.703125 144.71875 45.328125 143.921875 45.328125 C 143.121094 45.328125 142.472656 44.703125 142.472656 43.925781 Z M 127.164062 35.433594 C 127.164062 34.867188 127.625 34.40625 128.191406 34.40625 C 128.761719 34.40625 129.21875 34.867188 129.21875 35.433594 C 129.21875 36.003906 128.761719 36.464844 128.191406 36.464844 C 127.625 36.464844 127.164062 36.003906 127.164062 35.433594 Z M 149.214844 35.433594 C 149.214844 34.117188 150.308594 33.046875 151.660156 33.046875 C 153.007812 33.046875 154.101562 34.117188 154.101562 35.433594 C 154.101562 36.753906 153.007812 37.824219 151.660156 37.824219 C 150.308594 37.824219 149.214844 36.753906 149.214844 35.433594 Z M 140.03125 35.433594 C 140.03125 34.480469 140.839844 33.707031 141.835938 33.707031 C 142.832031 33.707031 143.640625 34.480469 143.640625 35.433594 C 143.640625 36.390625 142.832031 37.164062 141.835938 37.164062 C 140.839844 37.164062 140.03125 36.390625 140.03125 35.433594 "/>
    <path style=" stroke:none;fill-rule:evenodd;fill:rgb(67.843628%,4.31366%,1.568604%);fill-opacity:1;"
          d="M 170.617188 44.820312 L 170.570312 44.867188 C 170.003906 44.292969 169.441406 43.71875 168.886719 43.144531 L 176.347656 35.433594 C 176.914062 36.027344 177.46875 36.605469 178.019531 37.175781 Z M 159.753906 33.695312 L 167.152344 26.046875 L 167.199219 26 C 167.765625 26.574219 168.328125 27.148438 168.886719 27.722656 L 161.421875 35.433594 C 160.859375 34.839844 160.300781 34.265625 159.753906 33.695312 "/>
    <g clip-path="url(#clip2)" clip-rule="nonzero">
      <path style=" stroke:none;fill-rule:evenodd;fill:rgb(89.019775%,0%,5.882263%);fill-opacity:1;"
            d="M 168.886719 43.144531 L 176.347656 35.433594 C 184.898438 26.433594 191.929688 20.191406 198.425781 15.800781 L 181.402344 15.800781 C 176.957031 19.535156 172.824219 23.679688 168.886719 27.722656 L 161.421875 35.433594 C 133.878906 64.429688 122.125 64.792969 93.046875 66.949219 C 90.0625 67.167969 49.671875 67.398438 0 67.652344 L 0 68.570312 L 122.359375 68.570312 C 128.914062 68.570312 133.621094 68.0625 140.109375 65.378906 C 151.296875 60.746094 160.53125 51.726562 168.886719 43.144531 "/>
    </g>
    <path style=" stroke:none;fill-rule:nonzero;fill:rgb(10.195923%,10.195923%,9.411621%);fill-opacity:1;"
          d="M 57.851562 41.347656 C 57.851562 52.953125 63.691406 55.691406 73.507812 55.691406 L 91.078125 55.691406 C 102.019531 55.691406 104.179688 50.4375 104.179688 43.757812 L 104.179688 40.035156 L 93.285156 40.035156 C 93.285156 44.960938 91.8125 45.507812 86.90625 45.507812 L 75.273438 45.507812 C 70.121094 45.507812 69.039062 43.320312 69.039062 37.570312 L 69.039062 33.300781 C 69.039062 28.371094 70.121094 25.359375 75.863281 25.359375 L 87.738281 25.359375 C 90.980469 25.359375 92.84375 26.179688 92.84375 29.027344 L 92.84375 30.125 L 103.738281 30.125 C 103.835938 18.898438 101.824219 15.175781 86.316406 15.175781 L 73.507812 15.175781 C 63.691406 15.175781 57.851562 17.914062 57.851562 29.519531 Z M 57.851562 41.347656 "/>
    <path style=" stroke:none;fill-rule:nonzero;fill:rgb(89.019775%,0%,5.882263%);fill-opacity:1;"
          d="M 6.515625 55.253906 L 41.214844 55.253906 C 47.445312 55.253906 52.0625 53.449219 52.0625 44.742188 C 52.0625 38.773438 50.292969 35.925781 45.53125 35.269531 L 45.53125 35.105469 C 48.578125 34.121094 50.785156 32.804688 50.785156 26.015625 C 50.785156 18.242188 46.5625 15.613281 37.878906 15.613281 L 6.515625 15.613281 Z M 17.410156 25.140625 L 36.699219 25.140625 C 38.710938 25.140625 39.890625 25.960938 39.890625 28.261719 C 39.890625 30.507812 38.710938 31.328125 36.699219 31.328125 L 17.410156 31.328125 Z M 17.410156 39.539062 L 36.945312 39.539062 C 39.300781 39.539062 40.871094 40.144531 40.871094 42.824219 C 40.871094 45.125 39.300781 45.726562 36.945312 45.726562 L 17.410156 45.726562 Z M 17.410156 39.539062 "/>
    <path style=" stroke:none;fill-rule:nonzero;fill:rgb(10.195923%,10.195923%,9.411621%);fill-opacity:1;"
          d="M 111.34375 55.253906 L 122.242188 55.253906 L 122.242188 15.613281 L 111.34375 15.613281 Z M 111.34375 55.253906 "/>
  </g>
</svg>
