<svg viewBox="0 0 63 19" xmlns="http://www.w3.org/2000/svg">
  <path
    d="M40.924.73h-4.385V19h4.385V.73ZM62.846 8.39h-5.17L60.93.73h-3.754l-3.83 9.135L57.176 19h3.754l-3.252-7.66h5.169V8.39ZM43.115 8.39h5.567L45.179.73h4.045l4.122 9.135L49.225 19h-4.046l3.503-7.66h-5.567V8.39ZM9.847 9.343c1.436-.495 2.488-2.113 2.488-3.758C12.335 2.95 9.847.73 6.746.73H0V19h7.512c3.077 0 5.642-2.271 5.642-5.22 0-2.244-1.41-4.047-3.307-4.437Zm-6.284-4.88h3.234c1.078 0 1.923.847 1.923 1.946S7.875 8.41 6.797 8.41H3.563V4.464Zm3.85 11.146h-3.85v-4.254h3.9c1.129 0 2.052.967 2.052 2.14a2.092 2.092 0 0 1-2.103 2.114ZM29.556 11.55a5.725 5.725 0 0 1-5.327 3.604c-3.154 0-5.72-2.537-5.72-5.654s2.566-5.654 5.72-5.654a5.727 5.727 0 0 1 5.327 3.605h4.06C32.664 3.195 28.818 0 24.23 0c-5.3 0-9.613 4.262-9.613 9.5S18.93 19 24.23 19c4.589 0 8.433-3.195 9.385-7.45h-4.058Z"
    fill="#2dbe65"/>
</svg>
