<svg appTooltip="Performance icons created by juicy_fish - Flaticon" viewBox="0 0 383.2 383.19"
     xmlns="http://www.w3.org/2000/svg">
  <path
    d="M0,333.04c.97-7.14,1.62-14.34,2.98-21.4,11.7-60.83,44.89-106.19,99.07-135.97,31.13-17.11,64.82-24.24,100.19-22.08,53.07,3.24,97.52,25.01,132.92,64.62,27.32,30.58,42.78,66.64,47.13,107.41,.66,6.19,.84,12.45,.91,18.68,.09,7.8-5.29,13.33-13.06,13.35-25.32,.09-50.65,.09-75.97,0-7.37-.02-12.38-4.85-13.06-12.23-.42-4.56-.67-9.14-1.04-14.31-1.75,.98-2.92,1.63-4.08,2.29-17.74,10.14-35.49,20.27-53.22,30.43-1.06,.6-2.35,1.24-2.89,2.22-5.21,9.52-13.45,14.74-23.76,17.14h-8.98c-.94-.28-1.86-.61-2.81-.84-16.84-4.05-27.46-20.72-23.98-37.62,3.47-16.86,20.03-27.92,37.03-24.86,1.48,.27,3.22,.04,4.65-.48,20.23-7.37,40.42-14.83,60.62-22.28,1.1-.41,2.17-.9,3.42-1.41-.64-1.02-1.01-1.66-1.42-2.27-20.88-30.42-60.53-44.78-96.33-34.9-38.28,10.56-64.51,43.88-65.98,83.83-.4,10.93-4.93,15.33-15.77,15.33-23.31,0-46.63-.19-69.94,.1-7.86,.1-13.53-2.34-16.61-9.78,0-4.99,0-9.98,0-14.97Zm60.5-109.7c-31.13,34.49-47.1,74.75-47.77,121.39H89.38c.33-25.56,8.99-47.99,25.43-67.14-18.17-18.15-36.06-36.03-54.31-54.26Zm9.88-9.8c18.19,18.21,36.12,36.17,54.25,54.32,17.14-14.81,37.42-23.14,60.29-24.92v-76.79c-44.18,2.24-82.25,18.09-114.54,47.39Zm242.52,.32c-24.58-26.28-83.45-50.62-114.44-47.3-.11,.3-.34,.64-.34,.98-.03,24.32-.03,48.63-.1,72.95,0,2.3,1.22,2.55,3.04,2.7,12.94,1.08,25.31,4.46,36.7,10.65,7.5,4.08,14.52,9.06,21.59,13.54,17.6-17.6,35.48-35.48,53.54-53.53Zm10.25,9.95c-18.22,18.22-36.17,36.16-54.16,54.15,2.3,3.1,5.16,6.44,7.39,10.15,1.69,2.82,3.29,3.18,6.28,2.1,13.47-4.86,26.99-9.57,40.57-14.13,8.51-2.85,16.64,2.76,16.93,11.5,.18,5.38-2.41,9.23-6.97,11.93-11.9,7.05-23.67,14.33-35.72,21.11-4.2,2.37-6.21,4.61-4.89,9.77,1.18,4.61,1.08,9.55,1.54,14.25h76.44c-.8-46.71-16.73-87.02-47.41-120.84Zm.74,66.62c-.16-.4-.33-.8-.49-1.2-36.36,12.93-72.73,25.87-108.18,38.48,3.27,7.26,6.23,13.8,9.39,20.8,32.7-19.13,65.99-38.6,99.29-58.08Zm-132.3,41.74c-10.52,.02-19.01,8.43-19.12,18.94-.11,10.53,8.65,19.33,19.22,19.31,10.41-.02,19.01-8.58,19.13-19.03,.11-10.57-8.56-19.24-19.22-19.22Z"/>
  <path
    d="M39.75,138.28c.77-5.39,1.52-11.58,2.6-17.71,.42-2.38-.13-3.95-1.8-5.61-3.71-3.69-7.25-7.56-10.81-11.4-3.98-4.29-5.31-9.3-3.33-14.86,1.97-5.54,6.08-8.6,11.92-9.46,3.82-.56,7.59-1.73,11.41-1.91,4.66-.22,7.04-2.5,8.68-6.6,1.62-4.03,3.8-7.84,5.78-11.72,2.62-5.12,6.87-7.97,12.58-7.93,5.56,.04,9.71,2.86,12.26,7.83,2.5,4.88,4.77,9.88,7.45,14.65,.77,1.37,2.51,2.68,4.03,3.04,4.97,1.15,10.06,1.77,15.07,2.73,11.6,2.23,16.04,15.03,8.25,23.89-3.62,4.12-7.65,7.88-11.19,12.07-1.1,1.3-1.77,3.52-1.61,5.23,.51,5.58,1.58,11.1,2.27,16.66,.68,5.52-1.21,10.11-5.73,13.39-4.42,3.21-9.26,3.55-14.14,1.15-4.92-2.42-9.67-5.17-14.63-7.5-1.2-.57-3.13-.55-4.34,.01-5.07,2.38-9.91,5.25-15,7.59-9.36,4.32-19.69-2.44-19.76-13.54Zm12.78,1.71c.37,.18,.74,.36,1.11,.55,5.62-2.92,11.4-5.57,16.81-8.84,4.4-2.65,8.21-2.54,12.52,.05,4.58,2.75,9.44,5.04,14.2,7.49,.91,.47,1.92,.76,3.32,1.31,0-1.45,.1-2.29-.02-3.1-.89-6.54-1.68-13.1-2.8-19.6-.57-3.29,.23-5.8,2.5-8.14,4.52-4.65,8.92-9.41,13.38-14.11,2-2.11,1.79-3.38-1.27-3.89-6.26-1.05-12.49-2.3-18.77-3.25-3.19-.48-5.14-2.16-6.49-4.94-2.77-5.71-5.62-11.38-8.47-17.06-.46-.92-1.1-1.76-1.99-3.17-.92,1.64-1.56,2.67-2.1,3.74-2.73,5.45-5.51,10.89-8.14,16.39-1.41,2.95-3.49,4.59-6.8,5.09-6.15,.93-12.28,2.09-18.39,3.27-3.39,.66-3.59,1.38-1.22,3.96,2.7,2.94,5.47,5.81,8.2,8.72,9.62,10.24,8.18,7.11,6.55,19.54-.16,1.23-.39,2.46-.55,3.69-.54,4.1-1.06,8.2-1.58,12.3Z"/>
  <path
    d="M154.86,86.45c.72-5.23,1.71-11.51,2.38-17.83,.14-1.36-.46-3.17-1.37-4.21-3.6-4.13-7.48-8.02-11.22-12.04-3.9-4.19-5.07-9.1-3.3-14.53,1.78-5.48,5.66-8.61,11.34-9.58,5.16-.88,10.33-1.69,15.43-2.83,1.32-.29,2.84-1.44,3.5-2.62,2.59-4.68,4.88-9.53,7.25-14.33C181.45,3.24,185.52,.06,191.47,0c6.11-.06,10.3,3.13,12.95,8.52,2.36,4.8,4.66,9.65,7.25,14.33,.65,1.17,2.2,2.26,3.53,2.55,5.22,1.16,10.54,1.9,15.79,2.94,10.94,2.17,15.45,14.65,8.28,23.2-3.52,4.2-7.35,8.15-11.27,11.99-1.92,1.87-2.47,3.7-2,6.27,.86,4.65,1.39,9.36,2.12,14.04,.97,6.22-.12,11.78-5.55,15.63-5.28,3.74-10.71,3.17-16.17,.11-3.91-2.19-8.03-4.02-11.88-6.29-2.12-1.25-3.74-1.11-5.81,.06-4.44,2.51-8.99,4.84-13.59,7.07-9.94,4.82-20.44-1.9-20.25-13.98Zm60.59,3.43c0-2.21,.13-3.32-.02-4.4-.84-5.92-1.65-11.85-2.67-17.74-.67-3.86,.07-6.98,3-9.82,4.29-4.16,8.31-8.62,12.34-13.04,.76-.83,1.07-2.07,1.59-3.12-.99-.43-1.94-1.06-2.98-1.25-6-1.1-12.01-2.17-18.05-3.1-3.13-.48-5.21-2.02-6.58-4.85-2.71-5.61-5.51-11.17-8.32-16.73-.56-1.12-1.3-2.16-2.34-3.86-3.57,7.13-6.82,13.43-9.86,19.82-1.58,3.33-3.82,5.27-7.61,5.72-4.57,.54-9.1,1.48-13.63,2.32-2.35,.43-4.67,1.02-8.22,1.8,4.16,4.44,7.16,8.48,10.96,11.52,7.16,5.72,8.86,12.51,6.47,21.14-1.29,4.68-1.42,9.69-2.23,15.73,4.69-2.4,8.28-4.26,11.89-6.07,14.77-7.39,9.91-7.56,25.06,.1,3.51,1.77,6.97,3.64,11.17,5.84Z"/>
  <path
    d="M329.52,153.65c-2.33-.8-4.76-1.38-6.97-2.43-4.38-2.09-8.71-4.32-12.91-6.75-2.21-1.28-3.99-1.15-6.15,.06-4.34,2.44-8.81,4.65-13.24,6.95-4.99,2.58-9.9,2.4-14.48-.84-4.68-3.31-6.59-8-5.83-13.69,.72-5.44,1.49-10.87,2.37-16.28,.36-2.26,0-3.97-1.75-5.67-3.58-3.47-6.86-7.25-10.32-10.83-4.27-4.42-5.89-9.54-3.87-15.42,1.98-5.73,6.24-8.74,12.24-9.56,4.56-.63,9.08-1.63,13.64-2.28,2.47-.35,3.9-1.49,4.93-3.79,2.04-4.54,4.41-8.94,6.59-13.42,2.63-5.4,6.85-8.66,12.92-8.63,6.07,.02,10.23,3.36,12.85,8.75,2.28,4.71,4.52,9.44,7.05,14.02,.66,1.19,2.18,2.36,3.51,2.65,5.1,1.13,10.3,1.84,15.44,2.82,11.62,2.2,16.11,14.93,8.33,23.84-3.61,4.13-7.64,7.89-11.18,12.08-1.09,1.29-1.77,3.49-1.62,5.17,.52,5.58,1.58,11.1,2.31,16.66,1.11,8.52-5.39,16.14-13.84,16.59Zm1.13-12.59c-.13-2.1-.13-3.15-.27-4.17-.88-6.42-1.65-12.85-2.75-19.23-.57-3.31,.38-5.78,2.64-8.09,4.44-4.56,8.78-9.2,13.11-13.86,2.32-2.5,2.06-3.37-1.31-4.01-6.24-1.19-12.49-2.3-18.77-3.28-3.01-.47-4.91-2.03-6.22-4.72-2.76-5.71-5.64-11.37-8.51-17.04-.51-1-1.18-1.91-2.2-3.53-3.61,7.24-6.88,13.64-10,20.11-1.48,3.06-3.61,4.8-7.07,5.31-6.03,.88-12.03,2.05-18.02,3.2-3.52,.67-3.75,1.5-1.27,4.16,4.34,4.65,8.93,9.08,12.99,13.96,1.51,1.81,2.68,4.66,2.55,6.94-.34,5.7-1.56,11.34-2.36,17.01-.3,2.1-.41,4.22-.69,7.32,6.55-3.41,12.18-6.03,17.48-9.21,4.57-2.74,8.57-2.87,13.19-.05,5.28,3.22,10.95,5.81,17.47,9.2Z"/>
</svg>
