<svg xmlns="http://www.w3.org/2000/svg" xmlns:xlink="http://www.w3.org/1999/xlink" width="911.283" height="775.677" viewBox="0 0 911 773" style="height: min-content"
     xmlns:v="https://vecta.io/nano">
  <path
    d="M556.413 774.839c-1.476-.665-5.225-2.815-8.331-4.776-4.24-2.678-6.533-3.567-9.198-3.567-4.181 0-7.968-1.523-7.968-3.204 0-.656.652-2.187 1.449-3.403 1.225-1.87 1.261-2.327.23-2.964-.809-.5-1.824-.184-3.022.941-1.933 1.816-4.727 2.214-6.075.865-.527-.527-1.837-.191-3.597.924-2.206 1.396-2.886 2.534-3.345 5.598-.317 2.115-1.027 3.845-1.577 3.845s-2.436-.975-4.191-2.168c-2.655-1.804-4.212-2.168-9.289-2.168-5.627 0-6.13-.151-6.502-1.951-.449-2.173-2.112-17.849-2.852-26.879-.327-3.995-.839-5.853-1.612-5.853-.623 0-1.374.39-1.669.867-1.05 1.7-3.346.812-7.849-3.035-2.512-2.146-5.188-3.902-5.946-3.902-1.056 0-1.379.913-1.379 3.902 0 5.002-1.319 5.078-7.471.433-4.239-3.2-5.019-3.468-10.101-3.468-3.079 0-6.126-.478-6.911-1.084-1.254-.968-13.668-26.702-13.668-28.334 0-.364.786-1.373 1.748-2.243l1.748-1.582-1.87-1.99c-1.893-2.015-1.955-5.219-.234-12.077l.558-2.222-7.451.605c-6.25.507-7.814.367-9.704-.871-2.181-1.429-2.35-1.402-5.292.842-2.747 2.095-3.496 2.261-7.781 1.726-4.558-.57-4.862-.774-7.864-5.295-2.732-4.114-3.48-4.702-5.99-4.702-2.274 0-3.361-.647-5.248-3.12-1.309-1.716-3.317-3.477-4.463-3.912s-2.285-1.563-2.532-2.506-.816-1.487-1.266-1.209c-3.145 1.944-8.276-4.192-5.9-7.054.841-1.013.87-1.83.124-3.467-.92-2.018-1.377-2.142-7.919-2.142h-6.943l-2.236-3.378c-2.124-3.21-2.417-3.356-5.865-2.929-2.564.317-4.774 1.437-7.531 3.815-2.146 1.851-5.395 4.168-7.221 5.149-3.07 1.649-3.799 1.706-9.699.754l-6.38-1.029-7.82 5.739-7.82 5.739-8.06-.54c-6.029-.404-8.499-.937-9.804-2.117-1.701-1.539-1.854-1.493-6.286 1.887-2.698 2.057-4.543 4.14-4.543 5.128 0 2.257-3.077 3.744-6.386 3.087-1.495-.297-6.059-.505-10.141-.463-7.072.073-7.469-.024-8.392-2.05-.797-1.749-.575-3.1 1.249-7.618l2.218-5.492-2.06-3.925c-1.133-2.159-3.507-5.509-5.274-7.446-3.812-4.176-4.412-5.65-5.88-14.435l-1.117-6.684-3.82-.573c-2.965-.445-4.321-1.229-6.056-3.504-2.686-3.521-3.678-3.627-6.431-.684-3.675 3.929-4.586 4.035-8.723 1.013-2.401-1.754-5.211-2.934-7.686-3.229l-3.902-.465-.269-4.743c-.148-2.608-.684-5.243-1.192-5.855-2.203-2.655-3.098-11.466-2.424-23.873.369-6.793.493-12.644.276-13.002s-.909-.65-1.538-.65c-1.839 0-3.324-2.417-2.791-4.541.271-1.079 4.236-5.22 8.811-9.203s8.171-7.689 7.991-8.237c-.512-1.562-5.608-1.683-7.749-.184-1.176.823-3.776 1.355-6.627 1.355-8.492 0-15.909 1.811-18.464 4.509-1.264 1.335-2.862 2.427-3.551 2.427-2.071 0-3.865 2.806-4.376 6.845-.539 4.259-1.568 5.262-5.426 5.281-1.455.007-3.015.369-3.468.803s-3.784 1.06-7.401 1.389l-6.577.599-5.128-4.143-9.47-7.818c-3.797-3.213-4.536-3.532-5.893-2.54-1.982 1.449-4.272.839-6.75-1.799-1.078-1.147-2.609-2.086-3.404-2.086-1.562 0-3.456 3.364-3.456 6.138 0 2.463-2.184 2.967-6.735 1.554-3.255-1.011-4.136-1.744-4.931-4.106-1.185-3.521-2.746-4.466-7.094-4.298-1.843.071-4.553-.385-6.023-1.015-2.548-1.091-2.901-.975-7.59 2.488l-4.917 3.633-9.281-.246-9.281-.246-.698-3.367c-.418-2.014-.357-3.778.151-4.389.599-.722-.8-2.656-4.758-6.579-3.084-3.056-5.607-6.178-5.607-6.937 0-1.753 4.104-5.71 7.893-7.612 2.185-1.096 3.308-2.525 4.476-5.698.858-2.329 1.343-4.452 1.078-4.716s-3.92.178-8.123.984c-10.151 1.946-10.896 1.891-15.296-1.136-2.366-1.628-4.874-2.601-6.703-2.601-1.607 0-3.349-.427-3.87-.949s-3.218-1.4-5.991-1.951c-4.937-.981-5.058-1.075-5.788-4.471-.647-3.01.202-10.065 1.674-13.902.189-.493-3.177-2.621-7.481-4.731S0 476.154 0 475.688s3.063-5.585 6.806-11.376l6.806-10.529-3.425-6.807c-4.155-8.258-5.895-13.708-4.886-15.3 1.231-1.943.906-2.868-2.351-6.672-3.266-3.816-3.422-6.205-.406-6.205.952 0 3.144-1.241 4.871-2.757 3.033-2.663 3.287-2.727 7.459-1.872 5.47 1.12 8.031-.528 8.858-5.704.304-1.899 1.308-4.74 2.231-6.314s1.942-4.863 2.262-7.308c.566-4.322.506-4.491-2.171-6.07-2.426-1.431-2.692-1.954-2.235-4.395.415-2.218.166-2.96-1.246-3.716-2.3-1.231-2.225-2.283.403-5.729 1.211-1.587 2.168-4.003 2.168-5.471 0-1.711.585-2.942 1.677-3.526 2.146-1.149 5.863-1.158 6.569-.017.784 1.269 2.159.165 2.159-1.733 0-.889.975-2.776 2.168-4.193s2.168-3.414 2.168-4.439 1.773-3.758 3.94-6.075c3.247-3.471 3.841-4.605 3.38-6.444-.389-1.55-.021-2.967 1.206-4.638l1.766-2.407-2.638-2.739c-2.482-2.576-2.577-2.923-1.616-5.836 1.264-3.83.6-5.23-1.856-3.916-2.171 1.162-2.562.785-7.563-7.297-4.876-7.88-4.623-8.765 2.521-8.8l5.629-.027.434-3.634c.454-3.809 4.806-9.806 7.116-9.806.657 0 2.917 1.756 5.023 3.902 2.666 2.717 4.541 3.902 6.172 3.902 2.754 0 8.265-4.215 16.372-12.522 3.1-3.176 7.239-6.489 9.198-7.362 4.52-2.014 14.644-4.569 18.083-4.564 4.483.007 10.926 3.1 20.5 9.843 6.265 4.413 11.653 7.4 16.908 9.374 8.016 3.012 27.147 13.251 32.424 17.354a122.37 122.37 0 0 0 6.675 4.742l3.641 2.383 4.041-2.904c3.789-2.722 4.552-2.923 12.219-3.205 7.753-.286 8.254-.421 9.64-2.601 2.091-3.289 2.709-3.572 7.84-3.587 4.437-.013 4.867.207 11.871 6.056 3.997 3.338 7.985 6.07 8.863 6.07s3.913 2.341 6.744 5.202 5.91 5.202 6.841 5.202 2.399.639 3.262 1.42c1.286 1.163 1.81 1.221 2.897.319 1.005-.834 1.091-1.387.351-2.279-.754-.909-.214-2.393 2.374-6.517 4.905-7.817 5.07-7.853 12.525-2.667 4.762 3.312 6.649 4.196 7.484 3.502 1.703-1.413 1.371-2.538-1.678-5.683-2.284-2.357-2.621-3.162-1.843-4.407.786-1.259.195-2.47-3.394-6.96-2.855-3.572-4.781-5.268-5.617-4.948-1.686.647-11.439-6.473-11.471-8.375-.017-1.014.939-1.659 3.044-2.054 2.423-.455 3.425-1.273 4.757-3.882.928-1.819 2.083-3.551 2.566-3.85s.879-1.321.879-2.271c0-1.147.998-2.144 2.972-2.969 4.547-1.9 5.045-6.407.713-6.46-1.324-.016-1.404-2.13-.169-4.438 1.465-2.737.233-4.974-2.908-5.278l-2.776-.269v-5.636-5.636l4.25-2.182c4.129-2.12 5.089-3.112 6.065-6.272.331-1.07 1.371-1.517 3.531-1.517 2.698 0 3.062-.261 3.062-2.195 0-2.5 1.65-3.434 4.709-2.667 1.83.459 2.176 1.177 2.66 5.513.624 5.583 1.979 9.754 3.17 9.754 1.748 0 9.402-4.436 9.376-5.434-.015-.588-.6-1.827-1.301-2.752-2.395-3.166-1.607-11.278 2.195-22.595 1.908-5.678 3.468-11.592 3.468-13.143 0-2.575-.281-2.87-3.252-3.406-5.345-.965-6.286-1.79-6.286-5.508 0-3.251 4.864-18.59 7.575-23.887 3.402-6.647 10.688-12.571 15.473-12.579 2.187 0 3.208-.748 5.636-4.109 1.631-2.257 4.185-7.021 5.675-10.586s3.118-6.617 3.617-6.783 8.058 2.594 16.799 6.133 17.221 6.686 18.845 6.991c4.016.756 5.284 2.003 5.292 5.204.005 2.24.594 3.047 3.383 4.639l3.376 1.928 7.54-8.214c4.147-4.518 7.888-8.214 8.314-8.214s3.581 1.799 7.012 3.999l6.238 3.999 2.467-2.915c1.357-1.603 3.205-4.281 4.107-5.95s6.158-7.78 11.679-13.58 10.04-10.728 10.04-10.95-3.117-1.692-6.926-3.264c-6.486-2.678-6.963-3.054-7.5-5.918-.459-2.445-.254-3.24 1.022-3.965.878-.499 2.463-1.732 3.522-2.742 1.844-1.757 1.905-2.291 1.443-12.573-.266-5.906-.87-10.989-1.344-11.296s-2.359-.798-4.191-1.091-6.362-2.343-10.069-4.556c-9.421-5.626-9.367-5.561-7.574-9.029 2.097-4.056.613-10.24-3.569-14.869-2.982-3.301-3.057-3.553-2.477-8.327.329-2.708 1.128-5.964 1.774-7.236 1.009-1.985.979-2.783-.207-5.622-.76-1.82-2.119-3.825-3.02-4.456-1.259-.882-1.638-2.221-1.638-5.787 0-4.47-.159-4.782-4.335-8.537-2.384-2.144-4.335-4.317-4.335-4.83s1.057-3.087 2.348-5.72L399.216 0h10.069 10.069l8.053 7.452c7.649 7.079 8.211 7.428 11.211 6.971l10.39-1.424 7.232-.943 4.644 3.823c3.319 2.733 21.618 23.389 23.346 26.355.402.689 13.312 2.046 15.51 1.631 1.502-.284 7.218-3.059 12.703-6.167 13.319-7.548 13.18-7.525 17.812-2.978 5.638 5.533 10.801 20.314 10.801 30.922 0 2.506.863 3.991 4.769 8.21 3.766 4.067 4.769 5.75 4.769 7.997 0 3.198 2.395 4.859 7.005 4.859 3.64 0 7.474 1.774 13.635 6.309 9.303 6.848 25.404 21.751 27.142 25.122 1.885 3.656 2.382 3.81 6.094 1.891 1.64-.848 4.31-1.272 7.083-1.125 4.302.228 4.469.151 4.988-2.324.295-1.408 1.904-5.507 3.577-9.109l3.04-6.548 7.289-2.375c6.006-1.957 9.426-3.907 19.428-11.08l13.515-9.457c.843-.461 3.36-.238 6.503.576 3.822.99 5.946 2.174 8.342 4.652 3.469 3.587 5.425 3.774 8.135.78 1.19-1.315 2.697-1.648 7.453-1.648 5.71 0 6.072.126 8.584 2.987 1.781 2.028 4.09 3.414 7.191 4.315 6.569 1.91 9.452 5.981 6.398 9.035-.857.857-.816 1.238.205 1.869 1.069.66 1.106 1.256.228 3.583-1.366 3.62-.197 5.091 4.048 5.091 2.497 0 3.819.647 6.073 2.972l2.881 2.972-1.905 3.082c-2.106 3.408-1.785 4.841 1.087 4.859 1.045.007 2.808.255 3.919.552 1.771.474 1.984.987 1.734 4.166-.187 2.382.288 4.692 1.385 6.735 1.425 2.653 1.552 3.831.867 8.023l-.803 4.913-6.045 2.54c-4.621 1.941-7.393 2.539-11.771 2.539-5.052 0-5.974.266-7.829 2.257-1.156 1.241-5.419 3.94-9.472 5.998-10.643 5.402-10.835 5.584-9.669 9.16.531 1.629 1.351 5.694 1.822 9.032.505 3.575 2.209 9.099 4.147 13.44 4.061 9.096 4.341 9.538 6.04 9.538.754 0 3.11.869 5.236 1.93 4.69 2.342 8.031 8.116 8.031 13.88 0 3.174.574 4.385 3.855 8.136 3.98 4.55 7.123 10.726 9.104 17.89 1.181 4.269 1.898 4.69 5.598 3.284 3.003-1.142 6.816 2.117 8.869 7.579 2.245 5.975 6.794 11.04 11.772 13.109 4.899 2.036 4.995 1.423-1.833 11.704-3.804 5.728-3.898 6.019-2.242 6.937 3.11 1.724 8.345 7.787 11.571 13.401l3.164 5.506 3.99-.465c3.844-.448 4.137-.315 8.02 3.628 3.486 3.54 4.031 4.576 4.031 7.677 0 3.161.358 3.806 3.035 5.46 1.669 1.032 3.035 2.383 3.035 3.003s-1.391 2.188-3.091 3.484c-2.845 2.17-2.983 2.476-1.734 3.856.746.824 1.356 1.793 1.356 2.152 0 1.788-6.978 8.813-11.021 11.095-5.054 2.852-5.343 3.723-3.66 11.023.873 3.789.842 3.873-2.803 7.587-2.027 2.066-4.338 3.756-5.135 3.756s-4.766-2.899-8.819-6.443l-7.37-6.443-1.525 3.383c-.839 1.861-2.252 4.04-3.139 4.843-2.497 2.259-2.008 2.689 3.515 3.089 2.821.204 5.754.889 6.517 1.522 1.253 1.04 1.166 1.44-.901 4.151-1.934 2.536-2.209 3.577-1.776 6.736.6 4.374.263 4.732-6.369 6.769-4.521 1.389-5.057 1.875-10.319 9.361-3.778 5.375-6.347 8.174-8.048 8.767-3.413 1.19-2.163 2.532 6.333 6.804 6.59 3.313 6.825 3.362 13.728 2.829 7.172-.553 9.321-.175 23.018 4.048 2.861.882 7.066 1.824 9.343 2.092 3.288.388 5.169 1.345 9.141 4.65 2.75 2.289 7.618 5.693 10.817 7.564l5.816 3.402v4.038c0 7.779 5.09 10.948 12.491 7.776 2.979-1.277 6.009-1.769 10.889-1.769 6.709 0 6.78-.024 9.077-3.035l2.315-3.035h7.845 7.845l-7.889-6.097c-4.339-3.353-7.889-6.311-7.889-6.572s3.377-5.09 7.505-10.731l7.505-10.255 8.753-.967c4.814-.532 10.899-1.394 13.522-1.916 9.085-1.809 8.909-1.883 10.259 4.319l1.198 5.499-2.791 2.88c-1.553 1.602-2.521 3.316-2.183 3.864.449.726.942.707 1.881-.072 1.56-1.295 1.436-1.414 17.153 16.58 6.456 7.392 11.745 14.095 11.753 14.895.01 1.063-1.293 1.748-4.842 2.542-2.671.598-5.04 1.563-5.263 2.146-.525 1.367 2.636 7.548 6.345 12.407 4.371 5.727 4.001 7.9-2.394 14.06-2.916 2.809-6.088 5.107-7.05 5.107-1.535 0-1.686.398-1.233 3.252.398 2.507 1.565 4.188 5.099 7.343 2.521 2.25 5.278 4.103 6.128 4.119 2.215.04 2.786 2.333 1.142 4.592-7.165 9.85-7.239 10.042-7.78 20.147-.329 6.151 0 14.8.921 24.354.787 8.149 1.183 15.465.879 16.258-.388 1.01-1.587 1.441-4.007 1.441-3.108 0-3.718.383-6.089 3.831-2.091 3.039-2.523 4.393-2.092 6.55.445 2.223.097 3.185-1.904 5.274-2.443 2.55-2.467 2.555-12.907 2.569l-10.459.014-8.394 8.007-8.394 8.007-.526 6.069c-1.39 16.043-1.39 16.041-3.7 17.555-2.17 1.422-2.231 1.392-6.197-3.036-3.655-4.081-4.366-4.491-8.133-4.685l-4.129-.213-4.754 6.591c-5.549 7.695-7.079 8.464-17.886 8.997l-7.486.369-3.136-3.471c-3.302-3.655-3.723-4.735-2.212-5.669 1.845-1.14-1.911-3.867-5.326-3.867-2.96 0-3.36.283-4.262 3.015-.547 1.658-.87 4.682-.718 6.72l.278 3.705-3.685.267c-3.551.257-3.685.373-3.685 3.179 0 2.147-.6 3.35-2.284 4.576l-2.284 1.664 4.142 11.01 4.142 11.01-2.075 2.209c-2.034 2.165-2.042 2.233-.392 3.44.926.677 2.146 1.231 2.712 1.231 2.371 0 2.786 2.156 1.335 6.937l-1.448 4.769-4.525.262c-4.265.247-4.527.397-4.551 2.601-.016 1.427-1.284 3.794-3.252 6.069-2.927 3.384-3.942 3.91-10.954 5.672l-7.728 1.942-.076 4.3c-.074 4.195-.144 4.306-2.882 4.57-2.75.265-2.802.35-2.601 4.24l.205 3.969-6.07 3.726c-3.338 2.049-8.696 4.556-11.905 5.57s-6.054 2.197-6.32 2.628-.084 4.601.405 9.266c.851 8.108.81 8.548-.923 9.994-.997.832-2.26 1.23-2.807.883s-2.554-.637-4.462-.646c-3.339-.015-3.496-.146-4.221-3.485-1.351-6.227-1.371-6.254-2.986-4.164-1.253 1.621-2.653 1.979-9.721 2.483l-8.257.589-3.963-5.957c-2.18-3.276-7.391-9.664-11.581-14.194s-8.595-9.7-9.789-11.489-2.412-3.243-2.706-3.233-3.394 4.865-6.889 10.788-6.892 11.216-7.549 11.762c-1.372 1.139-1.142 1.257-10.533-5.4-3.902-2.766-7.342-5.029-7.645-5.029s-1.793.937-3.311 2.082-4.223 2.686-6.012 3.424c-3.202 1.321-3.252 1.415-3.252 6.122 0 4.584-.2 5.004-4.882 10.232-2.685 2.999-5.751 6.82-6.813 8.491s-2.919 3.568-4.127 4.214-2.62 2.107-3.139 3.247c-1.159 2.543-1.029 2.543-8.548-.015l-6.136-2.087-2.445 2.553c-1.345 1.404-3.315 2.771-4.378 3.038-1.638.411-1.972 1.165-2.192 4.947-.227 3.904-.56 4.605-2.666 5.611-3.709 1.771-7.728 2.036-10.681.705zm7.323-3.225c2.567-.895 2.731-1.209 2.731-5.247 0-4.024.178-4.369 2.818-5.48 1.55-.652 3.964-2.388 5.365-3.858 2.989-3.136 3.833-3.218 10.293-.995l4.874 1.677 2.723-2.544c1.498-1.399 2.988-2.544 3.312-2.544s1.297-1.2 2.164-2.667 3.688-5.034 6.27-7.928c4.535-5.083 4.679-5.397 4.225-9.255-.551-4.695.937-6.992 5.58-8.611 1.62-.565 4.222-2 5.782-3.191 4.285-3.268 6.631-2.803 14.591 2.891l7.067 5.055 7.339-12.405c4.036-6.823 7.795-12.414 8.353-12.425s2.943 2.614 5.3 5.833 7.391 9.169 11.186 13.223 8.573 9.849 10.617 12.879c3.469 5.142 3.891 5.474 6.333 4.986 1.439-.288 4.118-.523 5.954-.523 2.832 0 3.542-.394 4.683-2.601.74-1.431 1.847-2.601 2.461-2.601 1.83 0 5.549 4.561 6.187 7.587.437 2.075 1.065 2.818 2.38 2.818 1.637 0 1.747-.38 1.313-4.552-.26-2.504-1.894-7.778-3.629-11.72-3.038-6.9-5.382-13.064-12.759-33.556-1.883-5.23-3.757-9.912-4.165-10.405s-.752-4.213-.764-8.266c-.022-7.602-1.03-13.668-3.089-18.597-1.656-3.965-7.79-9.371-12.075-10.645-1.984-.589-5.752-2.441-8.375-4.114s-6.416-3.808-8.43-4.745c-10.928-5.082-23.363-17.323-35.663-35.107-6.17-8.92-7.36-12.328-9.71-27.807l-1.711-11.272-5.085-7.37c-4.583-6.642-5.704-7.695-11.348-10.658-9.709-5.096-20.898-12.957-26.539-18.643-4.527-4.564-5.579-6.327-8.96-15.031-2.107-5.423-7.179-16.696-11.272-25.05l-10.815-22.391c-6.01-12.829-14.225-19.507-28.468-23.144-2.994-.764-8.759-2.436-12.813-3.715-6.767-2.135-8.54-2.324-21.677-2.307-12.086.015-15.412.319-21.428 1.961-3.917 1.069-8.599 2.8-10.405 3.848-3.903 2.264-19.706 13.888-22.793 16.766-2.282 2.127-8.499 5.794-16.474 9.718-3.83 1.884-6.279 2.409-12.436 2.665-7.199.3-7.992.154-13.006-2.405-4.568-2.331-5.995-3.691-9.879-9.41-4.803-7.074-10.833-20.061-12.482-26.88-1.303-5.389-2.989-8.07-10.973-17.447-4.735-5.56-7.401-9.622-9.126-13.898-2.923-7.248-9.903-14.344-15.062-15.312-4.244-.796-11.002 1.442-17.544 5.811-5.894 3.936-7.13 6.072-11.027 19.055-2.116 7.052-2.802 8.238-7.609 13.163-6.306 6.46-7.895 6.994-25.351 8.516l-12.265 1.07-3.991-2.339c-6.419-3.762-15.106-15.271-17.419-23.078a57.23 57.23 0 0 0-1.732-4.769c-.599-1.431-2.528-8.822-4.286-16.424-3.577-15.467-13.146-42.923-17.184-49.305-3.116-4.925-5.916-7.159-14.099-11.251-3.338-1.669-8.411-4.76-11.272-6.868-9.093-6.699-23.858-14.703-35.764-19.387-4.433-1.744-10.528-5.227-16.041-9.168-4.89-3.495-10.776-6.995-13.079-7.778-3.91-1.329-4.631-1.323-10.838.088-9.66 2.195-10.961 2.968-20.575 12.212-4.798 4.613-10.031 9.064-11.63 9.89-4.252 2.199-8.816 1.321-13.056-2.51-1.896-1.713-3.758-3.114-4.138-3.114-1.646 0-2.772 2.347-2.772 5.779 0 4.352-1.447 5.493-6.968 5.493h-3.613l2.197 3.685c1.75 2.936 2.631 3.637 4.331 3.45 2.648-.292 7.071 4.481 6.156 6.643-1.542 3.64-1.307 4.947 1.303 7.273 3.142 2.8 3.157 2.899.93 6.262-.948 1.431-1.725 3.856-1.728 5.39-.005 2.072-1.009 3.919-3.908 7.182-2.241 2.524-3.902 5.25-3.902 6.405 0 1.107-.975 3.065-2.168 4.351s-2.168 3.056-2.168 3.932-.749 2.515-1.665 3.64c-1.632 2.006-1.717 2.017-4.252.53-3.323-1.949-3.616-1.915-3.639.433-.011 1.073-.782 2.926-1.715 4.119-2.149 2.747-2.152 3.657-.02 4.989 1.446.903 1.574 1.441.816 3.434-.787 2.069-.623 2.564 1.32 3.979 1.737 1.265 2.219 2.365 2.219 5.062 0 4.31-1.629 11.165-3.063 12.884-.596.715-1.356 2.958-1.688 4.983-.468 2.856-1.406 4.369-4.179 6.743-2.244 1.921-4.072 2.853-4.91 2.504-4.765-1.985-6.648-1.85-9.484.684l-2.823 2.522 2.234 2.93c2.347 3.077 2.82 5.182 1.367 6.08-1.606.993-.887 3.582 3.468 12.487 2.384 4.876 4.335 9.297 4.335 9.825s-2.517 4.908-5.593 9.733-5.815 9.352-6.086 10.059c-.357.93 1.322 2.184 6.057 4.527 3.602 1.783 6.794 3.876 7.091 4.652s-.052 3.892-.778 6.924c-1.832 7.655-1.308 9.687 2.658 10.318 1.735.276 3.832.871 4.66 1.322s2.7.82 4.16.82c1.562 0 4.645 1.273 7.49 3.093l4.835 3.093 7.786-1.665c9.596-2.052 13.123-1.576 13.518 1.824.656 5.639-4.958 15.332-8.88 15.332-.605 0-1.819.794-2.697 1.765-1.573 1.738-1.506 1.858 4.404 7.813 5.373 5.415 5.889 6.227 4.932 7.761-2.344 3.753-1.547 4.338 5.909 4.338 6.779 0 7.124-.102 12.047-3.574 4.502-3.175 5.441-3.51 8.412-3.006l8.113 1.271c6.566.967 7.572 1.546 8.716 5.013.553 1.676 1.809 3.319 2.823 3.694 1.574.582 2.088.113 3.714-3.397 2.822-6.091 6.474-6.911 10.688-2.401 2.073 2.218 2.841 2.579 3.686 1.734 2.101-2.101 4.392-.957 13.546 6.764l9.285 7.831 5.202-.558c2.861-.307 5.594-.872 6.073-1.257s2.235-.829 3.902-.987c2.856-.271 3.047-.489 3.307-3.756.303-3.824 3.715-8.237 6.368-8.237.852 0 2.128-1.118 2.835-2.485 1.304-2.522 4.038-3.584 9.221-3.584 1.343 0 2.683-.39 2.978-.867s3.416-.867 6.937-.867 6.642-.39 6.937-.867 2.606-.867 5.137-.867c4.812 0 9.17 2.288 9.17 4.814 0 .671-4.096 4.837-9.103 9.258s-9.103 8.34-9.104 8.71.99 1.049 2.202 1.51l2.204.838-.503 10.196c-.276 5.608-.684 11.636-.905 13.396-.51 4.058 1.101 11.752 3.052 14.575 1.014 1.468 1.368 3.217 1.097 5.419-.381 3.092-.28 3.252 2.078 3.255 1.364 0 4.208 1.151 6.322 2.553l3.842 2.549 2.893-2.54c1.591-1.397 3.927-2.8 5.189-3.117 1.939-.487 2.779-.029 5.403 2.944 2.549 2.888 3.847 3.622 7.226 4.085 3.988.547 4.119.657 4.119 3.49 0 1.609.589 5.723 1.308 9.143 1.044 4.965 1.984 6.987 4.664 10.031 1.846 2.097 4.461 5.923 5.811 8.502l2.455 4.689-1.686 5.063-1.994 6.217c-.24.9 1.187 1.111 6.489.961 3.738-.106 7.668.101 8.732.46 1.578.533 2.091.244 2.779-1.566.464-1.221 1.814-2.855 2.999-3.632s3.572-2.748 5.303-4.381c3.709-3.498 4.409-3.598 7.153-1.021 1.704 1.601 3.278 2.002 8.834 2.255l6.761.307 6.531-4.83c3.592-2.657 6.692-5.314 6.889-5.904.284-.851 1.831-.835 7.429.074 3.889.632 7.999.915 9.134.63s4.476-2.671 7.425-5.302c5.331-4.756 5.394-4.784 10.978-4.784 5.407 0 5.679.105 7.325 2.818 1.66 2.737 1.912 2.83 8.806 3.252l7.097.434 2.594 4.228c2.139 3.487 2.417 4.51 1.586 5.841-1.431 2.291-1.365 2.37 2.244 2.668 2.589.214 3.307.658 3.523 2.179.149 1.05 1.017 2.147 1.928 2.436s2.474 1.673 3.472 3.076c1.399 1.965 2.491 2.55 4.759 2.55 2.627 0 3.323.559 6.476 5.202 3.343 4.923 3.722 5.202 7.05 5.202 2.797 0 3.611-.358 3.974-1.748.251-.961.898-1.68 1.436-1.597s1.659-.146 2.489-.51c.954-.417 2.58-.029 4.417 1.055 2.589 1.527 3.739 1.639 10.511 1.022 4.182-.381 8.128-.492 8.769-.246 1.193.458 1.147 1.268-.578 10.181-.805 4.158-.759 4.31 2.014 6.642l2.838 2.386-2.485 2.615-2.485 2.615 5.35 11.553c2.943 6.354 6.012 12.07 6.821 12.702 1.008.787 2.784.98 5.649.612 3.81-.489 4.552-.268 8.4 2.496l4.221 3.033.271-2.302c.174-1.484 1.21-2.848 2.914-3.84l2.644-1.538 5.16 4.291c5.595 4.653 6.556 5.009 8.195 3.035.594-.715 1.983-1.301 3.088-1.301 2.295 0 2.031-1.303 4.44 21.894l1.508 14.524h5.051c3.18 0 5.839.516 7.179 1.395 2.276 1.491 2.188 1.564 3.477-2.844.163-.559 2.101-2.073 4.307-3.366 3.274-1.919 4.375-2.183 6.003-1.441s2.328.574 3.805-.903c1.631-1.631 2.151-1.709 5.219-.79 5.099 1.528 6.05 3.105 3.75 6.217-1.029 1.391-1.87 2.741-1.87 2.998s1.89.469 4.201.469c3.434 0 5.188.638 9.607 3.494 4.777 3.088 9.9 5.766 11.425 5.973.286.039 1.75-.358 3.252-.881zm155.907-46.534c1.355-.517 4.414-1.586 6.799-2.377s6.091-2.509 8.237-3.82c3.851-2.352 3.902-2.444 3.902-7.082 0-4.365.154-4.718 2.168-4.959 4.556-.545 4.866-1.132 1.517-2.867-6.18-3.201-4.867-4.079 12.674-8.478 8.131-2.039 11.726-5.282 11.786-10.631.04-3.57.985-4.211 6.204-4.211 2.757 0 3.568-.381 4.159-1.951.544-1.446.369-2.15-.678-2.72-2.59-1.41-5.314-4.287-5.314-5.613 0-.721.822-2.185 1.827-3.255l1.827-1.945-3.995-10.563c-2.197-5.81-3.995-10.951-3.995-11.426s.954-1.613 2.119-2.53c1.534-1.207 2.192-2.678 2.384-5.327.265-3.651.276-3.661 4.023-3.931 3.085-.222 3.659-.527 3.206-1.706-.303-.79.113-3.887.923-6.883l1.474-5.447h6.271c6.154 0 6.315.057 8.596 3.048 1.341 1.758 2.13 3.684 1.864 4.552-.254.827.227 2.403 1.068 3.501 1.334 1.742 1.843 1.878 3.982 1.065 1.349-.513 3.673-.72 5.164-.46 5.141.897 7.594-.565 13.2-7.861l5.286-6.88 6.419.207c6.368.206 6.443.236 9.445 3.8l3.025 3.593.981-9.918c.54-5.455 1.273-10.677 1.63-11.604s4.464-5.295 9.127-9.706l8.478-8.02h10.821c12.105 0 12.972-.376 12.629-5.473-.154-2.285.6-4.261 3.01-7.892 2.864-4.314 3.541-4.843 6.191-4.843 1.636 0 3.138-.293 3.337-.65s-.337-7.462-1.193-15.788c-1.116-10.859-1.326-16.345-.745-19.411.446-2.35.81-6.485.81-9.188 0-3.934.502-5.706 2.516-8.882 1.384-2.182 2.938-4.229 3.454-4.547.551-.34-1.292-2.564-4.467-5.392-2.973-2.647-5.659-5.261-5.969-5.811s-.847-3.666-1.193-6.927l-.629-5.929 3.134.27c2.748.237 3.663-.252 7.435-3.966 4.761-4.689 4.761-4.781.081-10.892-2.843-3.711-7.471-14.519-6.596-15.401.35-.352 2.74-1.227 5.311-1.944l4.676-1.304-11.271-12.76c-10.305-11.665-11.476-12.719-13.654-12.283-2.077.415-2.575.074-3.877-2.657-1.96-4.11-1.94-4.241 1.18-7.795 2.218-2.527 2.574-3.503 2.085-5.727-.449-2.042-.931-2.546-2.024-2.113-.789.313-2.606.71-4.036.882l-11.526 1.372-8.925 1.058-5.437 7.442-6.06 8.488c-.403.676 2.305 3.248 7.641 7.259 4.546 3.417 8.265 6.622 8.265 7.123s-.646 1.623-1.435 2.496c-1.21 1.337-2.81 1.586-10.218 1.586h-8.783l-1.537 2.601c-1.499 2.538-1.702 2.601-8.321 2.601-5.167 0-8.192.53-12.689 2.222-5.702 2.146-6.029 2.175-9.55.83-4.798-1.832-8.452-7.084-7.727-11.105.485-2.69.284-2.919-5.819-6.618-3.477-2.107-7.935-5.293-9.906-7.078-2.959-2.68-4.472-3.356-8.671-3.872-2.798-.344-6.062-.997-7.254-1.452-8.938-3.411-16.293-4.782-23.449-4.37-7.309.42-7.504.378-14.479-3.129-7.957-4.001-13.229-8.196-13.229-10.527 0-1.139 1.119-1.852 4.119-2.623 3.853-.991 4.482-1.583 9.755-9.194 5.461-7.883 5.787-8.178 10.524-9.541l4.888-1.406-.452-3.373c-.324-2.418-.044-3.824.99-4.966 1.376-1.521 1.257-1.619-2.605-2.148-2.226-.305-5.122-.555-6.435-.555-3.619 0-3.804-2.191-.496-5.872 1.597-1.778 4.13-5.671 5.629-8.651s3.258-5.419 3.91-5.419 4.64 3.119 8.863 6.932l7.678 6.932 2.364-2.38c2.343-2.358 2.355-2.432 1.36-8.194-1.181-6.84-.635-7.834 6.055-11.032 4.926-2.354 8.75-6.615 7.268-8.098-1.62-1.62-1.118-4.299 1.274-6.796 2.251-2.35 2.252-2.356.434-3.329-1.395-.746-1.822-1.806-1.822-4.515 0-2.748-.621-4.245-2.773-6.689-2.56-2.907-3.141-3.149-7.57-3.149h-4.797l-2.203-4.054c-4.265-7.847-8.99-13.527-12.788-15.375-2.027-.986-3.685-2.4-3.685-3.143s1.969-4.268 4.375-7.834c4.166-6.174 4.706-8.179 2.203-8.179-1.951 0-9.739-9.011-10.89-12.6-1.644-5.125-4.035-7.422-6.679-6.417-5.155 1.96-6.156 1.291-8.184-5.477-2.489-8.306-5.026-13.224-9.348-18.125-2.905-3.294-3.559-4.674-3.559-7.515 0-5.578-2.816-11.065-6.671-12.996-1.815-.91-4.378-1.913-5.695-2.229-1.894-.455-2.906-1.705-4.839-5.976-4.4-9.721-6.072-14.852-6.678-20.493-.328-3.055-1.137-6.847-1.797-8.426-2.191-5.244-1.853-5.71 7.475-10.299 4.983-2.452 10.039-5.666 11.882-7.552 3.119-3.194 3.377-3.284 9.387-3.284 4.53 0 7.55-.557 11.313-2.088 4.561-1.856 5.215-2.433 5.865-5.184.595-2.516.375-3.675-1.177-6.185-1.239-2.005-1.777-3.992-1.532-5.661.344-2.346.094-2.648-2.86-3.443-1.78-.479-4.137-1.6-5.237-2.491l-2-1.619 2.303-3.481c2.194-3.315 2.23-3.547.766-4.872-.891-.806-3.049-1.392-5.132-1.392-3.136 0-3.77-.34-4.972-2.665-.875-1.691-1.174-3.592-.82-5.203.412-1.876.2-2.676-.812-3.064-1.865-.715-1.72-2.023.483-4.368l1.852-1.972-2.069-.842c-1.138-.463-3.166-1.078-4.506-1.366s-4.099-2.185-6.13-4.216c-3.422-3.422-3.975-3.668-7.534-3.348-2.183.196-4.63 1.07-5.668 2.023-1.005.923-3.19 1.899-4.857 2.169-2.711.44-3.451.083-7.02-3.385-2.93-2.848-4.94-4.029-7.572-4.45-3.485-.557-3.93-.325-16.374 8.527-10.152 7.222-14.208 9.57-19.653 11.381l-6.861 2.282-2.833 6.199c-1.558 3.409-2.832 6.979-2.831 7.933 0 3.419-1.344 4.183-8.352 4.73-3.736.292-7.646 1.005-8.687 1.585-3.148 1.752-4.433 1.229-6.767-2.752-3.581-6.11-28.028-27.684-34.26-30.232-1.192-.488-4.238-1.192-6.768-1.564-6.719-.99-8.84-2.658-8.84-6.956 0-3.008-.606-4.141-4.309-8.056-4.266-4.511-4.317-4.632-5.191-12.345-1.386-12.235-4.181-19.856-8.975-24.472l-3.003-2.892-2.837 1.467c-1.56.807-5.352 3.007-8.427 4.889s-7.709 4.214-10.298 5.183c-4.697 1.757-8.426 1.642-19.098-.59-1.085-.227-6.073-5.424-11.822-12.317-12.98-15.564-15.464-17.56-21.844-17.56-2.701 0-6.021.599-7.467 1.347-1.893.979-3.714 1.18-6.664.738-3.35-.502-4.744-1.336-7.974-4.765-2.153-2.286-5.61-5.544-7.682-7.241-3.677-3.012-3.947-3.085-11.328-3.085h-7.561l-1.482 3.108-1.482 3.108 4.356 4.09c4.135 3.882 4.356 4.316 4.356 8.547 0 2.451.411 4.711.913 5.021s1.861 2.707 3.019 5.327c1.951 4.412 2.01 4.947.806 7.275-.715 1.382-1.543 4.289-1.841 6.459-.488 3.558-.263 4.292 2.284 7.462 3.679 4.578 5.752 12.129 4.296 15.645-.573 1.382-.891 2.65-.708 2.817 2.604 2.367 12.801 7.372 16.808 8.249 2.861.626 5.489 1.579 5.839 2.118s.643 6.694.65 13.679l.013 12.7-3.141 2.758c-1.778 1.561-2.813 3.083-2.384 3.506.416.412 3.878 2.076 7.693 3.699 5.157 2.193 7.005 3.413 7.205 4.754.196 1.319-2.873 5.059-11.421 13.921-6.429 6.665-12.348 13.425-13.153 15.024-1.614 3.205-7.225 9.41-8.509 9.41-.448 0-3.285-1.561-6.306-3.468s-5.802-3.468-6.182-3.468-3.999 3.343-8.042 7.43c-9.305 9.405-9.981 9.793-12.181 6.996-.935-1.189-3.096-2.622-4.803-3.185-2.933-.968-3.086-1.206-2.787-4.339.303-3.181.194-3.338-2.7-3.881-1.659-.311-9.63-3.267-17.713-6.569s-14.764-5.903-14.847-5.779-1.079 2.565-2.214 5.426-3.83 7.641-5.988 10.622c-3.644 5.033-4.163 5.419-7.269 5.419-1.992 0-4.364.726-5.865 1.795-2.76 1.965-6.88 7.001-7.186 8.785-.106.619-.802 2.297-1.546 3.728-2.351 4.523-5.188 14.152-4.9 16.63.216 1.86.849 2.501 2.879 2.915 7.728 1.576 8.054 3.667 3.035 19.474-3.468 10.921-4.61 20.436-2.601 21.677.477.295.867 2.243.867 4.329v3.793l-5.853 3.12c-8.823 4.704-9.496 4.75-11.189.776-.784-1.841-1.674-4.517-1.978-5.948-.489-2.305-.943-2.627-3.989-2.831-3.101-.207-3.569.041-4.783 2.535-1.361 2.796-1.941 3.256-6.241 4.953-1.867.737-2.384 1.509-2.384 3.561 0 2.066.377 2.62 1.783 2.62 2.419 0 5.644 7.002 4.343 9.432-.713 1.332-.553 1.735.831 2.097 3.775.987 1.26 11.155-3.025 12.231-1.209.303-2.198.887-2.198 1.297 0 1.129-5.928 10.737-7.054 11.433-1.449.896 2.422 2.74 4.42 2.106 2.408-.764 13.241 12.74 12.892 16.07-.183 1.749.464 2.942 2.551 4.698 1.539 1.295 2.797 2.946 2.797 3.669 0 1.974-5.138 8.069-6.793 8.059-.794-.007-3.953-1.761-7.018-3.902s-5.862-3.892-6.216-3.892-1.469 1.338-2.479 2.972c-1.277 2.066-1.662 3.67-1.263 5.259 1.026 4.087-6.695 9.829-8.749 6.506-.296-.479-1.437-.645-2.536-.369-1.652.415-2.957-.559-7.534-5.624-3.279-3.628-6.243-6.137-7.27-6.153-.954-.015-5.246-2.964-9.538-6.554-7.261-6.073-8.015-6.488-10.838-5.973-1.669.304-3.055.616-3.08.693s-.687 1.166-1.47 2.421c-1.354 2.169-1.847 2.299-10.002 2.626-6.248.251-9.204.755-10.886 1.857-1.269.832-2.295 1.796-2.28 2.143s2.358 2.1 5.204 3.896c2.867 1.809 6.505 5.097 8.155 7.37 3.909 5.385 14.238 33.891 18.296 50.493 5.628 23.028 7.892 28.839 13.888 35.644 6.884 7.813 7.413 8.009 20.154 7.479 19.281-.802 23.118-3.506 29.364-20.691l4.353-12.209c1.194-3.895 16.335-12.698 23.165-13.467 9.432-1.063 18.693 5.827 24.895 18.522 1.915 3.92 5.451 9.402 7.858 12.183 7.598 8.777 8.043 9.354 9.927 12.878 1.015 1.897 2.11 4.94 2.435 6.76.518 2.905 3.365 10.617 5.821 15.765 3.845 8.06 8.809 14.375 13.563 17.255 3.143 1.904 4.758 2.257 10.405 2.271 6.275.017 7.177-.233 14.708-4.077 4.413-2.252 10.071-5.796 12.573-7.875s7.865-6.175 11.919-9.103 7.682-5.83 8.064-6.45 1.376-1.126 2.211-1.126 1.89-.372 2.344-.827 4.532-1.856 9.061-3.114c9.942-2.762 27.102-3.774 37.235-2.198 8.759 1.363 28.623 7.392 35.061 10.641 10.113 5.105 12.964 8.326 19.768 22.339l12.52 25.616c3.518 7.153 7.746 16.908 9.396 21.677 2.508 7.25 3.68 9.365 7.155 12.906 4.822 4.915 16.838 13.211 25.526 17.626 4.793 2.435 6.982 4.257 10.585 8.813 8.58 10.849 8.025 9.419 10.977 28.287.522 3.338 1.498 7.943 2.169 10.233 1.266 4.322 9.473 16.714 16.384 24.74 2.191 2.544 4.47 5.301 5.065 6.125 1.592 2.207 13.478 10.863 17.989 13.1 2.146 1.064 5.773 3.266 8.06 4.893s6.22 3.729 8.74 4.672 6.224 3.12 8.232 4.839c5.805 4.969 7.729 9.774 9.239 23.077.718 6.326 1.742 12.477 2.276 13.669 1.292 2.888 1.904 4.599 4.03 11.272 2.145 6.732 7.229 19.85 8.4 21.677.459.715.846 1.691.861 2.168s.779 2.768 1.699 5.092c1.383 3.494 1.781 3.93 2.302 2.522.346-.936 1.738-2.125 3.093-2.642z"/>
  <g fill="#209680">
    <use xlink:href="#B"/>
    <use xlink:href="#B" x="-64.296" y="116.102"/>
  </g>
  <text xml:space="preserve" style="white-space:pre" font-size="42.667" fill="#209680"><tspan x="91.339" y="510.217">CityCenter</tspan>
    <tspan x="320.655" y="625.154">Coschütz 2</tspan></text>
  <defs>
    <path id="B"
          d="M361.056 499.137q0-3.232-2.287-5.519-2.287-2.287-5.519-2.287-3.232 0-5.519 2.287-2.287 2.287-2.287 5.519 0 3.232 2.287 5.519 2.287 2.287 5.519 2.287 3.232 0 5.519-2.287 2.287-2.287 2.287-5.519zm7.806 0q0 3.324-1.006 5.458l-11.1 23.602q-.488 1.006-1.448 1.586-.961.579-2.058.579-1.098 0-2.058-.579-.961-.579-1.418-1.586l-11.13-23.602q-1.006-2.135-1.006-5.458 0-6.465 4.574-11.039 4.574-4.574 11.039-4.574 6.465 0 11.039 4.574 4.574 4.574 4.574 11.039z"/>
  </defs>
</svg>
