<svg
   width="62.683002mm"
   height="21.069mm"
   viewBox="0 0 177.68415 59.723179"
   version="1.1"
   xmlns="http://www.w3.org/2000/svg"
   xmlns:svg="http://www.w3.org/2000/svg">
  <defs
     id="defs1">
    <style
       id="style1">
      .cls-1 {
        fill: #00008c;
      }
    </style>
  </defs>
  <g
     id="g31"
     transform="translate(4.2522284,1.4172862)">
    <g
       id="g2"
       transform="translate(-17.5757,-17.5755)">
      <polygon
         class="cls-1"
         points="54.7111,37.1357 35.1509,17.5755 57.6651,17.576 74.2709,34.1815 74.2709,51.2623 54.7111,54.7112 "
         id="polygon1" />
      <polygon
         class="cls-1"
         points="37.1355,54.7112 56.6957,74.2714 34.1815,74.271 17.5757,57.6654 17.5757,40.5847 37.1355,37.1357 "
         id="polygon2" />
    </g>
    <g
       id="g30"
       transform="translate(-17.5757,-17.5755)">
      <g
         id="g12">
        <path
           class="cls-1"
           d="m 104.7928,42.5626 c 1.1992,0 2.1309,0.3066 2.7959,0.9189 0.6641,0.6133 0.9971,1.6035 0.9971,2.9717 v 6.9014 h -2.4639 V 46.962 c 0,-0.8086 -0.1592,-1.4111 -0.4785,-1.8086 -0.3193,-0.3975 -0.8115,-0.5967 -1.4766,-0.5967 -0.9902,0 -1.668,0.3135 -2.0332,0.9385 -0.3643,0.626 -0.5469,1.5254 -0.5469,2.6982 v 5.1611 H 99.1033 V 42.7588 h 1.916 l 0.3525,1.4268 h 0.1172 c 0.2344,-0.3643 0.5205,-0.668 0.8604,-0.9092 0.3389,-0.2412 0.7129,-0.4199 1.124,-0.5371 0.4102,-0.1182 0.8506,-0.1768 1.3193,-0.1768 z"
           id="path2" />
        <path
           class="cls-1"
           d="m 112.329,38.6534 c 0.3643,0 0.6836,0.0977 0.958,0.293 0.2734,0.1953 0.4102,0.5342 0.4102,1.0166 0,0.4688 -0.1367,0.8047 -0.4102,1.0068 -0.2744,0.2021 -0.5938,0.3027 -0.958,0.3027 -0.3916,0 -0.7207,-0.1006 -0.9873,-0.3027 -0.2676,-0.2021 -0.4014,-0.5381 -0.4014,-1.0068 0,-0.4824 0.1338,-0.8213 0.4014,-1.0166 0.2666,-0.1953 0.5957,-0.293 0.9873,-0.293 z m 1.2119,4.1055 v 10.5957 h -2.4834 V 42.7589 Z"
           id="path3" />
        <path
           class="cls-1"
           d="m 157.2753,38.6534 c 0.3643,0 0.6836,0.0977 0.958,0.293 0.2734,0.1953 0.4102,0.5342 0.4102,1.0166 0,0.4688 -0.1367,0.8047 -0.4102,1.0068 -0.2744,0.2021 -0.5938,0.3027 -0.958,0.3027 -0.3916,0 -0.7207,-0.1006 -0.9873,-0.3027 -0.2676,-0.2021 -0.4014,-0.5381 -0.4014,-1.0068 0,-0.4824 0.1338,-0.8213 0.4014,-1.0166 0.2666,-0.1953 0.5957,-0.293 0.9873,-0.293 z m 1.2119,4.1055 v 10.5957 h -2.4834 V 42.7589 Z"
           id="path4" />
        <path
           class="cls-1"
           d="m 165.7938,51.5753 c 0.3125,0 0.6123,-0.0293 0.8984,-0.0879 0.2871,-0.0586 0.5547,-0.127 0.8018,-0.2051 v 1.8379 c -0.2607,0.1172 -0.5996,0.2178 -1.0166,0.3027 -0.417,0.0849 -0.8535,0.127 -1.3096,0.127 -0.5996,0 -1.1436,-0.1006 -1.6328,-0.3027 -0.4883,-0.2021 -0.8789,-0.5508 -1.1729,-1.0459 -0.293,-0.4951 -0.4395,-1.1855 -0.4395,-2.0723 v -5.5137 h -1.4277 v -1.0752 l 1.5645,-0.8594 0.7822,-2.249 h 1.5439 v 2.3271 h 3.0107 v 1.8564 h -3.0107 v 5.4941 c 0,0.4951 0.1299,0.8633 0.3916,1.1045 0.2598,0.2412 0.5986,0.3613 1.0166,0.3613 z"
           id="path5" />
        <path
           class="cls-1"
           d="m 184.9305,51.5753 c 0.3125,0 0.6123,-0.0293 0.8984,-0.0879 0.2871,-0.0586 0.5547,-0.127 0.8018,-0.2051 v 1.8379 c -0.2607,0.1172 -0.5996,0.2178 -1.0166,0.3027 -0.417,0.0849 -0.8535,0.127 -1.3096,0.127 -0.5996,0 -1.1436,-0.1006 -1.6328,-0.3027 -0.4883,-0.2021 -0.8789,-0.5508 -1.1729,-1.0459 -0.293,-0.4951 -0.4395,-1.1855 -0.4395,-2.0723 v -5.5137 h -1.4277 v -1.0752 l 1.5645,-0.8594 0.7822,-2.249 h 1.5439 v 2.3271 h 3.0107 v 1.8564 h -3.0107 v 5.4941 c 0,0.4951 0.1299,0.8633 0.3916,1.1045 0.2598,0.2412 0.5986,0.3613 1.0166,0.3613 z"
           id="path6" />
        <path
           class="cls-1"
           d="m 174.0048,42.5626 c 1.3164,0 2.3096,0.3037 2.9814,0.9092 0.6709,0.6064 1.0068,1.5283 1.0068,2.7666 v 7.1162 h -1.7598 l -0.4688,-1.4658 h -0.0781 c -0.3008,0.3779 -0.6104,0.6904 -0.9287,0.9375 -0.3203,0.248 -0.6875,0.4307 -1.1045,0.5479 -0.418,0.1172 -0.9189,0.1758 -1.5059,0.1758 -0.626,0 -1.1895,-0.1172 -1.6914,-0.3516 -0.5019,-0.2344 -0.8955,-0.5928 -1.1826,-1.0752 -0.2861,-0.4824 -0.4297,-1.0947 -0.4297,-1.8379 0,-1.082 0.4072,-1.9062 1.2217,-2.4727 0.8145,-0.5674 2.043,-0.877 3.6855,-0.9287 l 1.7783,-0.0586 v -0.4502 c 0,-0.7168 -0.1631,-1.2217 -0.4883,-1.5146 -0.3262,-0.2939 -0.7754,-0.4404 -1.3486,-0.4404 -0.5088,0 -1.0137,0.082 -1.5156,0.2441 -0.502,0.1641 -0.9873,0.3496 -1.4561,0.5576 l -0.7432,-1.7207 c 0.5215,-0.2861 1.127,-0.5146 1.8184,-0.6836 0.6904,-0.1699 1.4268,-0.2549 2.209,-0.2549 z m -3.4415,-2.5801 c 0,-0.417 0.1143,-0.7168 0.3428,-0.8994 0.2275,-0.1826 0.5049,-0.2734 0.8311,-0.2734 0.3252,0 0.6084,0.0908 0.8496,0.2734 0.2412,0.1826 0.3623,0.4824 0.3623,0.8994 0,0.3906 -0.1211,0.6807 -0.3623,0.8701 -0.2412,0.1885 -0.5244,0.2832 -0.8496,0.2832 -0.3262,0 -0.6035,-0.0947 -0.8311,-0.2832 -0.2285,-0.1895 -0.3428,-0.4795 -0.3428,-0.8701 z m 3.6758,8.4063 c -1.0684,0.0527 -1.8115,0.2314 -2.2285,0.5381 -0.417,0.3057 -0.626,0.7393 -0.626,1.2998 0,0.4951 0.1504,0.8633 0.4502,1.1045 0.2998,0.2412 0.6836,0.3613 1.1533,0.3613 0.7168,0 1.3193,-0.208 1.8086,-0.625 0.4883,-0.417 0.7324,-1.0234 0.7324,-1.8184 v -0.8994 z m 0.3321,-8.4063 c 0,-0.417 0.1143,-0.7168 0.3428,-0.8994 0.2275,-0.1826 0.5107,-0.2734 0.8506,-0.2734 0.3125,0 0.5889,0.0908 0.8301,0.2734 0.2412,0.1826 0.3623,0.4824 0.3623,0.8994 0,0.3906 -0.1211,0.6807 -0.3623,0.8701 -0.2412,0.1885 -0.5176,0.2832 -0.8301,0.2832 -0.3398,0 -0.623,-0.0947 -0.8506,-0.2832 -0.2285,-0.1895 -0.3428,-0.4795 -0.3428,-0.8701 z"
           id="path7" />
        <path
           class="cls-1"
           d="m 119.077,53.3546 -4.0273,-10.5957 h 2.6201 l 2.0723,6.2559 c 0.0781,0.1826 0.1562,0.4072 0.2344,0.6738 0.0781,0.2676 0.1533,0.5283 0.2246,0.7822 0.0713,0.2539 0.1143,0.4795 0.127,0.6748 h 0.0781 c 0.0264,-0.1953 0.0752,-0.4209 0.1465,-0.6748 0.0723,-0.2539 0.1533,-0.5107 0.2451,-0.7725 0.0908,-0.2598 0.1621,-0.4883 0.2148,-0.6836 l 2.1113,-6.2559 h 2.6201 l -4.0469,10.5957 h -2.6201 z"
           id="path8" />
        <path
           class="cls-1"
           d="m 131.3592,42.5626 c 0.9512,0 1.7725,0.1895 2.4629,0.5674 0.6904,0.3779 1.2217,0.9258 1.5938,1.6426 0.3711,0.7168 0.5566,1.583 0.5566,2.5996 v 1.2705 h -6.9795 c 0.0264,0.9521 0.2939,1.6885 0.8018,2.21 0.5088,0.5205 1.2314,0.7812 2.1699,0.7812 0.665,0 1.2646,-0.0645 1.7988,-0.1953 0.5342,-0.1299 1.082,-0.3193 1.6426,-0.5664 v 1.9541 c -0.5215,0.248 -1.0625,0.4307 -1.623,0.5479 -0.5605,0.1172 -1.2383,0.1758 -2.0332,0.1758 -1.0293,0 -1.9453,-0.1982 -2.7471,-0.5957 -0.8008,-0.3975 -1.4268,-1.001 -1.876,-1.8086 -0.4502,-0.8086 -0.6748,-1.8115 -0.6748,-3.0107 0,-1.2119 0.2051,-2.2314 0.6162,-3.0596 0.4102,-0.8281 0.9834,-1.4531 1.7197,-1.877 0.7363,-0.4239 1.5938,-0.6357 2.5713,-0.6357 z m 0.0391,1.8379 c -0.6777,0 -1.2217,0.2148 -1.6328,0.6455 -0.4102,0.4297 -0.6484,1.0488 -0.7129,1.8574 h 4.5156 c 0,-0.4951 -0.0781,-0.9287 -0.2344,-1.3008 -0.1562,-0.3711 -0.3945,-0.6641 -0.7139,-0.8789 -0.3193,-0.2158 -0.7266,-0.3232 -1.2217,-0.3232 z"
           id="path9" />
        <path
           class="cls-1"
           d="m 143.5096,42.5626 c 0.1953,0 0.4072,0.0098 0.6357,0.0293 0.2275,0.0195 0.4131,0.0488 0.5566,0.0889 l -0.2539,2.3066 c -0.1562,-0.0264 -0.3359,-0.0518 -0.5381,-0.0781 -0.2022,-0.0263 -0.4199,-0.0391 -0.6543,-0.0391 -0.3398,0 -0.6719,0.0586 -0.9971,0.1758 -0.3262,0.1172 -0.626,0.2998 -0.8994,0.5469 -0.2734,0.248 -0.4893,0.5576 -0.6455,0.9287 -0.1562,0.3721 -0.2344,0.8184 -0.2344,1.3398 v 5.4932 h -2.4834 V 42.7589 h 1.916 l 0.3525,1.8369 h 0.1172 c 0.208,-0.3779 0.4688,-0.7227 0.7822,-1.0361 0.3125,-0.3125 0.667,-0.5566 1.0654,-0.7324 0.3975,-0.1768 0.8242,-0.2646 1.2803,-0.2646 z"
           id="path10" />
        <path
           class="cls-1"
           d="m 153.6024,50.3048 c 0,0.6777 -0.1631,1.2578 -0.4893,1.7402 -0.3262,0.4824 -0.8086,0.8535 -1.4463,1.1143 -0.6387,0.2607 -1.4346,0.3906 -2.3857,0.3906 -0.7422,0 -1.3945,-0.0518 -1.9551,-0.1562 -0.5606,-0.1044 -1.0811,-0.2666 -1.5635,-0.4883 v -2.1123 c 0.5215,0.248 1.0977,0.4531 1.7305,0.6162 0.6318,0.1631 1.2148,0.2441 1.749,0.2441 0.7041,0 1.2129,-0.1035 1.5254,-0.3125 0.3125,-0.208 0.4688,-0.4883 0.4688,-0.8408 0,-0.2217 -0.0684,-0.4199 -0.2051,-0.5957 -0.1367,-0.1768 -0.3848,-0.3555 -0.7432,-0.5381 -0.3584,-0.1826 -0.8633,-0.4033 -1.5146,-0.665 -0.6523,-0.2598 -1.2021,-0.5244 -1.6523,-0.791 -0.4492,-0.2676 -0.792,-0.5928 -1.0264,-0.9775 -0.2344,-0.3847 -0.3516,-0.8633 -0.3516,-1.4375 0,-0.9512 0.3779,-1.6777 1.1338,-2.1797 0.7559,-0.501 1.7529,-0.7529 2.9912,-0.7529 0.665,0 1.2871,0.0654 1.8672,0.1963 0.5801,0.1299 1.1494,0.3252 1.71,0.5859 l -0.7422,1.7598 c -0.4824,-0.208 -0.9775,-0.3809 -1.4863,-0.5186 -0.5078,-0.1367 -0.9775,-0.2051 -1.4072,-0.2051 -0.5479,0 -0.9678,0.085 -1.2607,0.2539 -0.2939,0.1699 -0.4404,0.4043 -0.4404,0.7041 0,0.2344 0.0713,0.4336 0.2148,0.5967 0.1435,0.1631 0.3975,0.3291 0.7627,0.498 0.3652,0.1699 0.873,0.3779 1.5254,0.626 0.6377,0.2471 1.1826,0.5078 1.6318,0.7822 0.4502,0.2734 0.7891,0.6025 1.0166,0.9873 0.2285,0.3838 0.3428,0.876 0.3428,1.4756 z"
           id="path11" />
        <path
           class="cls-1"
           d="m 96.6307,48.4279 c 0,0.9648 -0.2061,1.835 -0.6162,2.6104 -0.4101,0.7754 -1.0332,1.3877 -1.8672,1.8379 -0.834,0.4492 -1.8896,0.6738 -3.167,0.6738 -1.8115,0 -3.1865,-0.4717 -4.125,-1.417 -0.9385,-0.9453 -1.4072,-2.1924 -1.4072,-3.7441 v -8.9932 h 2.502 v 8.7393 c 0,1.1338 0.2607,1.9648 0.7822,2.4922 0.5215,0.5283 1.2969,0.792 2.3262,0.792 0.7295,0 1.3193,-0.124 1.7695,-0.3711 0.4492,-0.248 0.7822,-0.6221 0.9971,-1.124 0.2149,-0.5019 0.3223,-1.1045 0.3223,-1.8086 v -8.7197 h 2.4834 v 9.0322 z"
           id="path12" />
      </g>
      <g
         id="g19">
        <path
           class="cls-1"
           d="m 96.8895,67.0939 c 0,1.5771 -0.293,2.9004 -0.8799,3.9688 -0.5859,1.0684 -1.4238,1.8701 -2.5117,2.4043 -1.0889,0.5352 -2.3887,0.8018 -3.9004,0.8018 H 85.453 v -13.959 h 4.5156 c 1.4336,0 2.6689,0.2607 3.7051,0.7822 1.0362,0.5215 1.8311,1.2803 2.3848,2.2773 0.5537,0.997 0.8311,2.2383 0.8311,3.7246 z m -2.6396,0.0781 c 0,-1.082 -0.1689,-1.9746 -0.5078,-2.6787 -0.3389,-0.7031 -0.8379,-1.2275 -1.4961,-1.5732 -0.6582,-0.3457 -1.4688,-0.5186 -2.4336,-0.5186 H 87.994 v 9.7559 h 1.4863 c 1.6025,0 2.7988,-0.4141 3.5869,-1.2412 0.7891,-0.8281 1.1826,-2.0752 1.1826,-3.7441 z"
           id="path13" />
        <path
           class="cls-1"
           d="m 104.6298,63.4767 c 0.1953,0 0.4062,0.0098 0.6348,0.0293 0.2286,0.0195 0.4141,0.0488 0.5566,0.0889 l -0.2539,2.3066 c -0.1562,-0.0264 -0.3359,-0.0518 -0.5371,-0.0781 -0.2031,-0.0264 -0.4199,-0.0391 -0.6543,-0.0391 -0.3398,0 -0.6719,0.0586 -0.998,0.1758 -0.3261,0.1172 -0.625,0.2998 -0.8984,0.5469 -0.2734,0.248 -0.4902,0.5576 -0.6465,0.9287 -0.1562,0.3721 -0.2344,0.8184 -0.2344,1.3398 v 5.4932 H 99.1162 V 63.673 h 1.916 l 0.3516,1.8369 h 0.1172 c 0.209,-0.3779 0.4688,-0.7227 0.7832,-1.0361 0.3125,-0.3125 0.666,-0.5566 1.0645,-0.7324 0.3984,-0.1768 0.8242,-0.2646 1.2812,-0.2646 z"
           id="path14" />
        <path
           class="cls-1"
           d="m 111.4608,63.4767 c 0.9512,0 1.7725,0.1895 2.4629,0.5674 0.6904,0.3779 1.2217,0.9258 1.5938,1.6426 0.3711,0.7168 0.5566,1.583 0.5566,2.5996 v 1.2705 h -6.9795 c 0.0264,0.9521 0.2939,1.6885 0.8018,2.21 0.5088,0.5205 1.2314,0.7812 2.1699,0.7812 0.665,0 1.2646,-0.0645 1.7988,-0.1953 0.5342,-0.1299 1.082,-0.3193 1.6426,-0.5664 v 1.9541 c -0.5215,0.248 -1.0625,0.4307 -1.623,0.5479 -0.5605,0.1172 -1.2383,0.1758 -2.0332,0.1758 -1.0293,0 -1.9453,-0.1982 -2.7471,-0.5957 -0.8008,-0.3975 -1.4268,-1.001 -1.876,-1.8086 -0.4502,-0.8086 -0.6748,-1.8115 -0.6748,-3.0107 0,-1.2119 0.2051,-2.2314 0.6162,-3.0596 0.4102,-0.8281 0.9834,-1.4531 1.7197,-1.877 0.7363,-0.4239 1.5938,-0.6357 2.5713,-0.6357 z m 0.0391,1.8379 c -0.6777,0 -1.2217,0.2148 -1.6328,0.6455 -0.4102,0.4297 -0.6484,1.0488 -0.7129,1.8574 h 4.5156 c 0,-0.4951 -0.0781,-0.9287 -0.2344,-1.3008 -0.1562,-0.3711 -0.3945,-0.6641 -0.7139,-0.8789 -0.3193,-0.2158 -0.7266,-0.3232 -1.2217,-0.3232 z"
           id="path15" />
        <path
           class="cls-1"
           d="m 125.784,71.2189 c 0,0.6777 -0.1631,1.2578 -0.4893,1.7402 -0.3262,0.4824 -0.8086,0.8535 -1.4463,1.1143 -0.6387,0.2607 -1.4346,0.3906 -2.3857,0.3906 -0.7422,0 -1.3945,-0.0518 -1.9551,-0.1562 -0.5606,-0.1044 -1.0811,-0.2666 -1.5635,-0.4883 v -2.1123 c 0.5215,0.248 1.0977,0.4531 1.7305,0.6162 0.6318,0.1631 1.2148,0.2441 1.749,0.2441 0.7041,0 1.2129,-0.1035 1.5254,-0.3125 0.3125,-0.208 0.4688,-0.4883 0.4688,-0.8408 0,-0.2217 -0.0684,-0.4199 -0.2051,-0.5957 -0.1367,-0.1768 -0.3848,-0.3555 -0.7432,-0.5381 -0.3584,-0.1826 -0.8633,-0.4033 -1.5146,-0.665 -0.6523,-0.2598 -1.2021,-0.5244 -1.6523,-0.791 -0.4492,-0.2676 -0.792,-0.5928 -1.0264,-0.9775 -0.2344,-0.3847 -0.3516,-0.8633 -0.3516,-1.4375 0,-0.9512 0.3779,-1.6777 1.1338,-2.1797 0.7559,-0.501 1.7529,-0.7529 2.9912,-0.7529 0.665,0 1.2871,0.0654 1.8672,0.1963 0.5801,0.1299 1.1494,0.3252 1.71,0.5859 l -0.7422,1.7598 c -0.4824,-0.208 -0.9775,-0.3809 -1.4863,-0.5186 -0.5078,-0.1367 -0.9775,-0.2051 -1.4072,-0.2051 -0.5479,0 -0.9678,0.085 -1.2607,0.2539 -0.2939,0.1699 -0.4404,0.4043 -0.4404,0.7041 0,0.2344 0.0713,0.4336 0.2148,0.5967 0.1435,0.1631 0.3975,0.3291 0.7627,0.498 0.3652,0.1699 0.873,0.3779 1.5254,0.626 0.6377,0.2471 1.1826,0.5078 1.6318,0.7822 0.4502,0.2734 0.7891,0.6025 1.0166,0.9873 0.2285,0.3838 0.3428,0.876 0.3428,1.4756 z"
           id="path16" />
        <path
           class="cls-1"
           d="m 131.4764,74.464 c -1.2256,0 -2.2188,-0.4619 -2.9814,-1.3877 -0.7626,-0.9258 -1.1436,-2.2871 -1.1436,-4.0859 0,-1.8252 0.3838,-3.1992 1.1533,-4.125 0.7686,-0.9258 1.7793,-1.3887 3.0303,-1.3887 0.5215,0 0.9746,0.0684 1.3584,0.2061 0.3848,0.1367 0.7207,0.3223 1.0068,0.5566 0.2871,0.2344 0.5283,0.4961 0.7236,0.7822 h 0.0977 c -0.0264,-0.208 -0.0557,-0.5049 -0.0879,-0.8896 -0.0322,-0.3838 -0.0488,-0.7266 -0.0488,-1.0264 v -3.6953 h 2.5029 v 14.8584 h -1.9355 l -0.4697,-1.3877 h -0.0977 c -0.1953,0.2861 -0.4336,0.5508 -0.7139,0.791 -0.2803,0.2422 -0.6191,0.4336 -1.0166,0.5771 -0.3975,0.1435 -0.8564,0.2148 -1.3779,0.2148 z m 0.7432,-2.0137 c 0.9121,0 1.5566,-0.2568 1.9355,-0.7725 0.3779,-0.5146 0.5664,-1.2998 0.5664,-2.3555 v -0.3125 c 0,-1.1338 -0.1787,-2.0039 -0.5371,-2.6104 -0.3594,-0.6055 -1.0205,-0.9092 -1.9844,-0.9092 -0.7432,0 -1.3135,0.3105 -1.7109,0.9287 -0.3975,0.6191 -0.5967,1.4893 -0.5967,2.6104 0,1.1211 0.1992,1.9717 0.5967,2.5508 0.3975,0.5801 0.9746,0.8701 1.7305,0.8701 z"
           id="path17" />
        <path
           class="cls-1"
           d="m 156.3446,63.4757 c 1.1992,0 2.1309,0.3066 2.7959,0.9189 0.6641,0.6133 0.9971,1.6035 0.9971,2.9717 v 6.9014 h -2.4639 v -6.3926 c 0,-0.8086 -0.1592,-1.4111 -0.4785,-1.8086 -0.3193,-0.3975 -0.8115,-0.5967 -1.4766,-0.5967 -0.9902,0 -1.668,0.3135 -2.0332,0.9385 -0.3643,0.626 -0.5469,1.5254 -0.5469,2.6982 v 5.1611 h -2.4834 V 63.6719 h 1.916 l 0.3525,1.4268 h 0.1172 c 0.2344,-0.3643 0.5205,-0.668 0.8604,-0.9092 0.3389,-0.2412 0.7129,-0.4199 1.124,-0.5371 0.4102,-0.1182 0.8506,-0.1768 1.3193,-0.1768 z"
           id="path18" />
        <path
           class="cls-1"
           d="m 144.0155,63.4767 c 0.9512,0 1.7725,0.1895 2.4629,0.5674 0.6904,0.3779 1.2217,0.9258 1.5938,1.6426 0.3711,0.7168 0.5566,1.583 0.5566,2.5996 v 1.2705 h -6.9795 c 0.0264,0.9521 0.2939,1.6885 0.8018,2.21 0.5088,0.5205 1.2314,0.7812 2.1699,0.7812 0.665,0 1.2646,-0.0645 1.7988,-0.1953 0.5342,-0.1299 1.082,-0.3193 1.6426,-0.5664 v 1.9541 c -0.5215,0.248 -1.0625,0.4307 -1.623,0.5479 -0.5605,0.1172 -1.2383,0.1758 -2.0332,0.1758 -1.0293,0 -1.9453,-0.1982 -2.7471,-0.5957 -0.8008,-0.3975 -1.4268,-1.001 -1.876,-1.8086 -0.4502,-0.8086 -0.6748,-1.8115 -0.6748,-3.0107 0,-1.2119 0.2051,-2.2314 0.6162,-3.0596 0.4102,-0.8281 0.9834,-1.4531 1.7197,-1.877 0.7363,-0.4239 1.5938,-0.6357 2.5713,-0.6357 z m 0.0391,1.8379 c -0.6777,0 -1.2217,0.2148 -1.6328,0.6455 -0.4102,0.4297 -0.6484,1.0488 -0.7129,1.8574 h 4.5156 c 0,-0.4951 -0.0781,-0.9287 -0.2344,-1.3008 -0.1562,-0.3711 -0.3945,-0.6641 -0.7139,-0.8789 -0.3193,-0.2158 -0.7266,-0.3232 -1.2217,-0.3232 z"
           id="path19" />
      </g>
      <g
         id="g29">
        <path
           class="cls-1"
           d="m 135.2339,21.6407 c 1.1992,0 2.1309,0.3066 2.7959,0.9189 0.6641,0.6133 0.9971,1.6035 0.9971,2.9717 v 6.9014 h -2.4639 v -6.3926 c 0,-0.8086 -0.1592,-1.4111 -0.4785,-1.8086 -0.3193,-0.3975 -0.8115,-0.5967 -1.4766,-0.5967 -0.9902,0 -1.668,0.3135 -2.0332,0.9385 -0.3643,0.626 -0.5469,1.5254 -0.5469,2.6982 v 5.1611 h -2.4834 V 21.8369 h 1.916 l 0.3525,1.4268 h 0.1172 c 0.2344,-0.3643 0.5205,-0.668 0.8604,-0.9092 0.3389,-0.2412 0.7129,-0.4199 1.124,-0.5371 0.4102,-0.1182 0.8506,-0.1768 1.3193,-0.1768 z"
           id="path20" />
        <path
           class="cls-1"
           d="m 100.9839,21.6476 c 0.9512,0 1.7725,0.1895 2.4629,0.5674 0.6904,0.3779 1.2217,0.9258 1.5938,1.6426 0.3711,0.7168 0.5566,1.583 0.5566,2.5996 v 1.2705 h -6.9795 c 0.0264,0.9521 0.2939,1.6885 0.8018,2.21 0.5088,0.5205 1.2314,0.7812 2.1699,0.7812 0.665,0 1.2646,-0.0645 1.7988,-0.1953 0.5342,-0.1299 1.082,-0.3193 1.6426,-0.5664 v 1.9541 c -0.5215,0.248 -1.0625,0.4307 -1.623,0.5479 -0.5605,0.1172 -1.2383,0.1758 -2.0332,0.1758 -1.0293,0 -1.9453,-0.1982 -2.7471,-0.5957 -0.8008,-0.3975 -1.4268,-1.001 -1.876,-1.8086 -0.4502,-0.8086 -0.6748,-1.8115 -0.6748,-3.0107 0,-1.2119 0.2051,-2.2314 0.6162,-3.0596 0.4102,-0.8281 0.9834,-1.4531 1.7197,-1.877 0.7363,-0.4239 1.5938,-0.6357 2.5713,-0.6357 z m 0.039,1.8379 c -0.6777,0 -1.2217,0.2148 -1.6328,0.6455 -0.4102,0.4297 -0.6484,1.0488 -0.7129,1.8574 h 4.5156 c 0,-0.4951 -0.0781,-0.9287 -0.2344,-1.3008 -0.1562,-0.3711 -0.3945,-0.6641 -0.7139,-0.8789 -0.3193,-0.2158 -0.7266,-0.3232 -1.2217,-0.3232 z"
           id="path21" />
        <path
           class="cls-1"
           d="m 112.3501,32.6349 c -0.9912,0 -1.8643,-0.1924 -2.6201,-0.5762 -0.7559,-0.3848 -1.3457,-0.9775 -1.7686,-1.7793 -0.4238,-0.8018 -0.6357,-1.8281 -0.6357,-3.0791 0,-1.3037 0.2275,-2.3623 0.6846,-3.1768 0.4561,-0.8145 1.0752,-1.4141 1.8564,-1.7988 0.7822,-0.3848 1.6689,-0.5771 2.6592,-0.5771 0.5869,0 1.1465,0.0586 1.6816,0.1768 0.5342,0.1172 0.9902,0.2734 1.3682,0.4688 l -0.7432,1.9355 c -0.3516,-0.1436 -0.7295,-0.2705 -1.1338,-0.3809 -0.4043,-0.1113 -0.8018,-0.167 -1.1924,-0.167 -0.5732,0 -1.0586,0.1309 -1.4561,0.3916 -0.3984,0.2607 -0.6943,0.6484 -0.8896,1.1631 -0.1953,0.5147 -0.2939,1.1631 -0.2939,1.9453 0,0.7432 0.1016,1.3682 0.3037,1.877 0.2021,0.5078 0.4951,0.8896 0.8799,1.1436 0.3838,0.2539 0.8496,0.3809 1.3975,0.3809 0.5605,0 1.0781,-0.0684 1.5547,-0.2051 0.4756,-0.1367 0.9219,-0.3154 1.3389,-0.5381 v 2.0723 c -0.3916,0.2227 -0.8242,0.3984 -1.2998,0.5283 -0.4766,0.1299 -1.04,0.1953 -1.6914,0.1953 z"
           id="path22" />
        <path
           class="cls-1"
           d="m 120.0766,21.0812 c 0,0.4561 -0.0137,0.8701 -0.0391,1.2412 -0.0264,0.3711 -0.0527,0.6748 -0.0781,0.9092 h 0.1367 c 0.2217,-0.3652 0.4951,-0.6611 0.8213,-0.8896 0.3252,-0.2275 0.6875,-0.4004 1.085,-0.5176 0.3975,-0.1182 0.8115,-0.1768 1.2412,-0.1768 0.7949,0 1.4795,0.1377 2.0527,0.4111 0.5732,0.2734 1.0137,0.6934 1.3193,1.2607 0.3066,0.5674 0.46,1.3066 0.46,2.2188 v 6.9014 h -2.4834 V 26.047 c 0,-0.8086 -0.1562,-1.4111 -0.4688,-1.8086 -0.3126,-0.3975 -0.8018,-0.5967 -1.4668,-0.5967 -0.6514,0 -1.166,0.1436 -1.5439,0.4307 -0.3779,0.2871 -0.6455,0.6973 -0.8018,1.2314 -0.1563,0.5341 -0.2344,1.1924 -0.2344,1.9746 v 5.1611 h -2.4834 V 17.5811 h 2.4834 v 3.5 z"
           id="path23" />
        <path
           class="cls-1"
           d="m 160.4819,32.6349 c -0.9912,0 -1.8643,-0.1924 -2.6201,-0.5762 -0.7559,-0.3848 -1.3457,-0.9775 -1.7686,-1.7793 -0.4238,-0.8018 -0.6357,-1.8281 -0.6357,-3.0791 0,-1.3037 0.2275,-2.3623 0.6846,-3.1768 0.4561,-0.8145 1.0752,-1.4141 1.8564,-1.7988 0.7822,-0.3848 1.6689,-0.5771 2.6592,-0.5771 0.5869,0 1.1465,0.0586 1.6816,0.1768 0.5342,0.1172 0.9902,0.2734 1.3682,0.4688 l -0.7432,1.9355 c -0.3516,-0.1436 -0.7295,-0.2705 -1.1338,-0.3809 -0.4043,-0.1113 -0.8018,-0.167 -1.1924,-0.167 -0.5732,0 -1.0586,0.1309 -1.4561,0.3916 -0.3984,0.2607 -0.6943,0.6484 -0.8896,1.1631 -0.1953,0.5147 -0.2939,1.1631 -0.2939,1.9453 0,0.7432 0.1016,1.3682 0.3037,1.877 0.2021,0.5078 0.4951,0.8896 0.8799,1.1436 0.3838,0.2539 0.8496,0.3809 1.3975,0.3809 0.5605,0 1.0781,-0.0684 1.5547,-0.2051 0.4756,-0.1367 0.9219,-0.3154 1.3389,-0.5381 v 2.0723 c -0.3916,0.2227 -0.8242,0.3984 -1.2998,0.5283 -0.4766,0.1299 -1.04,0.1953 -1.6914,0.1953 z"
           id="path24" />
        <path
           class="cls-1"
           d="m 154.143,29.3898 c 0,0.6777 -0.1631,1.2578 -0.4893,1.7402 -0.3262,0.4824 -0.8086,0.8535 -1.4463,1.1143 -0.6387,0.2607 -1.4346,0.3906 -2.3857,0.3906 -0.7422,0 -1.3945,-0.0518 -1.9551,-0.1562 -0.5606,-0.1044 -1.0811,-0.2666 -1.5635,-0.4883 v -2.1123 c 0.5215,0.248 1.0977,0.4531 1.7305,0.6162 0.6318,0.1631 1.2148,0.2441 1.749,0.2441 0.7041,0 1.2129,-0.1035 1.5254,-0.3125 0.3125,-0.208 0.4688,-0.4883 0.4688,-0.8408 0,-0.2217 -0.0684,-0.4199 -0.2051,-0.5957 -0.1367,-0.1768 -0.3848,-0.3555 -0.7432,-0.5381 -0.3584,-0.1826 -0.8633,-0.4033 -1.5146,-0.665 -0.6523,-0.2598 -1.2021,-0.5244 -1.6523,-0.791 -0.4492,-0.2676 -0.792,-0.5928 -1.0264,-0.9775 -0.2344,-0.3847 -0.3516,-0.8633 -0.3516,-1.4375 0,-0.9512 0.3779,-1.6777 1.1338,-2.1797 0.7559,-0.501 1.7529,-0.7529 2.9912,-0.7529 0.665,0 1.2871,0.0654 1.8672,0.1963 0.5801,0.1299 1.1494,0.3252 1.71,0.5859 l -0.7422,1.7598 c -0.4824,-0.208 -0.9775,-0.3809 -1.4863,-0.5186 -0.5078,-0.1367 -0.9775,-0.2051 -1.4072,-0.2051 -0.5479,0 -0.9678,0.085 -1.2607,0.2539 -0.2939,0.1699 -0.4404,0.4043 -0.4404,0.7041 0,0.2344 0.0713,0.4336 0.2148,0.5967 0.1435,0.1631 0.3975,0.3291 0.7627,0.498 0.3652,0.1699 0.873,0.3779 1.5254,0.626 0.6377,0.2471 1.1826,0.5078 1.6318,0.7822 0.4502,0.2734 0.7891,0.6025 1.0166,0.9873 0.2285,0.3838 0.3428,0.876 0.3428,1.4756 z"
           id="path25" />
        <path
           class="cls-1"
           d="m 168.2094,21.0812 c 0,0.4561 -0.0137,0.8701 -0.0391,1.2412 -0.0264,0.3711 -0.0527,0.6748 -0.0781,0.9092 h 0.1367 c 0.2217,-0.3652 0.4951,-0.6611 0.8213,-0.8896 0.3252,-0.2275 0.6875,-0.4004 1.085,-0.5176 0.3975,-0.1182 0.8115,-0.1768 1.2412,-0.1768 0.7949,0 1.4795,0.1377 2.0527,0.4111 0.5732,0.2734 1.0137,0.6934 1.3193,1.2607 0.3066,0.5674 0.46,1.3066 0.46,2.2188 v 6.9014 H 172.725 V 26.047 c 0,-0.8086 -0.1562,-1.4111 -0.4688,-1.8086 -0.3126,-0.3975 -0.8018,-0.5967 -1.4668,-0.5967 -0.6514,0 -1.166,0.1436 -1.5439,0.4307 -0.3779,0.2871 -0.6455,0.6973 -0.8018,1.2314 -0.1563,0.5341 -0.2344,1.1924 -0.2344,1.9746 v 5.1611 h -2.4834 V 17.5811 h 2.4834 v 3.5 z"
           id="path26" />
        <path
           class="cls-1"
           d="m 182.1421,21.6476 c 0.9512,0 1.7725,0.1895 2.4629,0.5674 0.6904,0.3779 1.2217,0.9258 1.5938,1.6426 0.3711,0.7168 0.5566,1.583 0.5566,2.5996 v 1.2705 h -6.9795 c 0.0264,0.9521 0.2939,1.6885 0.8018,2.21 0.5088,0.5205 1.2314,0.7812 2.1699,0.7812 0.665,0 1.2646,-0.0645 1.7988,-0.1953 0.5342,-0.1299 1.082,-0.3193 1.6426,-0.5664 v 1.9541 c -0.5215,0.248 -1.0625,0.4307 -1.623,0.5479 -0.5605,0.1172 -1.2383,0.1758 -2.0332,0.1758 -1.0293,0 -1.9453,-0.1982 -2.7471,-0.5957 -0.8008,-0.3975 -1.4268,-1.001 -1.876,-1.8086 -0.4502,-0.8086 -0.6748,-1.8115 -0.6748,-3.0107 0,-1.2119 0.2051,-2.2314 0.6162,-3.0596 0.4102,-0.8281 0.9834,-1.4531 1.7197,-1.877 0.7363,-0.4239 1.5938,-0.6357 2.5713,-0.6357 z m 0.039,1.8379 c -0.6777,0 -1.2217,0.2148 -1.6328,0.6455 -0.4102,0.4297 -0.6484,1.0488 -0.7129,1.8574 h 4.5156 c 0,-0.4951 -0.0781,-0.9287 -0.2344,-1.3008 -0.1562,-0.3711 -0.3945,-0.6641 -0.7139,-0.8789 -0.3193,-0.2158 -0.7266,-0.3232 -1.2217,-0.3232 z"
           id="path27" />
        <path
           class="cls-1"
           d="M 92.3134,32.4394 H 89.7917 V 20.6126 h -4.336 V 18.4818 H 96.646 v 2.1308 h -4.3326 z"
           id="path28" />
        <path
           class="cls-1"
           d="m 142.771,17.7316 c 0.3643,0 0.6836,0.0977 0.958,0.293 0.2734,0.1953 0.4102,0.5342 0.4102,1.0166 0,0.4688 -0.1367,0.8047 -0.4102,1.0068 -0.2744,0.2021 -0.5938,0.3027 -0.958,0.3027 -0.3916,0 -0.7207,-0.1006 -0.9873,-0.3027 -0.2676,-0.2021 -0.4014,-0.5381 -0.4014,-1.0068 0,-0.4824 0.1338,-0.8213 0.4014,-1.0166 0.2666,-0.1953 0.5957,-0.293 0.9873,-0.293 z m 1.2119,4.1054 v 10.5957 h -2.4834 V 21.837 Z"
           id="path29" />
      </g>
    </g>
  </g>
</svg>
