<svg
  viewBox="0 0 496 495.88181">
  <g
    transform="matrix(0.1,0,0,-0.1,-8,503.88182)"
    stroke="none"
    id="g8">
    <path
      d="m 1945,5029 c -318,-45 -617,-264 -765,-559 -63,-125 -110,-304 -110,-419 0,-45 -1,-47 -47,-71 -26,-14 -82,-59 -124,-100 -61,-61 -84,-93 -122,-170 -96,-197 -101,-396 -13,-585 82,-175 222,-299 411,-363 l 80,-27 h 1305 1305 l 80,27 c 110,38 196,91 274,169 326,325 237,869 -175,1076 l -71,36 -17,71 c -76,322 -336,585 -671,678 -104,29 -289,35 -410,13 -81,-14 -99,-15 -114,-3 -138,101 -235,153 -356,191 -140,44 -310,57 -460,36 z m 365,-174 c 94,-24 255,-105 325,-164 102,-86 105,-87 194,-60 100,31 319,34 421,6 275,-76 488,-297 551,-572 30,-133 32,-138 59,-151 14,-7 64,-31 111,-53 254,-120 358,-425 232,-681 -69,-142 -213,-251 -367,-279 -83,-15 -2469,-15 -2552,0 -197,36 -363,195 -410,395 -52,221 66,467 271,568 75,36 85,54 85,151 1,427 321,792 755,859 58,9 261,-3 325,-19 z"
      id="path1"/>
    <path
      d="m 2240,4281 c -28,-8 -226,-251 -233,-287 -2,-11 0,-31 5,-44 21,-58 85,-67 135,-18 l 33,32 v -325 c 0,-352 1,-358 56,-379 29,-11 81,5 94,30 6,11 10,153 10,350 v 331 l 34,-35 c 41,-44 85,-48 121,-11 44,43 34,68 -76,210 -102,133 -133,157 -179,146 z"
      id="path2"/>
    <path
      d="m 2830,4278 c -49,-18 -49,-21 -50,-376 v -333 l -34,35 c -41,44 -85,48 -121,11 -44,-43 -35,-69 76,-211 105,-135 139,-161 183,-144 13,5 70,67 125,138 83,107 101,136 101,164 0,75 -82,103 -136,47 l -29,-30 -5,329 c -5,300 -7,332 -23,350 -22,24 -55,32 -87,20 z"
      id="path3"/>
    <path
      d="M 280,2881 C 165,2844 80,2728 80,2611 c 0,-171 170,-309 334,-272 29,6 73,24 98,40 l 44,28 363,-210 c 255,-148 373,-210 394,-210 20,0 38,8 54,27 27,32 30,66 6,95 -10,12 -180,115 -378,229 l -359,207 3,48 c 6,104 -51,208 -146,264 -35,20 -61,27 -117,29 -39,2 -82,0 -96,-5 z m 141,-168 c 31,-19 59,-68 59,-105 0,-37 -37,-88 -78,-105 -32,-13 -42,-14 -77,-2 -44,16 -85,67 -85,106 0,93 102,152 181,106 z"
      id="path4"/>
    <path
      d="m 4680,2881 c -122,-40 -206,-162 -199,-288 l 3,-48 -359,-207 c -198,-114 -368,-217 -377,-229 -25,-29 -22,-63 5,-95 16,-19 34,-27 54,-27 21,0 139,62 394,210 l 363,210 44,-28 c 25,-16 69,-34 98,-40 164,-37 334,101 334,272 0,97 -67,207 -154,251 -44,23 -161,34 -206,19 z m 139,-166 c 31,-15 61,-69 61,-108 0,-40 -41,-90 -87,-107 -38,-13 -46,-12 -78,3 -39,19 -75,69 -75,105 0,90 98,149 179,107 z"
      id="path5"/>
    <path
      d="m 2436,2660 c -670,-76 -1141,-688 -1041,-1353 70,-467 423,-852 887,-968 119,-30 351,-37 477,-15 632,110 1062,705 967,1336 -67,440 -381,810 -805,949 -141,46 -341,67 -485,51 z m -256,-267 c -28,-32 -70,-86 -93,-120 -34,-50 -46,-61 -62,-56 -38,10 -115,45 -115,52 0,20 276,179 313,181 5,0 -15,-26 -43,-57 z m 300,-104 v -161 l -52,6 c -161,19 -218,29 -218,37 0,17 123,156 192,217 39,34 73,62 75,62 2,0 3,-72 3,-161 z m 266,74 c 57,-53 164,-178 164,-192 0,-8 -56,-17 -217,-37 l -53,-6 v 162 161 l 28,-20 c 15,-11 50,-42 78,-68 z m 232,52 c 75,-35 232,-133 232,-146 0,-7 -77,-42 -115,-52 -16,-5 -28,6 -62,56 -23,34 -65,88 -93,120 -28,31 -49,57 -45,57 3,0 41,-16 83,-35 z M 1876,2104 c 43,-20 80,-38 82,-39 1,-1 -11,-38 -28,-80 -38,-95 -76,-251 -86,-345 l -7,-70 h -148 -148 l 5,33 c 27,163 67,282 131,391 46,80 95,145 109,146 6,0 47,-16 90,-36 z m 1510,-22 c 104,-146 154,-273 188,-479 l 6,-33 h -149 -148 l -7,70 c -10,97 -50,257 -88,348 -17,42 -27,77 -22,79 5,2 41,19 79,38 39,18 77,34 85,34 8,0 33,-25 56,-57 z m -1146,-86 c 47,-8 120,-17 163,-21 l 77,-7 v -199 -199 h -240 -240 v 24 c 0,76 49,266 96,374 18,42 27,52 41,48 10,-3 56,-12 103,-20 z m 784,-28 c 47,-108 96,-298 96,-374 v -24 h -240 -240 v 198 199 l 113,12 c 61,7 139,18 172,26 33,7 64,13 68,14 4,1 18,-23 31,-51 z M 1851,1295 c 19,-125 49,-241 86,-327 14,-32 24,-60 22,-62 -2,-2 -42,-19 -88,-39 -97,-42 -93,-43 -151,43 -55,81 -105,184 -134,280 -26,86 -47,205 -37,215 2,3 68,4 145,3 l 140,-3 z m 629,-89 v -203 l -87,-7 c -49,-4 -130,-15 -182,-25 l -93,-18 -23,51 c -45,102 -95,303 -95,382 v 24 h 240 240 z m 640,180 c 0,-80 -49,-275 -94,-378 l -24,-55 -94,18 c -51,10 -132,21 -180,25 l -88,7 v 203 204 h 240 240 z m 452,19 c 9,-10 -12,-130 -38,-215 -29,-96 -79,-199 -134,-280 -58,-86 -54,-85 -151,-43 -46,20 -86,37 -88,39 -2,2 8,32 23,66 38,92 72,220 85,323 7,50 14,96 16,103 3,9 41,12 143,12 76,0 141,-2 144,-5 z M 2480,679 V 518 l -37,30 c -70,55 -233,234 -233,255 0,8 160,33 233,36 l 37,1 z m 368,139 c 34,-5 62,-13 62,-16 0,-20 -164,-199 -232,-254 l -38,-30 v 162 163 l 73,-7 c 39,-4 100,-12 135,-18 z M 2072,717 c 15,-24 57,-78 93,-120 l 66,-77 -53,21 c -109,42 -279,152 -261,169 9,10 103,49 118,49 6,1 22,-18 37,-42 z m 1095,12 48,-21 -40,-33 C 3126,633 3013,568 2942,541 l -53,-21 66,77 c 36,42 78,96 93,120 30,49 33,49 119,12 z"
      id="path6"/>
    <path
      d="M 1044,847 C 907,768 742,673 677,636 L 559,568 499,600 C 423,640 354,648 275,626 165,594 80,478 80,360 80,210 210,80 360,80 c 101,0 199,61 247,154 22,41 27,65 28,122 v 71 l 355,204 c 195,112 365,214 378,226 12,12 22,34 22,48 0,31 -49,85 -78,85 -10,0 -131,-64 -268,-143 z M 444,441 c 26,-27 31,-39 31,-81 0,-43 -5,-54 -33,-82 -47,-48 -117,-48 -164,0 -28,28 -33,39 -33,81 0,52 25,92 70,112 37,16 96,3 129,-30 z"
      id="path7"/>
    <path
      d="m 3759,961 c -35,-36 -38,-74 -6,-104 12,-12 182,-114 378,-227 l 356,-204 -5,-47 c -15,-153 121,-299 278,-299 150,0 280,130 280,280 0,118 -85,234 -195,266 -79,22 -148,14 -224,-26 l -60,-32 -118,68 c -516,297 -618,354 -635,354 -11,0 -33,-13 -49,-29 z M 4844,441 c 26,-27 31,-39 31,-81 0,-43 -5,-54 -33,-82 -47,-48 -117,-48 -164,0 -28,28 -33,39 -33,81 0,52 25,92 70,112 37,16 96,3 129,-30 z"
      id="path8"/>
  </g>
</svg>
