<svg xmlns="http://www.w3.org/2000/svg" viewBox="0 0 370.91 370.98" appTooltip="Coverage icons created by Uniconlabs - Flaticon">
  <path
    d="M185.41,177.82c48.59-.01,88.13,39.41,88.19,87.96,.07,48.66-39.62,88.23-88.37,88.13-48.61-.1-88.02-39.57-87.99-88.12,.03-48.52,39.56-87.96,88.17-87.97Zm-24.26,82.31c5.23,0,10.45-.05,15.68,.03,2.08,.03,2.81-.76,2.78-2.85-.09-8.33-.12-16.67,.02-25.01,.04-2.4-.97-2.78-3.03-3.03-7.39-.92-14.76-2-22.11-3.19-1.7-.27-2.5,.17-3.18,1.65-4.3,9.34-6.91,19.12-7.94,29.35-.23,2.29,.55,3.13,2.86,3.09,4.97-.11,9.95-.03,14.93-.04Zm48.1,.01c4.98,0,9.95,.04,14.93-.01,3.36-.04,3.53-.13,3.23-3.34-.95-10.1-3.6-19.76-7.85-28.99-.66-1.44-1.4-2.01-3.14-1.73-7.48,1.2-14.97,2.3-22.48,3.23-2.03,.25-2.73,.88-2.71,2.94,.09,8.21,.02,16.42,.05,24.63,.01,3.18,.06,3.24,3.42,3.27,4.85,.05,9.7,.01,14.56,.01Zm-47.8,11.44c-4.85,0-9.71-.03-14.56,0-3.61,.03-3.83,.18-3.42,3.88,1.09,9.82,3.64,19.26,7.74,28.28,.83,1.82,1.78,2.12,3.74,1.8,7.35-1.2,14.74-2.21,22.14-3.07,1.95-.23,2.52-.9,2.51-2.74-.06-8.46-.08-16.93,.01-25.39,.02-2.15-.82-2.82-2.85-2.79-5.1,.08-10.2,.03-15.31,.02Zm48.2,0c-5.23,0-10.45,.03-15.68-.02-1.79-.02-2.74,.48-2.72,2.52,.07,8.59,.05,17.17,0,25.76,0,1.63,.41,2.38,2.24,2.6,7.64,.93,15.27,2.01,22.88,3.18,1.46,.22,2.29,.1,2.96-1.32,4.42-9.44,7.03-19.35,8.12-29.7,.24-2.29-.57-3.11-2.88-3.06-4.98,.11-9.95,.04-14.93,.04Zm-89.3-11.46c2.87,0,5.74-.04,8.6,.01,1.81,.03,2.61-.59,2.78-2.56,.95-11.38,3.63-22.35,8.32-32.78,.94-2.1,.25-2.82-1.62-3.54-3.02-1.16-6.03-2.4-8.87-3.93-1.88-1.01-2.83-.53-4.03,.97-9.15,11.52-14.47,24.59-16.23,39.18-.25,2.1,.6,2.68,2.45,2.66,2.87-.03,5.74,0,8.6,0Zm130.03,0c2.99,0,5.98-.01,8.98,0,1.74,.01,2.52-.7,2.18-2.53-.45-2.45-.67-4.94-1.19-7.37-2.5-11.77-7.47-22.38-14.95-31.84-1.35-1.71-2.41-1.98-4.34-.95-2.85,1.51-5.87,2.73-8.87,3.93-1.71,.69-2.29,1.43-1.44,3.33,4.73,10.55,7.44,21.64,8.38,33.14,.15,1.86,1.06,2.3,2.64,2.29,2.87-.02,5.73,0,8.6,0Zm-130.05,11.47c-2.74,0-5.49-.05-8.23,.01-2.86,.07-3.1,.28-2.68,3.01,.52,3.44,1.02,6.91,1.88,10.28,2.65,10.4,7.34,19.81,13.99,28.26,1.38,1.76,2.56,2.43,4.63,1.12,1.56-.99,3.36-1.61,5.06-2.39,1.8-.83,4.67-1.27,5.12-2.57,.54-1.56-.86-3.88-1.6-5.79-3.63-9.35-5.88-19.03-6.72-29.02-.19-2.29-1.03-3.04-3.21-2.94-2.74,.12-5.49,.03-8.23,.03Zm141.19,2.44c.34-1.65-.33-2.42-1.95-2.42-5.99,0-11.97,.02-17.96-.02-1.74-.01-2.37,.75-2.5,2.46-.22,2.85-.63,5.69-1.07,8.52-1.31,8.41-3.7,16.52-7.17,24.29-.87,1.95-.54,2.85,1.44,3.62,3.13,1.21,6.21,2.58,9.22,4.08,1.52,.76,2.46,.57,3.5-.73,9.33-11.7,14.85-24.97,16.48-39.79Zm-103.19-58.59c6.67,.82,12.4,1.6,18.15,2.19,2.97,.3,3.06,.12,3.08-3.04,.04-6.09,.02-12.18,0-18.27,0-.76-.24-1.53-.44-2.76-8.17,6.16-14.81,12.99-20.78,21.87Zm33.8-21.56c-.29,.1-.57,.21-.86,.31,0,7.2,.02,14.4-.01,21.59,0,1.77,1.01,2.05,2.42,1.91,3.34-.34,6.68-.62,10-1.06,2.65-.35,5.28-.89,8.58-1.46-5.76-8.66-12.43-15.46-20.13-21.29Zm-12.59,144.52c0-8.05,0-15.33,0-22.6,0-1.65-1.08-1.76-2.26-1.64-3.95,.39-7.89,.78-11.83,1.27-2.12,.27-4.21,.76-6.85,1.24,5.86,8.65,12.41,15.54,20.93,21.72Zm32.9-22.15c-6.94-.76-13.06-1.43-19.18-2.1-1.77-.19-2.01,.89-2.01,2.3,.04,6.83,.04,13.66,.09,20.49,0,.28,.33,.55,.67,1.09,7.8-6.05,14.55-12.78,20.44-21.78Zm-51.88-122.65c-9.26,3.1-17.07,7.66-24.74,14.06,3.61,1.45,6.55,2.71,9.56,3.75,.58,.2,1.74-.22,2.14-.74,4.28-5.48,8.45-11.04,13.04-17.07Zm74.45,14.1c-7.72-6.45-15.56-11.03-24.78-14.11,4.6,6.04,8.79,11.6,13.07,17.09,.41,.53,1.57,.98,2.14,.78,3.01-1.04,5.95-2.31,9.56-3.76Zm-.05,116.4c-3.25-1.32-5.81-2.21-8.23-3.39-2.06-1-3.01-.16-4.23,1.47-3.48,4.67-7.2,9.16-10.81,13.73-.4,.51-.72,1.08-1.52,2.3,9.42-3.21,17.15-7.68,24.79-14.11Zm-75.14,13.31c-4.2-5.57-8.21-10.93-12.31-16.22-.41-.53-1.57-1.01-2.14-.81-3.02,1.04-5.96,2.3-9.1,3.55,5.04,5.52,17.6,12.67,23.56,13.48Z"/>
  <path
    d="M185.17,172.49c-29.07,0-58.13,.01-87.2,0-10.07,0-19.48-2.41-28.05-7.84-31.34-19.86-31.18-65.66,.4-85.12,2.62-1.61,3.72-3.17,3.87-6.35C75.93,36.66,103.22,6.3,139.42,.92c22.07-3.28,42.06,2.21,59.58,16.13,1.98,1.57,3.68,2,6.09,1.4,38.37-9.57,76.55,14.1,85.09,52.76,.56,2.55,1.72,3.95,4.13,5.08,18.73,8.8,29.09,23.74,29.94,44.3,1.16,28.15-20.6,49.09-44.43,51.41-3.22,.31-6.47,.48-9.7,.48-28.32,.04-56.64,.02-84.96,.02Zm.22-11.62c28.69,0,57.38,.02,86.07-.03,3.1,0,6.23-.23,9.3-.69,17.36-2.64,31.28-18.34,31.98-35.94,.71-17.8-9.82-33.13-26.94-38.83-3.83-1.27-5.55-3.39-6.09-7.41-4.77-35.16-40.27-57.92-74.27-47.57-4.73,1.44-8.02,.63-11.79-2.64-15.97-13.85-34.63-18.81-55.36-14.84-31.41,6.02-53.44,34.29-52.47,65.06,.15,4.83-1.55,7.43-5.91,9.51-19.83,9.45-27.73,33.45-17.28,52.71,7.42,13.66,19.33,20.55,34.83,20.63,29.31,.16,58.63,.05,87.94,.05Z"/>
  <path
    d="M20.72,160.89c12.14,0,21.96,10.52,20.63,22.48-.29,2.61,.46,3.76,2.55,4.95,16.22,9.28,32.38,18.65,48.56,28,.86,.5,1.76,.96,2.55,1.56,2.52,1.91,3.21,4.65,1.91,7.27-1.25,2.53-4.06,3.74-6.98,2.81-1.28-.41-2.47-1.16-3.66-1.84-15.87-9.14-31.75-18.25-47.56-27.5-2.4-1.41-4.02-1.7-6.55,.11-7.27,5.22-16.96,4.73-24.06-.7-7.05-5.38-9.87-14.67-7.01-23.09,2.87-8.44,10.7-14.06,19.61-14.06Zm-.09,11.67c-5.02,.05-8.96,3.97-9,8.97-.04,5.06,4.19,9.31,9.2,9.25,4.89-.06,8.96-4.17,9-9.08,.04-5.16-4.01-9.18-9.21-9.13Z"/>
  <path
    d="M370.9,182.47c-.45,7.19-3.84,13.56-11.09,17.38-7.22,3.81-14.49,3.44-21.23-1.15-2.31-1.57-3.83-1.67-6.22-.26-15.79,9.28-31.68,18.38-47.55,27.53-1.19,.68-2.35,1.46-3.62,1.92-3.04,1.09-5.96-.11-7.3-2.82-1.28-2.61-.6-5.4,2.01-7.22,1.73-1.21,3.64-2.17,5.47-3.23,15.1-8.73,30.19-17.48,45.31-26.16,2.11-1.21,3.16-2.28,2.82-5.17-1.32-11.32,7.92-21.85,19.19-22.38,12.19-.58,22.22,8.76,22.21,21.56Zm-11.7-.82c.03-5.02-3.85-9-8.86-9.1-5.2-.11-9.32,3.86-9.34,9-.02,5.05,4.24,9.31,9.24,9.22,4.89-.09,8.94-4.2,8.97-9.11Z"/>
  <path
    d="M20.57,370.98c-8.79-.08-16.75-5.91-19.52-14.3-2.74-8.32,.02-17.47,6.88-22.82,7.06-5.51,16.74-6.11,24.05-.94,2.63,1.86,4.37,1.64,6.9,.16,15.8-9.26,31.69-18.38,47.56-27.53,1.08-.62,2.16-1.27,3.32-1.7,2.78-1.03,5.69,.08,7.05,2.56,1.34,2.44,.88,5.22-1.34,7.09-1.04,.87-2.27,1.53-3.46,2.21-15.97,9.23-31.92,18.47-47.93,27.64-2.15,1.23-3.06,2.37-2.75,5.21,1.31,11.89-8.76,22.54-20.77,22.43Zm9.27-20.93c-.06-4.95-4.09-8.95-9.04-8.98-5.11-.03-9.22,4.11-9.16,9.22,.06,4.95,4.08,8.95,9.03,8.98,5.1,.03,9.23-4.12,9.17-9.22Z"/>
  <path
    d="M370.91,349.48c-.12,12.46-10.15,22.01-21.66,21.47-11.81-.56-21.1-11.03-19.74-22.68,.31-2.69-.64-3.73-2.66-4.89-16.01-9.16-31.96-18.41-47.93-27.64-1.18-.68-2.42-1.33-3.47-2.19-2.35-1.94-2.81-4.9-1.3-7.39,1.4-2.29,4.18-3.31,6.82-2.36,1.16,.42,2.25,1.05,3.33,1.67,16.09,9.27,32.19,18.52,48.22,27.89,2.23,1.31,3.7,1.34,5.93-.21,6.83-4.75,14.22-5.12,21.54-1.17,7.2,3.88,10.56,10.28,10.93,17.49Zm-11.71,.82c.07-4.95-3.86-9.07-8.79-9.23-5.12-.16-9.35,3.87-9.42,8.97-.06,4.96,3.87,9.08,8.79,9.23,5.12,.15,9.35-3.88,9.42-8.97Z"/>
  <path
    d="M214.36,109.3c.72-.8,1.41-1.63,2.17-2.4,2.47-2.53,5.54-2.86,8.02-.88,2.38,1.91,2.9,5.32,.95,8.06-2.16,3.05-4.55,5.93-6.85,8.88-1.99,2.56-3.92,5.16-6,7.65-2.98,3.57-6.91,3.63-9.83,.04-4.32-5.32-8.54-10.73-12.67-16.2-2.33-3.08-2.01-6.18,.54-8.33,2.61-2.19,5.87-1.73,8.55,1.21,.64,.7,1.29,1.38,2.51,2.68,.09-2.03,.2-3.33,.2-4.62,.01-13.96,0-27.93,.02-41.89,.01-4.46,1.99-6.77,5.66-6.8,2.78-.02,4.8,1.38,5.49,4.11,.36,1.42,.42,2.95,.42,4.44,.03,13.22,.02,26.43,.02,39.65v4.07l.8,.35Z"/>
  <path
    d="M168.88,80.81c0,1.36,0,2.72,0,4.08,0,13.84,.02,27.68-.01,41.51,0,4.27-1.88,6.57-5.3,6.78-2.94,.18-5.13-1.25-5.86-4.11-.36-1.42-.41-2.95-.41-4.44-.03-13.21-.02-26.43-.02-39.64,0-1.35,0-2.71,0-4.06-.24-.15-.48-.29-.73-.44-.74,.83-1.46,1.69-2.24,2.49-2.44,2.5-5.6,2.83-8.03,.88-2.38-1.91-2.94-5.36-.92-8.05,4.34-5.78,8.76-11.5,13.35-17.09,2.38-2.9,6.42-2.93,8.82-.03,4.68,5.67,9.2,11.47,13.58,17.38,2.07,2.79,1.35,6.02-1.24,7.94-2.41,1.78-5.45,1.45-7.77-.9-.84-.85-1.6-1.77-2.39-2.66-.27,.12-.54,.25-.81,.37Z"/>
</svg>
