<svg xmlns="http://www.w3.org/2000/svg"  viewBox="0 0 64 64"><g fill-rule="evenodd"><path d="M18.52 28.428c-.651.012-1.285.197-1.766.678-.191.191-.332.409-.437.641L4.068 57.391a1 1 0 0 0 1.318 1.32l27.555-12.207.031-.018a2.18 2.18 0 0 0 .699-.463c.641-.641.757-1.554.637-2.416s-.463-1.779-.975-2.77c-1.022-1.982-2.738-4.253-4.939-6.455s-4.471-3.915-6.453-4.937c-.991-.511-1.908-.856-2.77-.977-.215-.03-.435-.045-.652-.041zm.051 1.996a2.35 2.35 0 0 1 .324.025c.515.072 1.269.33 2.129.773 1.72.887 3.877 2.495 5.957 4.574s3.689 4.239 4.576 5.959c.444.86.7 1.612.771 2.127s-.028.684-.07.727-.212.144-.727.072-1.269-.328-2.129-.771c-1.72-.887-3.879-2.497-5.959-4.576s-3.687-4.237-4.574-5.957c-.444-.86-.7-1.614-.771-2.129-.052-.374-.014-.563.027-.656l.01-.02v-.002c.012-.022.024-.042.033-.051.032-.032.135-.096.402-.096zm-1.793 3.213l.316.656c1.022 1.982 2.734 4.253 4.936 6.455s4.475 3.915 6.457 4.938l.652.314-7.709 3.414c-1.636-.961-3.512-2.441-5.246-4.174-1.128-1.129-2.155-2.324-3.004-3.482zm-4.52 10.205a33.64 33.64 0 0 0 2.512 2.811c1.448 1.447 2.979 2.73 4.461 3.736L6.945 55.832zm41.371-17.699c-5.453-.473-9.993 1.468-13.307 3.83-4.418 3.149-6.822 7.068-6.822 7.068a1 1 0 1 0 1.703 1.049s2.219-3.595 6.279-6.488 9.795-5.061 17.178-2.24a1 1 0 0 0 1.291-.576 1 1 0 0 0-.576-1.291c-2.009-.768-3.928-1.194-5.746-1.352zM44.387 8.055a1 1 0 0 0-1.088.902s-.402 4.205-2.764 8.596-6.547 8.873-14.416 9.607a1 1 0 0 0-.902 1.088 1 1 0 0 0 1.088.902c8.566-.8 13.422-5.872 15.992-10.65s2.992-9.357 2.992-9.357a1 1 0 0 0-.902-1.088z"/><use href="#B"/><path d="M55.428 7.752c-1.986 0-3.617 1.632-3.617 3.617s1.632 3.617 3.617 3.617 3.617-1.632 3.617-3.617-1.632-3.617-3.617-3.617zm0 2a1.6 1.6 0 0 1 1.617 1.617 1.6 1.6 0 1 1-3.234 0 1.6 1.6 0 0 1 1.617-1.617z"/><use href="#B" x="34.805" y="30.171"/><path d="M35.254 7.836a1 1 0 0 0-1 1v1.387h-1.387a1 1 0 1 0 0 2h1.387v1.387a1 1 0 1 0 2 0v-1.387h1.387a1 1 0 1 0 0-2h-1.387V8.836a1 1 0 0 0-1-1zm12.182 10.152a1 1 0 0 0-.707 1.707l.98.98-.98.98a1 1 0 0 0 1.414 1.414l.98-.98.98.98a1 1 0 0 0 1.414-1.414l-.98-.98.98-.98a1 1 0 0 0-1.414-1.414l-.98.98-.98-.98a1 1 0 0 0-.707-.293zm.988 18.192a1 1 0 0 0-1 1v1.387h-1.387a1 1 0 1 0 0 2h1.387v1.387a1 1 0 1 0 2 0v-1.387h1.387a1 1 0 1 0 0-2h-1.387V37.18a1 1 0 0 0-1-1zm-9.301 9.027a1 1 0 0 0-.861 1.123 1 1 0 0 0 1.123.859 3.23 3.23 0 0 1 .844 0 2.55 2.55 0 0 1 .875.271 1.69 1.69 0 0 1 .596.523 1.17 1.17 0 0 1 .201.641c-.003.196-.084.397-.191.514-.074.08-.194.167-.348.232s-.352.115-.578.15c-.454.071-1.041.066-1.727.203a5.23 5.23 0 0 0-4.178 4.707c-.089 1.13.196 2.264.807 3.219a5.23 5.23 0 0 0 5.904 2.182c1.085-.328 2.038-1.006 2.705-1.922a5.23 5.23 0 0 0-.115-6.293 1 1 0 0 0-1.572 1.236 3.28 3.28 0 0 1 .686 1.928 3.27 3.27 0 0 1-.615 1.951c-.404.555-1.01.987-1.668 1.186s-1.401.176-2.045-.062a3.28 3.28 0 0 1-1.596-1.283 3.27 3.27 0 0 1-.496-1.984c.054-.685.345-1.369.801-1.883a3.28 3.28 0 0 1 1.775-1.018c.423-.084.978-.087 1.641-.189a4.39 4.39 0 0 0 1.055-.287c.364-.155.733-.384 1.041-.721.472-.516.704-1.173.715-1.834a3.12 3.12 0 0 0-.539-1.783c-.341-.509-.8-.898-1.305-1.172a4.52 4.52 0 0 0-1.566-.494 5.21 5.21 0 0 0-1.367 0zM13.021 4.111c-.574-.151-1.175-.148-1.748.006a3.4 3.4 0 0 0-1.516.871 1 1 0 1 0 1.41 1.42 1.43 1.43 0 0 1 1.346-.361 1.43 1.43 0 0 1 .625.355 1.43 1.43 0 0 1 .367.621c.115.409.038 1.026-.004 1.824-.021.401-.024.855.082 1.34.107.492.325 1.006.738 1.434a2.54 2.54 0 0 0 3.892-.27 2.53 2.53 0 0 0 .486-1.375 1 1 0 0 0-1.998-.1.59.59 0 0 1-.105.297.58.58 0 0 1-.25.189c-.094.036-.214.044-.312.021a.58.58 0 0 1-.273-.154c-.087-.09-.176-.257-.223-.469-.048-.218-.058-.491-.041-.809.034-.639.208-1.493-.066-2.471a3.4 3.4 0 0 0-2.41-2.371z"/></g><defs ><path id="B" d="M22.213 15.604c-1.645 0-3 1.355-3 3s1.355 3 3 3 3-1.355 3-3-1.355-3-3-3zm0 2c.564 0 1 .436 1 1s-.436 1-1 1-1-.436-1-1 .436-1 1-1z"/></defs></svg>
