<svg xmlns="http://www.w3.org/2000/svg" viewBox="0 0 152 25.39" xmlns:v="https://vecta.io/nano"><path d="M22.17 21.35a10.57 10.57 0 0 0 2.15-4.72c1.14-1.68 1.82-3.73 1.82-5.91l-.05-1.05c.36 1.05.58 2.17.58 3.34 0 3.48-1.79 6.55-4.49 8.35h0zm-2.66 1.22a10.01 10.01 0 0 1-2.87.42 10.33 10.33 0 0 1-1.49-.12c1.09-.48 2.07-1.14 2.93-1.94 1.82-.44 3.44-1.36 4.76-2.61-.7 1.71-1.87 3.17-3.35 4.25h.01zm-5.69 1.86c-1.24 0-2.43-.24-3.52-.67.19 0 .36.03.55.03 1.25 0 2.45-.23 3.58-.63.71.16 1.47.24 2.22.24a11.04 11.04 0 0 0 1.84-.17c-1.39.77-2.99 1.2-4.67 1.2zm-7.51-3.51c1.33.63 2.81.98 4.39.98a4.36 4.36 0 0 0 .51-.03 9.23 9.23 0 0 0 1.57.79 10.13 10.13 0 0 1-1.94.19 9.68 9.68 0 0 1-3.01-.48c-.57-.43-1.08-.93-1.53-1.48v.03zM4.08 14.7c0-1.51.35-2.93.97-4.21v.23a10.53 10.53 0 0 0 1.91 6.05c.77 1.99 2.13 3.69 3.87 4.87h-.11c-1.71 0-3.32-.43-4.74-1.18-1.18-1.61-1.9-3.61-1.9-5.76h-.01zM1.93 17c.66 1.06 1.51 1.99 2.49 2.74.26.48.57.93.89 1.36a9.8 9.8 0 0 1-3.38-4.12h0zm-.81-3.86c0-4.19 2.65-7.76 6.36-9.14a10.54 10.54 0 0 0-2.13 4.22 10.57 10.57 0 0 0-2.21 6.48 10.58 10.58 0 0 0 1 4.49C2.96 18.17 2 16.88 1.4 15.42a10.27 10.27 0 0 1-.28-2.3zm9.39-11.67c-.61.34-1.16.71-1.68 1.16-3.66.71-6.66 3.3-7.95 6.71.99-4.44 4.92-7.78 9.63-7.86h0zm1.43.04a9.82 9.82 0 0 1 3.52 1.12c-.47.05-.94.15-1.39.27-1.01-.32-2.09-.5-3.2-.5-.23 0-.46.03-.69.04.55-.36 1.14-.67 1.76-.91h-.01zM15.6.77c3.63 0 6.79 1.98 8.52 4.9-1.9-1.94-4.53-3.15-7.45-3.15-.24 0-.5.01-.74.04a10.1 10.1 0 0 0-3.47-1.26 9.56 9.56 0 0 1 3.13-.52h.01zm5.96 12.28A10.31 10.31 0 0 0 20.75 9c-.15-.63-.36-1.22-.63-1.8 2.11 1.79 3.46 4.45 3.46 7.44a10.19 10.19 0 0 1-.24 2.15c-1.1 1.4-2.58 2.48-4.26 3.12 1.55-1.86 2.49-4.25 2.49-6.85h0zm-5.83 7.45a10.42 10.42 0 0 0 4.65-5.37c-.46 2.06-1.57 3.87-3.11 5.22-.5.08-1.01.13-1.53.15zm-1.32.61a11.5 11.5 0 0 0 1.18.07 7.07 7.07 0 0 0 .65-.03 9.47 9.47 0 0 1-2.76 1.25c-.54-.19-1.08-.4-1.57-.67.87-.11 1.71-.31 2.49-.62zm-.55-.08a10.44 10.44 0 0 1-2.34.47 10.14 10.14 0 0 1-3.5-3.51c1.53 1.57 3.56 2.68 5.83 3.04zM19.4 6.61c.08.05.17.12.26.19.11.2.2.4.3.61-.17-.27-.35-.54-.55-.79zm-4.64-3.54c.43-.08.86-.13 1.3-.16a10.46 10.46 0 0 1 2.35 2.04c-.36-.17-.74-.34-1.13-.47a11.02 11.02 0 0 0-2.53-1.43h0zM9.55 5.88a9.73 9.73 0 0 1 4.28-1 9.57 9.57 0 0 1 3 .48c2.3 1.79 3.78 4.57 3.78 7.7a3.71 3.71 0 0 1-.03.47c-.63 3.08-2.68 5.64-5.42 7-3.51-.15-6.55-2.14-8.18-5.02a9.9 9.9 0 0 1-.35-2.57c0-2.74 1.12-5.25 2.92-7.06zm3.57-2.31c.43.11.86.23 1.26.39-.19 0-.36-.03-.55-.03-.66 0-1.31.07-1.94.19.39-.22.81-.39 1.22-.55zm-2.45.85c-1.6.5-3.04 1.37-4.22 2.5.52-1.29 1.32-2.43 2.3-3.38a9.89 9.89 0 0 1 2.11-.24 9.57 9.57 0 0 1 1.53.13 10.77 10.77 0 0 0-1.72.98zm-4.39 9.57c-.36-1.04-.58-2.15-.58-3.31 0-.55.05-1.09.15-1.61.71-1.01 1.6-1.88 2.64-2.57-1.41 1.78-2.26 4.02-2.26 6.46a8.5 8.5 0 0 0 .05 1.02h0zm19.2-3.28c0 1.52-.35 2.96-.97 4.24v-.27c0-4.04-2.25-7.55-5.56-9.38-.69-.9-1.51-1.7-2.44-2.34h.13c3.38 0 6.35 1.68 8.17 4.24a9.72 9.72 0 0 1 .66 3.5h0zm.3-2.74C24.55 3.46 20.46.15 15.59.15a10.6 10.6 0 0 0-4.56 1.05c-.11 0-.22-.01-.32-.01C5.18 1.18.66 5.54.38 11c-.13.69-.22 1.39-.22 2.11 0 4.68 3.03 8.66 7.24 10.1a10.58 10.58 0 0 0 6.43 2.17c2.92 0 5.57-1.18 7.49-3.08 3.4-1.72 5.76-5.25 5.76-9.31 0-1.83-.48-3.55-1.32-5.06h.01z" fill="#47216a"/><path d="M14.95 0a.48.48 0 0 0-.48.48c0 .26.22.48.48.48s.48-.22.48-.48-.22-.48-.48-.48zm5.7 21.35a.85.85 0 1 0 0 1.7.85.85 0 1 0 0-1.7zM.7 13.56c-.39 0-.7.31-.7.7s.31.7.7.7.7-.31.7-.7-.31-.7-.7-.7zm4.17-9.58a.78.78 0 1 0 0-1.56.78.78 0 1 0 0 1.56zm21.93 7.37c-.34 0-.59.27-.59.59a.6.6 0 0 0 .59.59.6.6 0 0 0 .59-.59.6.6 0 0 0-.59-.59zm-1.44 1.64c-.44 0-.81.36-.81.81s.36.81.81.81.81-.36.81-.81-.36-.81-.81-.81zm-8.76 6.24a.48.48 0 0 0-.48.48c0 .26.22.48.48.48s.48-.22.48-.48-.22-.48-.48-.48zm-11.35.23a.65.65 0 0 0-.65.65c0 .37.28.65.65.65s.65-.28.65-.65-.28-.65-.65-.65zm-1.02-7.33c-.46 0-.83-.38-.83-.83a.84.84 0 0 1 .83-.83.84.84 0 0 1 .83.83.84.84 0 0 1-.83.83zM99 22.24c0 1.14-.89 2.03-1.97 2.03a2.02 2.02 0 0 1-2-2.03A1.96 1.96 0 0 1 97 20.27c1.12 0 2 .89 2 1.97z" fill="#2ea196"/><path d="M92.9 6.7c.92 0 1.55.17 2.55.72L94.1 10c-.72-.43-1.09-.57-1.69-.57-1.09 0-2.18.6-2.66 1.55-.46.8-.66 2-.66 4.04v9.04h-.97a1.89 1.89 0 0 1-1.89-1.89V8.99a1.89 1.89 0 0 1 1.89-1.89h.97v1.8c1.49-1.77 2.23-2.23 3.81-2.23zm-23.32 6.95c.4-2.49 2.49-4.32 4.92-4.32s4.41 1.69 4.92 4.32h-9.85zm4.89-6.9c-4.81 0-8.1 3.61-8.1 8.84s3.38 8.76 8.24 8.76c3.38 0 5.84-1.49 7.7-4.75l-.92-.52c-.83-.46-1.86-.23-2.43.52-1.23 1.55-2.43 2.15-4.21 2.15-3.03 0-5.15-2.23-5.32-5.64h13.08v-.49c0-5.32-3.15-8.84-7.98-8.84h-.06zm31.71-5.72h.97v23.01h-.97a1.89 1.89 0 0 1-1.89-1.89V2.95a1.89 1.89 0 0 1 1.89-1.89zM152 23.81h-2.63c-.74 0-1.43-.31-1.92-.86l-5.98-6.75-.72.72v7.1h-.97a1.89 1.89 0 0 1-1.89-1.89V2.92a1.89 1.89 0 0 1 1.89-1.89h.97v12.22l5.32-5.44c.46-.49 1.12-.74 1.77-.74h2.78l-7.16 7.15 8.53 9.62v-.03zM113.85 7.04h.97v16.94h-.97a1.89 1.89 0 0 1-1.89-1.89V8.93a1.89 1.89 0 0 1 1.89-1.89zM35 7.1h.97v16.94H35a1.89 1.89 0 0 1-1.89-1.89V8.99A1.89 1.89 0 0 1 35 7.1zm27.07 0h2.98v2.66h-2.98v14.28h-.97a1.89 1.89 0 0 1-1.89-1.89V9.76h-1.75V7.1h1.75V2.95a1.89 1.89 0 0 1 1.89-1.89h.97zm70.06 1.89c.66 1.06.92 2.29.92 4.46v10.56h-.97a1.89 1.89 0 0 1-1.89-1.89v-8.21c0-1.77-.12-2.58-.57-3.26-.51-.89-1.6-1.4-2.98-1.4-2.89 0-4.15 1.86-4.15 6.21v8.56h-.97a1.89 1.89 0 0 1-1.89-1.89V8.96a1.89 1.89 0 0 1 1.89-1.89h.97V9.1c1.46-1.77 2.75-2.43 4.84-2.43s3.86.89 4.81 2.29v.03zm-78.85 0c.66 1.06.92 2.29.92 4.46v10.56h-.94c-1.06 0-1.95-.86-1.95-1.92v-8.15c0-1.77-.11-2.58-.57-3.26-.52-.89-1.6-1.4-2.98-1.4-2.89 0-4.15 1.86-4.15 6.21v8.56h-.97a1.89 1.89 0 0 1-1.89-1.89V8.99a1.89 1.89 0 0 1 1.89-1.89h.97v2.03c1.46-1.77 2.75-2.43 4.84-2.43s3.86.89 4.81 2.29h.03z" fill="#47216a"/></svg>