<svg xmlns="http://www.w3.org/2000/svg" viewBox="0 0 147.757 338.231" width="338.228" height="147.421"><g fill="#5e757b"><path d="M370.13 26.458h91.75v274.891h-91.75V26.458m-577.554 208.764c28.931-.837 52.359-8.006 70.135-21.285 18.121-13.472 27.104-30.415 27.104-51.02 0-20.944-9.639-38.071-28.749-51.701-19.127-13.624-43.724-20.432-73.643-20.432-.993 0-2.497 0-4.651.151-1.828.177-3.322.177-4.482.177v144.11zm-106.7 66.127V25.629h68.146c36.065 0 64.489 1.659 85.091 4.979 20.784 3.337 39.225 8.644 55.355 16.129 28.911 13.297 51.191 30.08 66.814 50.368 15.788 20.271 23.597 42.361 23.597 66.305 0 22.777-7.141 44.224-21.436 64.148-14.461 19.938-34.577 36.746-60.504 50.201-13.804 6.976-29.915 12.476-48.2 16.618-18.289 3.829-38.891 6.162-61.827 6.973h-107.036"/><path d="M34.575 338.095c15.96.345 30.083 0 42.384-.67 25.28-1.368 49.535-4.804 72.974-10.126 45.419-8.536 79.254-23.34 112.354-39.571 36.585-17.949 58.281-35.906 77.262-56.185 19.935-21.211 26.443-39.228 26.263-57.661-.175-18.285-9.445-34.24-27.419-47.863-9.467-7.209-23.089-12.961-40.043-17.799-14.411-4.081-31.58-6.975-51.708-9.304l-51.356 58.004c24.783 3.496 42.973 9.113 49.544 22.116 7.203 14.219 5.987 28.428-9.823 46.368-16.164 18.385-40.043 32.571-71.62 43.225-25.756 8.661-52.189 13.129-79.114 13.28zm36.388-104.096c-20.16-4.033-36.051-10.412-48.019-17.898-21.419-13.389-32.743-29.921-34.075-48.7-1.337-18.813 6.799-38.639 25.42-59.423C32.044 88.159 56.34 69.799 87.413 53.343c31.208-16.524 66.34-29.459 105.233-39.419 20.615-5.283 42.539-9.155 65.651-11.485C277.889.469 296.113-.495 320.285.252l-51.527 57.939c-28.101.175-55.177 4.779-81.62 14.092-30.028 10.572-53.161 24.564-69.122 42.529-16.188 18.217-17.08 33.391-8.635 47.181 7.273 11.912 24.776 17.881 48.5 21.193l-50.001 56.353s-26.948-3.553-36.917-5.54"/></g></svg>
