<svg xmlns="http://www.w3.org/2000/svg" viewBox="0 0 275.2 356.52">
  <path
    d="M137.61,183.55c4.18-4.67,8.18-8.94,11.89-13.45,.73-.89,.76-2.8,.42-4.05-1.6-5.85-3.45-11.63-5.25-17.61,5.69-1.09,11.04-2.11,17.03-3.25,21.33,70.17,42.7,140.48,64.22,211.26-5.76,0-11.1,.12-16.42-.12-.85-.04-2.04-1.56-2.37-2.61-3.3-10.45-6.37-20.97-9.73-31.39-.56-1.73-1.87-3.55-3.36-4.58-17.93-12.42-35.98-24.67-53.94-37.05-1.79-1.23-3.03-1.34-4.89-.05-18.15,12.54-36.4,24.93-54.55,37.48-1.29,.89-2.36,2.55-2.84,4.08-3.32,10.44-6.53,20.92-9.58,31.44-.65,2.25-1.67,2.93-3.91,2.86-4.84-.15-9.7-.05-15.04-.05,21.47-70.65,42.82-140.88,64.22-211.29,5.69,1.09,11.14,2.14,17,3.26-1.73,5.79-3.3,11.51-5.18,17.13-.77,2.31-.53,3.9,1.17,5.68,3.7,3.86,7.19,7.94,11.1,12.31Zm0,18.02c-11.76,13.19-23.23,26.06-34.88,39.14,11.41,7.8,22.38,15.37,33.47,22.75,.81,.54,2.81,.07,3.81-.6,9.94-6.65,19.8-13.44,29.67-20.21,.88-.6,1.67-1.32,2.69-2.12-11.63-13.04-23.05-25.84-34.75-38.96Zm-10.56,70.25c-9.71-6.63-18.77-12.81-28.14-19.2-4.94,16.27-9.69,31.95-14.72,48.54,14.7-10.06,28.52-19.52,42.86-29.34Zm49.24-19.21c-9.58,6.58-18.65,12.8-28.04,19.24,14.37,9.83,28.19,19.28,42.79,29.26-5.05-16.62-9.82-32.3-14.74-48.5Zm-46.69-60.05c-3.04-3.39-5.94-6.63-9.28-10.36-3.18,10.47-6.12,20.16-9.06,29.85,.21,.12,.42,.24,.63,.35,5.84-6.54,11.67-13.09,17.71-19.85Zm16.04,.02c6.03,6.76,11.84,13.27,17.65,19.77,.22-.14,.44-.27,.66-.41-2.97-9.72-5.94-19.43-9.08-29.72-3.35,3.76-6.15,6.9-9.23,10.35Z"/>
  <path
    d="M275.2,67.01c-.56,22.6-9.54,42.08-26.39,58.01-3.04,2.88-6.44,2.93-8.93,.34-2.48-2.58-2.29-5.99,.75-8.91,12.38-11.9,20.31-26.07,22.08-43.33,2.15-21.03-4.74-38.96-19.01-54.26-.93-1-1.95-1.93-2.91-2.9-3.13-3.17-3.44-6.59-.84-9.21,2.41-2.43,5.97-2.29,8.99,.52,6.81,6.33,12.43,13.59,16.84,21.8,6.26,11.65,9.27,24.11,9.44,37.96Z"/>
  <path
    d="M0,65.1C.46,42.87,9.36,23.36,26.15,7.37c3.14-2.99,6.84-3.1,9.25-.49,2.48,2.69,2.15,6.03-1.14,9.2-12.38,11.93-20.15,26.18-21.8,43.45-2.06,21.51,5.33,39.6,20.14,54.95,.78,.81,1.64,1.54,2.4,2.36,2.5,2.73,2.66,5.96,.44,8.4-2.34,2.58-6.13,2.99-8.59,.09-5.93-7-12.12-13.94-16.94-21.69C2.88,92.31,.19,79.47,0,65.1Z"/>
  <path
    d="M52.15,22.83c1.94,1.55,4.34,2.52,4.85,4.1,.63,1.93,.29,4.73-.73,6.52-1.89,3.31-4.88,5.98-6.89,9.25-10.42,16.94-8.53,38.04,4.56,53.09,.65,.75,1.34,1.48,1.97,2.25,2.4,2.99,2.38,6.46-.05,8.71-2.64,2.46-5.97,2.2-8.91-.86-6.68-6.94-11.55-15.02-14.04-24.32-5.57-20.82-.55-39.12,13.76-55,1.31-1.46,3.32-2.3,5.48-3.75Z"/>
  <path
    d="M244.57,66.12c-.33,15.05-5.59,28.15-15.8,39.24-3.28,3.56-6.62,3.99-9.42,1.39-2.59-2.4-2.43-5.89,.44-9.27,17.23-20.35,17.14-42.78-.25-63.1-2.8-3.27-2.86-6.94-.17-9.27,2.57-2.22,6.15-1.83,8.95,1.16,10.49,11.19,15.94,24.47,16.26,39.85Z"/>
  <path d="M131.41,98.91c-8.12,1.11-15.97,2.19-24.26,3.33-4.51-9.11-7.24-19.01-7.93-29.88h32.19v26.55Z"/>
  <path d="M168.08,102.24c-8.41-1.15-16.25-2.22-24.29-3.32v-26.61h32.15c-.53,10.72-3.4,20.59-7.86,29.93Z"/>
  <path
    d="M99.23,59.77c.51-10.23,3.14-19.71,7.46-28.74,.3-.63,1.85-1.08,2.73-.96,7.25,1.01,14.48,2.18,21.98,3.35v26.36h-32.16Z"/>
  <path
    d="M143.72,59.81v-26.4c7.62-1.17,15.18-2.38,22.76-3.43,.69-.09,1.91,.65,2.21,1.31,4.13,8.97,6.81,18.33,7.26,28.52h-32.24Z"/>
  <path
    d="M67.63,72.24h18.38c2.87,11.38,5.7,22.63,8.59,34.12-3.02,1.36-6.75,3.04-10.9,4.91-9.31-11.25-14.8-24.08-16.08-39.02Z"/>
  <path
    d="M191.52,111.25c-4.01-1.79-7.74-3.46-11.28-5.04,2.09-7.29,4.27-14.49,6.17-21.76,.78-2.99,1.12-6.13,1.35-9.22,.17-2.26,.75-3.35,3.3-3.26,5.33,.18,10.67,.05,16.52,.05-1.23,15.06-6.74,27.85-16.06,39.23Z"/>
  <path
    d="M67.58,60.04c1.41-15.08,6.79-27.78,16.11-39.1,3.89,1.74,7.7,3.43,11.28,5.03-2.11,7.27-4.3,14.34-6.17,21.51-.84,3.23-.86,6.66-1.56,9.93-.21,.99-1.4,2.48-2.19,2.51-5.69,.22-11.4,.12-17.48,.12Z"/>
  <path
    d="M179.67,26.23c4.07-1.83,7.79-3.49,11.49-5.15,8.19,7.52,15.47,24.67,16.31,38.91-6.04,0-12.06,.05-18.09-.1-.51-.01-1.36-1.35-1.42-2.13-.85-10.89-3.78-21.24-8.29-31.54Z"/>
  <path d="M143.71,132.15v-20.99c5.87,.66,11.54,1.3,18.07,2.04-5.38,7.57-10.94,13.6-18.07,18.95Z"/>
  <path
    d="M113.58,17.75C119.22,11.84,124.87,5.92,130.52,0l.91,.7V21.14c-5.93-.74-11.61-1.45-17.28-2.16-.19-.41-.38-.82-.57-1.23Z"/>
  <path d="M143.75,21.16V0c7.05,5.42,12.68,11.42,17.96,18.91-6.28,.79-11.9,1.49-17.96,2.26Z"/>
  <path d="M113.42,113.2c6.53-.74,12.14-1.38,18-2.05v20.91c-7.04-5.23-12.59-11.22-18-18.86Z"/>
  <path
    d="M182.23,121.14c-6.29,3.68-12.59,7.35-18.88,11.03-.17-.27-.34-.53-.51-.8,3.65-4.73,7.3-9.46,11.22-14.53,2.48,.99,5.15,2.05,7.82,3.12,.12,.39,.24,.79,.35,1.18Z"/>
  <path
    d="M93.02,11.03c6.11-3.6,12.23-7.2,18.34-10.8,.22,.29,.44,.58,.65,.86-3.32,4.46-6.62,8.95-10.01,13.35-.32,.42-1.4,.63-1.95,.44-2.3-.81-4.53-1.81-6.79-2.74-.08-.37-.16-.74-.24-1.12Z"/>
  <path
    d="M181.89,12.12c-2.14,.9-4.24,1.93-6.44,2.63-.71,.23-2.05-.11-2.49-.67-3.35-4.27-6.56-8.66-9.81-13.02,.17-.29,.34-.59,.51-.88,6.17,3.61,12.35,7.22,18.52,10.83-.1,.37-.2,.74-.3,1.11Z"/>
  <path
    d="M112,132.18c-6.31-3.64-12.63-7.28-18.94-10.92,.08-.41,.15-.82,.23-1.22,2.63-1.08,5.27-2.17,7.83-3.22,3.88,5.02,7.57,9.81,11.27,14.6-.13,.26-.26,.51-.39,.77Z"/>
</svg>
