<svg xmlns="http://www.w3.org/2000/svg" xml:space="preserve" viewBox="0 0 335.213 64.547"><path fill="#09090a" d="M0 64.547h64.543V.003H0v64.544"/><path fill="#fff" d="M53.907 32.274c0 11.95-9.685 21.636-21.636 21.636-11.95 0-21.635-9.686-21.635-21.636s9.686-21.637 21.635-21.637c11.95 0 21.636 9.688 21.636 21.637"/><path fill="#09090a" d="m36.856 28.46 3.233-9.978c-6.048-3.43-13.87-2.573-19.024 2.582-6.189 6.19-6.189 16.226 0 22.415 6.19 6.191 16.227 6.191 22.417 0 4.91-4.91 5.92-12.24 3.04-18.152l-9.666 3.134m52.139-4.929v5.272h8.997v6.944h-8.997v12.384h-8.2V16.587h18.116v6.945h-9.916m26.029 17.655h9.832v6.945h-18.032V16.587h8.2v24.6m24.02-17.655v5.272h9.247v6.944h-9.247v5.439h9.748v6.945h-17.948V16.587h17.948v6.945h-9.748m16.572-6.946H165.7l4.81 8.16 4.813-8.16h10.082l-10.082 14.686 11.672 16.861h-9.874l-6.61-10.294-7.239 10.294h-9.915L165.7 31.272l-10.084-14.686m67.911 15.187c0 10.21-7.323 17.405-17.447 17.405-10.125 0-17.447-7.195-17.447-17.405 0-9.538 8.368-16.233 17.447-16.233 9.079 0 17.447 6.695 17.447 16.233m-26.359.043c0 5.439 4.017 9.413 8.912 9.413 4.895 0 8.912-3.974 8.912-9.413 0-4.352-4.017-8.327-8.912-8.327-4.895 0-8.912 3.975-8.912 8.327m33.48-15.23h12.55c6.78 0 11.465 3.139 11.465 10.376 0 7.448-4.016 10.71-11.171 10.71h-4.644v10.461h-8.2zm8.2 14.478h1.38c2.97 0 5.9 0 5.9-3.851 0-3.975-2.719-4.016-5.9-4.016h-1.38v7.867m34.899 17.069h-8.2v-24.6h-6.778v-6.947h21.755v6.947h-6.777v24.6m22.137-.001h-8.2V16.585h8.2v31.547m27.659-31.546-4.811 8.16-4.812-8.16h-10.083L313.92 31.27l-12.343 16.862h9.916l7.239-10.293 6.61 10.293h9.874L323.543 31.27l10.084-14.685h-10.084"/></svg>