<svg xmlns="http://www.w3.org/2000/svg" viewBox="0 0 359.47 359.39" appTooltip="Route icons created by wanicon - Flaticon">
  <path
    d="M301.65,347.14c-4.9-6.54-9.86-12.63-14.25-19.12-5.92-8.75-9.98-18.31-11.58-28.89-3.25-21.56,11.99-43.2,33.54-46.8,4.83-.81,9.92-.53,14.84-.15,4.05,.31,6.33,3.48,5.76,6.81-.61,3.58-3.75,5.57-7.88,4.99-19.36-2.7-35.83,12.41-34.45,31.71,.54,7.46,3.23,14.31,6.83,20.79,5.62,10.12,13.05,18.84,21.22,26.95,.84,.83,1.55,2.01,3,.55,10.61-10.68,20.3-22.01,25.76-36.33,4.54-11.89,4.02-23.14-4.15-33.51-2.47-3.13-1.91-6.83,.94-8.91,2.7-1.97,6.15-1.44,8.57,1.59,9.52,11.91,11.71,25.28,7.69,39.81-3.32,12.01-9.71,22.4-17.57,31.85-5.17,6.21-11.07,11.82-16.61,17.72-2.19,2.33-4.78,3.19-8.02,3.19-96.43-.06-192.85-.05-289.28-.05-5.27,0-8.11-2.22-8-6.2,.1-3.85,2.8-5.87,7.95-5.87,57.63,0,115.26,0,172.9,0q4.76,0,4.77-4.74c0-12.1,.03-24.2,0-36.3-.11-32.73-21.92-59.27-54.08-65.48-4.97-.96-10.16-.91-15.25-1.15-6.71-.31-13.55,.28-20.13-.78-14.14-2.27-24.18-14.6-24.27-29.04-.12-17.59-.05-35.18-.02-52.77,0-5.17,2.13-7.3,7.23-7.35,4.97-.04,9.93,0,15.39,0-.69-1.07-1.07-1.8-1.59-2.42-14.36-17.25-28.76-34.48-43.09-51.76-1.28-1.54-1.97-2.13-3.56-.21-14.55,17.59-29.19,35.09-43.8,52.63-.3,.36-.5,.8-1.1,1.77,3.37,0,6.29,0,9.21,0,2.49,0,5-.09,7.48,.04,3.55,.19,5.86,2.4,5.95,5.94,.14,5.98,.13,11.98,0,17.96-.08,3.57-2.58,5.99-5.85,6.06-3.41,.08-5.98-2.42-6.14-6.16-.12-2.74-.02-5.49-.04-8.23-.02-3.88,.3-3.53-3.71-3.54-6.61-.01-13.22,0-19.83-.01-2.59,0-4.57-1.05-5.75-3.43-1.19-2.4-.69-4.59,.88-6.63,.3-.39,.63-.77,.95-1.15,12.3-14.76,24.59-29.51,36.89-44.27,6.87-8.24,13.72-16.49,20.6-24.72,4.1-4.91,7.83-4.88,11.96,.08,19,22.8,38,45.61,57,68.42,.4,.48,.81,.95,1.21,1.43,1.6,1.98,2.27,4.15,1.16,6.6-1.15,2.56-3.22,3.68-5.97,3.68-6.11,0-12.22,0-18.34,0q-5.1,0-5.1,5.15c0,13.72-.02,27.44,0,41.17,.02,11.98,7.41,19.41,19.32,19.46,6.61,.03,13.23-.06,19.83,.12,2.2,.06,2.72-.68,2.71-2.73-.06-7.85-.38-15.72,1.31-23.48,6.71-30.85,25.16-51.04,55.18-60.61,2.57-.82,3.45-1.76,3.43-4.5-.13-18.34-.07-36.67-.07-55.01,0-1-.03-2,.01-2.99,.18-4.17,2.37-6.4,6.59-6.47,5.19-.09,10.38-.02,16.19-.02-.86-1.19-1.3-1.88-1.82-2.51-14.29-17.15-28.58-34.3-42.88-51.45-1.96-2.35-2.02-2.36-3.73-.31-14.55,17.43-29.08,34.87-43.61,52.31-.37,.44-.65,.97-1.31,1.97,5.36,0,10.17-.02,14.98,0,5.66,.02,7.75,2.04,7.75,7.59,.02,24.95,0,49.9,0,74.85,0,.75,.03,1.51-.08,2.24-.48,3.04-2.96,5.19-5.93,5.21-2.98,.01-5.51-2.11-5.96-5.15-.18-1.22-.1-2.49-.1-3.74,0-21.71,0-43.41,0-65.12,0-4.19,.38-3.8-3.81-3.81-6.24-.02-12.47-.05-18.71,.02-2.96,.03-5.44-.65-6.81-3.55-1.38-2.93-.18-5.24,1.7-7.49,19.34-23.17,38.65-46.37,57.98-69.55,3.66-4.39,7.59-4.42,11.24-.05,19.34,23.18,38.65,46.38,57.99,69.56,1.87,2.24,3.11,4.54,1.75,7.49-1.43,3.09-4.09,3.64-7.16,3.6-6.49-.08-12.97,.05-19.46-.06-2.06-.03-2.79,.52-2.78,2.69,.08,16.22,.08,32.43,0,48.65-.01,2.22,.78,2.63,2.83,2.61,12.22-.12,24.45-.09,36.67-.1,1.12,0,2.26-.07,3.36,.11,3.03,.49,5.12,3.05,5.06,6.04-.06,2.82-2.07,5.26-4.93,5.78-1.09,.2-2.24,.13-3.36,.13-10.98,0-21.96-.03-32.93,.01-32.54,.11-59.22,21.84-65.22,53.84-1.5,8-.91,16.38-1.32,24.59-.09,1.88,1.4,1.83,2.48,2.13,7.39,2.01,14.39,4.94,20.79,9.14,23.48,15.44,35.82,37.24,36.56,65.35,.34,13.09,.11,26.2,.02,39.29-.02,2.28,.37,3.25,3,3.24,27.19-.1,54.39-.06,81.58-.07,.48,0,.96-.08,1.42-.12Z"/>
  <path
    d="M287.54,220.61c3.56-2.96,6.42-5.33,9.27-7.7,14.95-12.45,29.9-24.9,44.84-37.36,2.23-1.86,2.23-1.91,.04-3.74-17.33-14.46-34.67-28.91-52.02-43.36-.46-.39-.99-.7-1.88-1.33-.11,1.24-.25,2.15-.25,3.06-.03,4.49,.08,8.98-.06,13.47-.11,3.57-2.58,5.99-5.84,6.08-3.41,.09-6.1-2.41-6.14-6.14-.1-9.85-.04-19.71-.03-29.56,0-2.6,1.13-4.55,3.52-5.68,2.76-1.3,5.04-.34,7.2,1.47,11.39,9.51,22.81,19,34.21,28.5,11.79,9.82,23.58,19.63,35.36,29.46,4.97,4.15,4.92,7.69-.16,11.92-8.53,7.11-17.05,14.21-25.58,21.32-14.37,11.97-28.75,23.94-43.12,35.92-.29,.24-.57,.48-.86,.73-2.04,1.73-4.27,2.58-6.89,1.41-2.73-1.22-3.72-3.45-3.7-6.34,.04-6.49,.02-12.97,0-19.46,0-4,.3-3.61-3.64-3.61-12.35-.01-24.7-.03-37.05,0-11.48,.03-19.03,7.52-19.1,18.92-.03,4.99,0,9.98,0,14.97,0,.87,.05,1.76-.06,2.62-.43,3.22-3.03,5.47-6.14,5.38-2.97-.09-5.73-2.28-5.74-5.35-.03-8.09-.53-16.3,.65-24.25,2.09-14.06,14.43-24.17,28.58-24.31,15.84-.16,31.68-.07,47.53-.03,4.86,.01,7,2.23,7.04,7.16,.05,4.98,.01,9.96,.01,15.87Z"/>
  <path
    d="M29.96,212.59c0-4.86-.07-9.73,.02-14.59,.06-3.54,2.09-5.91,5.15-6.36,3.62-.53,6.71,2.14,6.85,6.14,.13,3.74-.03,7.48,.05,11.22,.16,6.97-.08,14,.69,20.91,3.07,27.3,24.14,50.41,51.03,55.81,6.53,1.31,13.36,1.24,20.06,1.64,5.96,.35,12.04-.19,17.88,.8,13.77,2.33,23.74,14.49,24.06,28.47,.09,3.86,.06,7.73,.02,11.6-.05,4.41-2.3,7.08-5.93,7.14-3.77,.06-6.08-2.68-6.12-7.32-.03-3.37,.03-6.73-.02-10.1-.14-10.76-7.69-18.36-18.41-18.47-6.61-.07-13.22,.06-19.83-.06-35.69-.62-67.66-27.82-74.06-62.99-.53-2.94-1.12-5.9-1.24-8.87-.2-4.98-.06-9.97-.06-14.96h-.17Z"/>
  <path
    d="M317.35,275.42c10,0,18.08,8.06,18.08,18.01,0,9.94-8.14,18.02-18.1,17.98-9.92-.05-17.93-8.2-17.88-18.2,.05-9.74,8.15-17.79,17.91-17.78Zm6,17.91c-.06-3.24-2.88-5.92-6.1-5.82-3.23,.1-5.88,2.98-5.72,6.19,.16,3.08,2.83,5.63,5.91,5.63,3.23,0,5.97-2.78,5.91-6Z"/>
</svg>
